<svg xmlns="http://www.w3.org/2000/svg" xmlns:xlink="http://www.w3.org/1999/xlink" width="133" zoomAndPan="magnify" viewBox="0 0 99.75 99.749996" height="133" preserveAspectRatio="xMidYMid meet" version="1.0"><defs><clipPath id="4d6a2f99ee"><path d="M 0 0 L 99.5 0 L 99.5 99.5 L 0 99.5 Z M 0 0 " clip-rule="nonzero"/></clipPath><clipPath id="a745432c1c"><path d="M 18.578125 26.566406 L 80.671875 26.566406 L 80.671875 72.949219 L 18.578125 72.949219 Z M 18.578125 26.566406 " clip-rule="nonzero"/></clipPath></defs><g clip-path="url(#4d6a2f99ee)"><path fill="#d2550d" d="M 49.738281 0 C 22.3125 0 0 22.3125 0 49.738281 C 0 77.164062 22.3125 99.476562 49.738281 99.476562 C 77.164062 99.476562 99.476562 77.164062 99.476562 49.738281 C 99.476562 22.3125 77.164062 0 49.738281 0 Z M 49.738281 97.929688 C 23.164062 97.929688 1.546875 76.3125 1.546875 49.738281 C 1.546875 23.164062 23.164062 1.542969 49.738281 1.542969 C 76.3125 1.542969 97.929688 23.164062 97.929688 49.738281 C 97.929688 76.3125 76.3125 97.929688 49.738281 97.929688 Z M 49.738281 97.929688 " fill-opacity="1" fill-rule="nonzero"/></g><path fill="#d2550d" d="M 49.738281 3.859375 C 24.441406 3.859375 3.855469 24.4375 3.855469 49.738281 C 3.855469 75.039062 24.441406 95.621094 49.738281 95.621094 C 75.039062 95.621094 95.617188 75.035156 95.617188 49.738281 C 95.617188 24.4375 75.035156 3.859375 49.738281 3.859375 Z M 49.738281 92.53125 C 26.144531 92.53125 6.949219 73.335938 6.949219 49.738281 C 6.949219 26.144531 26.144531 6.949219 49.738281 6.949219 C 73.332031 6.949219 92.527344 26.144531 92.527344 49.738281 C 92.527344 73.335938 73.332031 92.53125 49.738281 92.53125 Z M 49.738281 92.53125 " fill-opacity="1" fill-rule="nonzero"/><path fill="#d2550d" d="M 49.738281 9.261719 C 27.417969 9.261719 9.261719 27.417969 9.261719 49.738281 C 9.261719 72.058594 27.417969 90.21875 49.738281 90.21875 C 72.058594 90.21875 90.21875 72.058594 90.21875 49.738281 C 90.214844 27.417969 72.058594 9.261719 49.738281 9.261719 Z M 49.738281 9.261719 " fill-opacity="1" fill-rule="nonzero"/><g clip-path="url(#a745432c1c)"><path fill="#ffffff" d="M 39.074219 72.859375 L 18.605469 52.378906 L 23.03125 47.953125 L 39.074219 64.003906 L 76.523438 26.5625 L 80.949219 30.988281 Z M 39.074219 72.859375 " fill-opacity="1" fill-rule="nonzero"/></g></svg>