<svg xmlns="http://www.w3.org/2000/svg" xmlns:xlink="http://www.w3.org/1999/xlink" width="247" zoomAndPan="magnify" viewBox="0 0 185.25 60" height="80" preserveAspectRatio="xMidYMid meet" version="1.0"><defs><g/><clipPath id="f6ebeda5cd"><path d="M 0 1.210938 L 37.347656 1.210938 L 37.347656 57.980469 L 0 57.980469 Z M 0 1.210938 " clip-rule="nonzero"/></clipPath><clipPath id="52a564e2b3"><rect x="0" width="126" y="0" height="47"/></clipPath></defs><g clip-path="url(#f6ebeda5cd)"><path fill="#6d452b" d="M 36.964844 31.894531 C 36.78125 31.335938 36.425781 30.832031 35.945312 30.4375 C 35.679688 30.222656 35.378906 30.039062 35.054688 29.902344 C 34.574219 29.695312 33.351562 29.273438 32.378906 29.804688 C 32.0625 29.980469 31.777344 30.191406 31.53125 30.421875 C 31.457031 29.933594 31.324219 29.460938 31.09375 29.019531 C 30.5625 27.988281 29.386719 27.199219 28.175781 27.058594 C 27.261719 26.953125 26.34375 27.320312 25.691406 27.953125 C 25.132812 27.386719 24.273438 26.8125 23.488281 26.605469 C 22.773438 26.414062 22.058594 26.425781 21.425781 26.644531 C 21.253906 26.699219 21.097656 26.769531 20.953125 26.851562 C 20.972656 25.589844 20.976562 24.304688 20.953125 23.019531 C 20.941406 22.398438 20.925781 21.785156 20.898438 21.199219 L 20.894531 21.101562 C 20.871094 20.566406 20.851562 20.011719 20.769531 19.457031 C 20.574219 18.082031 19.945312 17.039062 18.945312 16.445312 C 17.894531 15.8125 16.621094 15.753906 15.539062 16.28125 C 14.609375 16.738281 13.976562 17.539062 13.65625 18.664062 C 13.398438 19.570312 13.371094 20.539062 13.378906 21.449219 C 13.386719 21.941406 13.390625 22.433594 13.394531 22.925781 C 13.425781 25.703125 13.457031 28.578125 13.453125 31.40625 L 13.441406 43.097656 C 12.992188 42.828125 12.5625 42.5 12.117188 42.160156 C 11.8125 41.925781 11.5 41.6875 11.179688 41.46875 C 9.921875 40.605469 8.570312 39.902344 7.261719 39.433594 C 5.925781 38.957031 4.65625 38.808594 3.484375 38.988281 C 2.226562 39.183594 1.066406 40.210938 0.382812 41.734375 C 0.0078125 42.574219 0 43.371094 0.367188 44.039062 C 0.671875 44.609375 1.164062 45 1.507812 45.246094 C 2.308594 45.816406 3.183594 46.210938 4.035156 46.597656 C 4.3125 46.722656 4.601562 46.851562 4.878906 46.988281 C 5.847656 47.453125 6.835938 48.070312 7.90625 48.871094 C 8.9375 49.644531 9.78125 50.5625 10.675781 51.53125 C 10.9375 51.8125 11.203125 52.101562 11.472656 52.386719 L 11.605469 52.523438 C 12.917969 53.902344 14.402344 55.464844 16.1875 56.382812 C 17.6875 57.15625 19.328125 57.660156 21.054688 57.875 C 22.769531 58.085938 24.492188 58.023438 26.183594 57.6875 C 27.921875 57.339844 29.539062 56.722656 30.984375 55.84375 C 31.867188 55.308594 32.664062 54.683594 33.363281 53.984375 C 33.445312 53.90625 33.523438 53.824219 33.601562 53.742188 C 34.410156 52.882812 35.050781 51.921875 35.507812 50.882812 C 35.957031 49.867188 36.28125 48.75 36.507812 47.472656 C 36.539062 47.277344 36.582031 47.085938 36.625 46.882812 C 36.730469 46.402344 36.839844 45.90625 36.84375 45.367188 C 36.851562 44.429688 36.839844 40.75 36.855469 40.152344 C 36.863281 39.847656 36.871094 39.558594 36.894531 39.277344 C 36.910156 39.054688 36.925781 38.832031 36.945312 38.613281 C 37 37.882812 37.058594 37.125 37.101562 36.378906 C 37.152344 35.523438 37.175781 34.8125 37.175781 34.132812 C 37.175781 34.046875 37.175781 33.964844 37.175781 33.878906 C 37.183594 33.261719 37.1875 32.5625 36.964844 31.894531 Z M 35.816406 36.171875 C 35.78125 38.761719 35.511719 45.726562 35.378906 46.207031 C 34.964844 47.6875 35.027344 51.816406 30.285156 54.691406 C 26.484375 57 21.085938 57.394531 16.804688 55.1875 C 14.945312 54.230469 12.445312 51.453125 12.449219 51.457031 C 10.457031 49.367188 9.023438 47.375 4.589844 45.371094 C 3.738281 44.984375 1.992188 44.222656 1.546875 43.398438 C 1.105469 42.582031 2.363281 40.527344 3.691406 40.320312 C 5.914062 39.972656 8.5625 41.304688 10.417969 42.578125 C 11.359375 43.222656 12.292969 44.101562 13.449219 44.621094 C 14.078125 44.902344 14.785156 44.445312 14.785156 43.761719 C 14.804688 29.265625 14.820312 30.058594 14.742188 22.914062 C 14.71875 20.585938 14.523438 18.277344 16.128906 17.492188 C 17.332031 16.90625 19.125 17.433594 19.4375 19.648438 C 19.773438 22.019531 19.5 37.34375 19.445312 39.742188 C 19.433594 40.324219 19.332031 41.59375 19.574219 42.046875 C 19.863281 42.589844 20.847656 42.269531 20.855469 41.683594 C 21.054688 29.738281 20.335938 28.433594 21.855469 27.917969 C 22.660156 27.644531 23.585938 27.960938 24.28125 28.484375 C 24.671875 28.777344 24.863281 29.261719 24.78125 29.742188 C 24.609375 30.777344 24.574219 32.363281 24.558594 33.058594 C 24.496094 35.472656 24.296875 37.882812 24.246094 40.296875 C 24.214844 41.667969 24.121094 41.777344 24.289062 41.953125 C 24.46875 42.140625 24.914062 42.136719 25.140625 42.066406 C 25.742188 41.882812 25.574219 41.089844 25.585938 40.617188 C 25.605469 39.492188 25.941406 31.019531 26.136719 29.8125 C 26.265625 28.988281 27.183594 28.296875 28.019531 28.394531 C 28.796875 28.484375 29.566406 28.996094 29.898438 29.636719 C 30.734375 31.257812 30.03125 32.75 29.679688 39.1875 C 29.585938 40.859375 29.210938 41.515625 29.964844 41.699219 C 31.308594 42.027344 30.894531 39.453125 31.089844 38.082031 C 31.605469 34.472656 31.167969 32.476562 32.542969 31.304688 C 33.269531 30.6875 34.453125 30.875 35.121094 31.488281 C 36.214844 32.488281 35.835938 34.828125 35.816406 36.171875 Z M 14.273438 4.480469 C 14.019531 2.910156 15.117188 1.429688 16.699219 1.238281 C 16.800781 1.226562 16.894531 1.21875 16.976562 1.21875 C 17.082031 1.21875 17.207031 1.234375 17.34375 1.257812 C 18.824219 1.53125 19.808594 2.945312 19.585938 4.433594 L 18.542969 11.4375 C 18.53125 11.519531 18.523438 11.605469 18.519531 11.6875 C 18.464844 12.492188 17.792969 13.128906 16.976562 13.128906 C 16.15625 13.128906 15.488281 12.492188 15.433594 11.6875 C 15.425781 11.605469 15.417969 11.523438 15.40625 11.445312 Z M 21.691406 14.179688 C 21.222656 13.507812 21.363281 12.59375 21.996094 12.089844 C 22.058594 12.039062 22.125 11.984375 22.183594 11.929688 L 27.34375 7.078125 C 28.441406 6.046875 30.164062 6.054688 31.234375 7.113281 C 31.332031 7.210938 31.414062 7.304688 31.472656 7.394531 C 31.519531 7.460938 31.570312 7.539062 31.617188 7.628906 C 32.363281 9.039062 31.769531 10.785156 30.332031 11.472656 L 23.96875 14.507812 C 23.894531 14.542969 23.824219 14.585938 23.753906 14.625 C 23.0625 15.039062 22.15625 14.851562 21.691406 14.179688 Z M 31.574219 20.734375 C 33.003906 21.210938 33.8125 22.734375 33.382812 24.175781 C 33.34375 24.308594 33.300781 24.425781 33.253906 24.519531 C 33.214844 24.59375 33.167969 24.671875 33.109375 24.757812 C 32.222656 26.082031 30.402344 26.386719 29.117188 25.445312 L 23.433594 21.273438 C 23.367188 21.222656 23.296875 21.179688 23.226562 21.136719 C 22.535156 20.722656 22.273438 19.835938 22.644531 19.109375 C 23.019531 18.378906 23.890625 18.070312 24.632812 18.390625 C 24.707031 18.421875 24.785156 18.453125 24.863281 18.480469 Z M 2.355469 7.628906 C 2.402344 7.539062 2.449219 7.460938 2.496094 7.394531 C 2.554688 7.304688 2.636719 7.210938 2.738281 7.113281 C 3.804688 6.054688 5.527344 6.046875 6.625 7.078125 L 11.785156 11.929688 C 11.847656 11.984375 11.910156 12.039062 11.976562 12.089844 C 12.605469 12.59375 12.746094 13.507812 12.28125 14.179688 C 11.8125 14.851562 10.910156 15.039062 10.214844 14.625 C 10.144531 14.585938 10.074219 14.542969 10.003906 14.507812 L 3.636719 11.472656 C 2.199219 10.785156 1.609375 9.039062 2.355469 7.628906 Z M 0.585938 24.175781 C 0.15625 22.734375 0.96875 21.210938 2.394531 20.734375 L 9.109375 18.480469 C 9.1875 18.453125 9.261719 18.421875 9.339844 18.390625 C 10.082031 18.070312 10.953125 18.378906 11.324219 19.109375 C 11.695312 19.835938 11.433594 20.722656 10.742188 21.136719 C 10.671875 21.179688 10.601562 21.222656 10.539062 21.273438 L 4.851562 25.445312 C 3.566406 26.386719 1.75 26.082031 0.859375 24.757812 C 0.804688 24.671875 0.753906 24.59375 0.71875 24.519531 C 0.667969 24.425781 0.625 24.308594 0.585938 24.175781 Z M 0.585938 24.175781 " fill-opacity="1" fill-rule="nonzero"/></g><g transform="matrix(1, 0, 0, 1, 52, 6)"><g clip-path="url(#52a564e2b3)"><g fill="#6d452b" fill-opacity="1"><g transform="translate(1.075893, 15.413732)"><g><path d="M 12.34375 -11.1875 C 12.320312 -10.988281 12.257812 -10.671875 12.15625 -10.234375 C 12.050781 -9.804688 11.96875 -9.484375 11.90625 -9.265625 L 11.65625 -9.28125 L 11.65625 -9.5 C 11.65625 -10.125 11.585938 -10.515625 11.453125 -10.671875 C 11.316406 -10.828125 11.03125 -10.90625 10.59375 -10.90625 C 10.414062 -10.90625 10.28125 -10.90625 10.1875 -10.90625 L 9.875 -10.90625 C 9.71875 -10.90625 9.613281 -10.90625 9.5625 -10.90625 C 9.15625 -10.90625 8.703125 -10.828125 8.203125 -10.671875 C 7.703125 -10.515625 7.097656 -10.21875 6.390625 -9.78125 C 6.066406 -9.570312 5.582031 -9.164062 4.9375 -8.5625 C 4.6875 -8.320312 4.253906 -7.765625 3.640625 -6.890625 L 3.34375 -6.375 L 2.984375 -5.453125 C 2.890625 -5.148438 2.820312 -4.859375 2.78125 -4.578125 C 2.75 -4.296875 2.734375 -4.007812 2.734375 -3.71875 C 2.734375 -3.332031 2.773438 -2.96875 2.859375 -2.625 C 2.941406 -2.28125 3.054688 -2.015625 3.203125 -1.828125 C 3.503906 -1.453125 3.820312 -1.140625 4.15625 -0.890625 C 4.5 -0.640625 4.894531 -0.445312 5.34375 -0.3125 C 5.789062 -0.175781 6.304688 -0.109375 6.890625 -0.109375 C 7.484375 -0.109375 7.972656 -0.191406 8.359375 -0.359375 C 8.753906 -0.535156 9.097656 -0.78125 9.390625 -1.09375 C 9.484375 -1.195312 9.757812 -1.597656 10.21875 -2.296875 L 10.5 -2.21875 L 10.03125 -0.75 C 9.945312 -0.5 9.882812 -0.316406 9.84375 -0.203125 C 9.46875 -0.0664062 9.082031 0.03125 8.6875 0.09375 C 7.9375 0.21875 7.203125 0.28125 6.484375 0.28125 C 5.441406 0.28125 4.632812 0.179688 4.0625 -0.015625 C 3.5 -0.222656 2.945312 -0.578125 2.40625 -1.078125 C 2.03125 -1.429688 1.738281 -1.878906 1.53125 -2.421875 C 1.332031 -2.972656 1.234375 -3.484375 1.234375 -3.953125 C 1.234375 -4.660156 1.34375 -5.265625 1.5625 -5.765625 C 2.019531 -6.816406 2.546875 -7.648438 3.140625 -8.265625 C 3.734375 -8.890625 4.429688 -9.441406 5.234375 -9.921875 C 5.816406 -10.273438 6.492188 -10.597656 7.265625 -10.890625 C 8.046875 -11.191406 8.847656 -11.34375 9.671875 -11.34375 L 11.1875 -11.359375 C 11.550781 -11.359375 11.9375 -11.300781 12.34375 -11.1875 Z M 12.34375 -11.1875 "/></g></g></g><g fill="#6d452b" fill-opacity="1"><g transform="translate(13.541896, 15.413732)"><g><path d="M 3.890625 -11.109375 L 3.921875 -11.34375 C 4.617188 -11.394531 5.148438 -11.421875 5.515625 -11.421875 L 5.890625 -11.421875 L 5.890625 -11.296875 L 5.625 -10.46875 C 5.613281 -10.445312 5.40625 -9.921875 5 -8.890625 L 3.84375 -5.859375 C 3.632812 -5.296875 3.289062 -4.421875 2.8125 -3.234375 L 2.515625 -2.484375 C 2.316406 -1.941406 2.160156 -1.578125 2.046875 -1.390625 C 1.859375 -1.078125 1.765625 -0.847656 1.765625 -0.703125 L 1.796875 -0.5625 C 1.984375 -0.582031 2.222656 -0.710938 2.515625 -0.953125 C 2.953125 -1.285156 3.347656 -1.71875 3.703125 -2.25 C 3.816406 -2.269531 3.90625 -2.28125 3.96875 -2.28125 L 4.078125 -2.28125 C 3.859375 -1.851562 3.617188 -1.507812 3.359375 -1.25 C 2.953125 -0.84375 2.671875 -0.582031 2.515625 -0.46875 C 2.171875 -0.21875 1.84375 -0.0234375 1.53125 0.109375 C 1.332031 0.191406 1.132812 0.234375 0.9375 0.234375 C 0.832031 0.234375 0.753906 0.207031 0.703125 0.15625 C 0.648438 0.101562 0.625 0.0351562 0.625 -0.046875 C 0.625 -0.316406 1.082031 -1.5 2 -3.59375 C 2.28125 -4.226562 2.570312 -4.953125 2.875 -5.765625 C 3.40625 -7.191406 3.8125 -8.207031 4.09375 -8.8125 C 4.382812 -9.425781 4.597656 -9.976562 4.734375 -10.46875 C 4.742188 -10.519531 4.75 -10.5625 4.75 -10.59375 C 4.75 -10.675781 4.707031 -10.753906 4.625 -10.828125 C 4.519531 -10.921875 4.273438 -11.015625 3.890625 -11.109375 Z M 3.890625 -11.109375 "/></g></g></g><g fill="#6d452b" fill-opacity="1"><g transform="translate(18.865411, 15.413732)"><g><path d="M 3.640625 -10.15625 C 3.640625 -10.351562 3.71875 -10.53125 3.875 -10.6875 C 4.03125 -10.84375 4.210938 -10.921875 4.421875 -10.921875 C 4.617188 -10.921875 4.785156 -10.851562 4.921875 -10.71875 C 5.054688 -10.582031 5.125 -10.425781 5.125 -10.25 C 5.125 -10.019531 5.035156 -9.8125 4.859375 -9.625 C 4.765625 -9.507812 4.578125 -9.453125 4.296875 -9.453125 C 4.117188 -9.453125 3.960938 -9.515625 3.828125 -9.640625 C 3.703125 -9.773438 3.640625 -9.945312 3.640625 -10.15625 Z M 3.3125 -6.296875 C 3.195312 -6.296875 3.109375 -6.289062 3.046875 -6.28125 C 2.773438 -6.132812 2.578125 -6.007812 2.453125 -5.90625 C 2.191406 -5.707031 1.945312 -5.472656 1.71875 -5.203125 L 1.234375 -5.09375 C 1.671875 -5.6875 2.15625 -6.148438 2.6875 -6.484375 C 3.226562 -6.828125 3.65625 -7 3.96875 -7 C 4.09375 -7 4.1875 -6.960938 4.25 -6.890625 C 4.320312 -6.828125 4.359375 -6.742188 4.359375 -6.640625 C 4.359375 -6.359375 4.195312 -5.894531 3.875 -5.25 C 3.832031 -5.164062 3.738281 -4.957031 3.59375 -4.625 C 3.25 -3.875 2.882812 -3.164062 2.5 -2.5 C 2.375 -2.28125 2.234375 -2.019531 2.078125 -1.71875 C 2.003906 -1.5625 1.9375 -1.429688 1.875 -1.328125 C 1.695312 -1.023438 1.609375 -0.800781 1.609375 -0.65625 C 1.609375 -0.613281 1.625 -0.578125 1.65625 -0.546875 C 1.6875 -0.515625 1.722656 -0.5 1.765625 -0.5 C 1.828125 -0.5 1.921875 -0.535156 2.046875 -0.609375 C 2.242188 -0.722656 2.476562 -0.910156 2.75 -1.171875 C 3.03125 -1.441406 3.28125 -1.75 3.5 -2.09375 L 3.84375 -2.09375 C 3.675781 -1.78125 3.429688 -1.421875 3.109375 -1.015625 C 2.785156 -0.617188 2.421875 -0.300781 2.015625 -0.0625 C 1.703125 0.113281 1.425781 0.203125 1.1875 0.203125 C 1 0.203125 0.863281 0.160156 0.78125 0.078125 C 0.695312 0.00390625 0.65625 -0.09375 0.65625 -0.21875 C 0.65625 -0.65625 0.976562 -1.484375 1.625 -2.703125 L 3 -5.3125 C 3.144531 -5.582031 3.242188 -5.796875 3.296875 -5.953125 C 3.335938 -6.046875 3.359375 -6.109375 3.359375 -6.140625 C 3.359375 -6.171875 3.34375 -6.222656 3.3125 -6.296875 Z M 3.3125 -6.296875 "/></g></g></g><g fill="#6d452b" fill-opacity="1"><g transform="translate(24.36921, 15.413732)"><g><path d="M 7.734375 -7.078125 L 7.796875 -7.078125 C 7.835938 -7.078125 7.878906 -7.0625 7.921875 -7.03125 C 7.921875 -6.882812 7.894531 -6.738281 7.84375 -6.59375 C 7.632812 -6.039062 7.507812 -5.707031 7.46875 -5.59375 C 7.40625 -5.332031 7.25 -4.835938 7 -4.109375 L 6.375 -2.203125 C 6.03125 -1.328125 5.757812 -0.546875 5.5625 0.140625 C 5.53125 0.242188 5.4375 0.507812 5.28125 0.9375 C 5.070312 1.519531 4.925781 1.9375 4.84375 2.1875 L 4.6875 2.75 C 4.613281 2.957031 4.515625 3.304688 4.390625 3.796875 C 4.390625 3.890625 4.4375 3.96875 4.53125 4.03125 L 5.09375 4.078125 C 5.132812 4.078125 5.175781 4.078125 5.21875 4.078125 C 5.320312 4.097656 5.40625 4.132812 5.46875 4.1875 C 5.488281 4.226562 5.5 4.265625 5.5 4.296875 L 5.46875 4.40625 L 5.09375 4.421875 C 4.09375 4.398438 3.554688 4.390625 3.484375 4.390625 C 3.378906 4.390625 3.265625 4.390625 3.140625 4.390625 C 2.765625 4.410156 2.460938 4.421875 2.234375 4.421875 L 1.625 4.4375 C 1.550781 4.4375 1.472656 4.394531 1.390625 4.3125 C 1.398438 4.226562 1.441406 4.164062 1.515625 4.125 L 1.984375 4.109375 C 2.535156 4.066406 2.910156 3.984375 3.109375 3.859375 C 3.234375 3.765625 3.34375 3.613281 3.4375 3.40625 C 3.53125 3.207031 3.738281 2.59375 4.0625 1.5625 L 5.109375 -1.34375 L 5.4375 -2.4375 C 5.539062 -2.71875 5.601562 -2.910156 5.625 -3.015625 C 5.5625 -2.941406 5.46875 -2.820312 5.34375 -2.65625 C 4.875 -2.039062 4.425781 -1.515625 4 -1.078125 C 3.582031 -0.640625 3.269531 -0.34375 3.0625 -0.1875 C 2.851562 -0.0390625 2.585938 0.09375 2.265625 0.21875 C 2.078125 0.289062 1.890625 0.328125 1.703125 0.328125 C 1.410156 0.328125 1.164062 0.210938 0.96875 -0.015625 C 0.769531 -0.253906 0.671875 -0.644531 0.671875 -1.1875 C 0.671875 -2.351562 1.265625 -3.5625 2.453125 -4.8125 C 3.898438 -6.3125 5.019531 -7.0625 5.8125 -7.0625 C 5.976562 -7.0625 6.171875 -7.019531 6.390625 -6.9375 C 6.691406 -6.8125 6.957031 -6.671875 7.1875 -6.515625 C 7.375 -6.734375 7.554688 -6.921875 7.734375 -7.078125 Z M 2.375 -0.453125 C 2.570312 -0.453125 2.753906 -0.5 2.921875 -0.59375 C 3.097656 -0.695312 3.421875 -0.984375 3.890625 -1.453125 C 4.242188 -1.796875 4.660156 -2.289062 5.140625 -2.9375 C 5.617188 -3.582031 5.960938 -4.144531 6.171875 -4.625 C 6.378906 -5.101562 6.484375 -5.507812 6.484375 -5.84375 C 6.484375 -6.113281 6.425781 -6.316406 6.3125 -6.453125 C 6.195312 -6.585938 6.0625 -6.65625 5.90625 -6.65625 C 5.75 -6.65625 5.546875 -6.585938 5.296875 -6.453125 C 5.054688 -6.316406 4.6875 -6.015625 4.1875 -5.546875 C 3.695312 -5.085938 3.289062 -4.640625 2.96875 -4.203125 C 2.445312 -3.503906 2.101562 -2.9375 1.9375 -2.5 C 1.769531 -2.0625 1.6875 -1.679688 1.6875 -1.359375 C 1.6875 -1.023438 1.742188 -0.789062 1.859375 -0.65625 C 1.984375 -0.519531 2.15625 -0.453125 2.375 -0.453125 Z M 2.375 -0.453125 "/></g></g></g><g fill="#6d452b" fill-opacity="1"><g transform="translate(33.358405, 15.413732)"><g><path d="M 3.390625 -6.28125 C 3.203125 -6.195312 2.9375 -5.976562 2.59375 -5.625 C 2.363281 -5.4375 2.15625 -5.238281 1.96875 -5.03125 C 1.832031 -4.882812 1.734375 -4.78125 1.671875 -4.71875 L 1.40625 -4.78125 C 1.488281 -4.945312 1.75 -5.265625 2.1875 -5.734375 C 2.632812 -6.210938 3.085938 -6.582031 3.546875 -6.84375 C 3.765625 -6.976562 3.96875 -7.046875 4.15625 -7.046875 C 4.257812 -7.046875 4.351562 -7.003906 4.4375 -6.921875 C 4.519531 -6.847656 4.5625 -6.765625 4.5625 -6.671875 C 4.5625 -6.546875 4.507812 -6.382812 4.40625 -6.1875 C 4.394531 -6.144531 4.351562 -6.046875 4.28125 -5.890625 C 4.019531 -5.285156 3.523438 -4.265625 2.796875 -2.828125 C 2.148438 -1.585938 1.828125 -0.882812 1.828125 -0.71875 L 1.84375 -0.671875 C 1.988281 -0.691406 2.1875 -0.8125 2.4375 -1.03125 C 3.1875 -1.664062 3.753906 -2.195312 4.140625 -2.625 C 4.191406 -2.675781 4.320312 -2.8125 4.53125 -3.03125 C 5.1875 -3.707031 5.726562 -4.359375 6.15625 -4.984375 C 6.414062 -5.359375 6.78125 -6.035156 7.25 -7.015625 C 7.414062 -7.023438 7.550781 -7.03125 7.65625 -7.03125 C 7.789062 -7.03125 7.890625 -6.988281 7.953125 -6.90625 C 7.835938 -6.539062 7.613281 -5.945312 7.28125 -5.125 L 5.6875 -1.15625 C 5.582031 -0.945312 5.519531 -0.753906 5.5 -0.578125 L 5.546875 -0.578125 C 5.585938 -0.578125 5.6875 -0.640625 5.84375 -0.765625 C 6.164062 -1.066406 6.441406 -1.375 6.671875 -1.6875 C 6.773438 -1.820312 6.863281 -1.929688 6.9375 -2.015625 L 7.203125 -1.96875 C 6.929688 -1.445312 6.46875 -0.882812 5.8125 -0.28125 C 5.457031 0.0507812 5.175781 0.21875 4.96875 0.21875 C 4.894531 0.21875 4.796875 0.203125 4.671875 0.171875 C 4.566406 0.0664062 4.515625 -0.0351562 4.515625 -0.140625 C 4.515625 -0.421875 4.632812 -0.835938 4.875 -1.390625 L 6.078125 -4.21875 C 6.117188 -4.269531 6.144531 -4.328125 6.15625 -4.390625 C 6.050781 -4.273438 5.820312 -4.015625 5.46875 -3.609375 C 4.644531 -2.648438 3.9375 -1.894531 3.34375 -1.34375 C 2.757812 -0.800781 2.125 -0.332031 1.4375 0.0625 C 1.269531 0.15625 1.109375 0.203125 0.953125 0.203125 C 0.867188 0.203125 0.800781 0.171875 0.75 0.109375 C 0.695312 0.0546875 0.671875 -0.0195312 0.671875 -0.125 C 0.671875 -0.207031 0.691406 -0.320312 0.734375 -0.46875 C 0.816406 -0.757812 0.976562 -1.128906 1.21875 -1.578125 L 2.6875 -4.46875 L 3.28125 -5.75 C 3.394531 -5.925781 3.453125 -6.050781 3.453125 -6.125 C 3.453125 -6.15625 3.429688 -6.207031 3.390625 -6.28125 Z M 3.390625 -6.28125 "/></g></g></g><g fill="#6d452b" fill-opacity="1"><g transform="translate(42.3476, 15.413732)"><g><path d="M 2.078125 -3.09375 C 1.890625 -2.570312 1.796875 -2.046875 1.796875 -1.515625 C 1.796875 -1.128906 1.882812 -0.816406 2.0625 -0.578125 C 2.1875 -0.421875 2.351562 -0.34375 2.5625 -0.34375 C 2.6875 -0.34375 2.796875 -0.367188 2.890625 -0.421875 C 3.097656 -0.523438 3.28125 -0.648438 3.4375 -0.796875 C 3.59375 -0.953125 3.75 -1.148438 3.90625 -1.390625 C 4.070312 -1.628906 4.207031 -1.898438 4.3125 -2.203125 L 4.4375 -2.203125 C 4.507812 -2.203125 4.585938 -2.195312 4.671875 -2.1875 C 4.492188 -1.539062 4.070312 -0.910156 3.40625 -0.296875 C 2.976562 0.0859375 2.535156 0.28125 2.078125 0.28125 C 1.773438 0.28125 1.519531 0.144531 1.3125 -0.125 C 1.03125 -0.488281 0.890625 -0.988281 0.890625 -1.625 C 0.890625 -1.894531 0.929688 -2.222656 1.015625 -2.609375 C 1.097656 -2.992188 1.191406 -3.316406 1.296875 -3.578125 C 1.472656 -3.972656 1.664062 -4.347656 1.875 -4.703125 L 2.546875 -5.671875 C 2.972656 -6.117188 3.210938 -6.367188 3.265625 -6.421875 C 3.460938 -6.585938 3.660156 -6.710938 3.859375 -6.796875 C 4.066406 -6.890625 4.28125 -6.9375 4.5 -6.9375 C 4.78125 -6.9375 5.023438 -6.816406 5.234375 -6.578125 C 5.441406 -6.347656 5.546875 -6.054688 5.546875 -5.703125 C 5.546875 -5.390625 5.460938 -5.078125 5.296875 -4.765625 C 5.140625 -4.460938 4.96875 -4.242188 4.78125 -4.109375 L 4.0625 -3.640625 C 3.988281 -3.597656 3.773438 -3.523438 3.421875 -3.421875 C 3.078125 -3.316406 2.628906 -3.207031 2.078125 -3.09375 Z M 2.21875 -3.53125 C 2.40625 -3.519531 2.691406 -3.59375 3.078125 -3.75 C 3.296875 -3.820312 3.578125 -3.976562 3.921875 -4.21875 C 4.054688 -4.3125 4.210938 -4.46875 4.390625 -4.6875 C 4.566406 -4.90625 4.703125 -5.128906 4.796875 -5.359375 C 4.890625 -5.597656 4.9375 -5.847656 4.9375 -6.109375 C 4.9375 -6.265625 4.882812 -6.394531 4.78125 -6.5 C 4.6875 -6.613281 4.582031 -6.671875 4.46875 -6.671875 C 4.3125 -6.671875 4.125 -6.582031 3.90625 -6.40625 C 3.550781 -6.101562 3.179688 -5.585938 2.796875 -4.859375 C 2.503906 -4.304688 2.3125 -3.863281 2.21875 -3.53125 Z M 2.21875 -3.53125 "/></g></g></g><g fill="#6d452b" fill-opacity="1"><g transform="translate(48.950243, 15.413732)"><g/></g></g><g fill="#6d452b" fill-opacity="1"><g transform="translate(54.823181, 15.413732)"><g><path d="M 3.109375 -5.953125 C 3.097656 -5.992188 3.082031 -6.019531 3.0625 -6.03125 C 3.039062 -6.050781 3.015625 -6.0625 2.984375 -6.0625 C 2.691406 -6.0625 2.226562 -5.59375 1.59375 -4.65625 C 1.53125 -4.65625 1.484375 -4.65625 1.453125 -4.65625 C 1.421875 -4.65625 1.363281 -4.65625 1.28125 -4.65625 C 1.40625 -4.894531 1.601562 -5.195312 1.875 -5.5625 C 2.144531 -5.9375 2.429688 -6.242188 2.734375 -6.484375 C 3.046875 -6.722656 3.335938 -6.90625 3.609375 -7.03125 C 3.703125 -7.070312 3.785156 -7.09375 3.859375 -7.09375 C 3.890625 -7.09375 3.929688 -7.085938 3.984375 -7.078125 C 4.085938 -6.972656 4.140625 -6.867188 4.140625 -6.765625 C 4.140625 -6.691406 4.132812 -6.617188 4.125 -6.546875 C 4.113281 -6.484375 4.082031 -6.378906 4.03125 -6.234375 C 3.863281 -5.742188 3.738281 -5.398438 3.65625 -5.203125 L 3.171875 -3.9375 C 3.054688 -3.644531 2.941406 -3.332031 2.828125 -3 C 2.878906 -3.0625 2.921875 -3.117188 2.953125 -3.171875 C 3.484375 -3.941406 4.054688 -4.679688 4.671875 -5.390625 C 5.285156 -6.109375 5.796875 -6.585938 6.203125 -6.828125 C 6.484375 -7.003906 6.753906 -7.09375 7.015625 -7.09375 C 7.203125 -7.09375 7.347656 -7.039062 7.453125 -6.9375 C 7.566406 -6.832031 7.625 -6.695312 7.625 -6.53125 C 7.625 -6.425781 7.613281 -6.328125 7.59375 -6.234375 C 7.550781 -6.015625 7.460938 -5.707031 7.328125 -5.3125 C 7.191406 -4.925781 6.832031 -4.085938 6.25 -2.796875 L 5.390625 -0.8125 L 5.359375 -0.6875 C 5.359375 -0.65625 5.378906 -0.609375 5.421875 -0.546875 C 5.734375 -0.609375 6.210938 -1.113281 6.859375 -2.0625 L 7.203125 -2.0625 C 7.023438 -1.738281 6.734375 -1.328125 6.328125 -0.828125 C 6.015625 -0.441406 5.679688 -0.144531 5.328125 0.0625 C 5.117188 0.1875 4.898438 0.25 4.671875 0.25 C 4.535156 0.25 4.429688 0.21875 4.359375 0.15625 C 4.296875 0.101562 4.265625 0.0390625 4.265625 -0.03125 C 4.265625 -0.332031 4.410156 -0.800781 4.703125 -1.4375 L 5.953125 -4.15625 L 6.421875 -5.296875 C 6.535156 -5.546875 6.601562 -5.71875 6.625 -5.8125 C 6.644531 -5.914062 6.65625 -6.015625 6.65625 -6.109375 C 6.65625 -6.179688 6.632812 -6.238281 6.59375 -6.28125 C 6.5625 -6.320312 6.515625 -6.34375 6.453125 -6.34375 C 6.359375 -6.34375 6.25 -6.304688 6.125 -6.234375 C 5.707031 -5.984375 5.242188 -5.550781 4.734375 -4.9375 C 3.992188 -4.0625 3.503906 -3.429688 3.265625 -3.046875 C 2.671875 -2.097656 2.148438 -1.128906 1.703125 -0.140625 C 1.628906 0.0234375 1.546875 0.144531 1.453125 0.21875 C 1.328125 0.226562 1.234375 0.234375 1.171875 0.234375 C 1.097656 0.234375 0.984375 0.222656 0.828125 0.203125 C 0.804688 0.148438 0.796875 0.109375 0.796875 0.078125 C 0.796875 0.0351562 0.828125 -0.0625 0.890625 -0.21875 C 1.015625 -0.59375 1.320312 -1.378906 1.8125 -2.578125 L 2.015625 -3.03125 Z M 3.109375 -5.953125 "/></g></g></g><g fill="#6d452b" fill-opacity="1"><g transform="translate(63.812376, 15.413732)"><g><path d="M 6.234375 -4.875 C 6.234375 -3.550781 5.832031 -2.375 5.03125 -1.34375 C 4.226562 -0.3125 3.394531 0.203125 2.53125 0.203125 C 2.070312 0.203125 1.695312 0.03125 1.40625 -0.3125 C 1.125 -0.65625 0.984375 -1.195312 0.984375 -1.9375 C 0.984375 -2.4375 1.09375 -3.007812 1.3125 -3.65625 C 1.53125 -4.3125 1.820312 -4.851562 2.1875 -5.28125 C 2.257812 -5.375 2.347656 -5.488281 2.453125 -5.625 C 2.753906 -6.019531 3.113281 -6.351562 3.53125 -6.625 C 3.945312 -6.894531 4.375 -7.03125 4.8125 -7.03125 C 5.21875 -7.03125 5.554688 -6.863281 5.828125 -6.53125 C 6.097656 -6.195312 6.234375 -5.644531 6.234375 -4.875 Z M 1.78125 -0.96875 C 1.78125 -0.707031 1.835938 -0.515625 1.953125 -0.390625 C 2.078125 -0.265625 2.28125 -0.203125 2.5625 -0.203125 C 2.832031 -0.203125 3.101562 -0.332031 3.375 -0.59375 C 3.863281 -1.070312 4.351562 -1.894531 4.84375 -3.0625 C 5.34375 -4.238281 5.59375 -5.164062 5.59375 -5.84375 C 5.59375 -6.082031 5.53125 -6.269531 5.40625 -6.40625 C 5.289062 -6.550781 5.15625 -6.625 5 -6.625 C 4.65625 -6.625 4.300781 -6.425781 3.9375 -6.03125 C 3.3125 -5.363281 2.773438 -4.445312 2.328125 -3.28125 C 1.960938 -2.332031 1.78125 -1.5625 1.78125 -0.96875 Z M 1.78125 -0.96875 "/></g></g></g><g fill="#6d452b" fill-opacity="1"><g transform="translate(71.513863, 15.413732)"><g><path d="M 0.984375 -1.46875 C 1.273438 -1.46875 1.507812 -1.25 1.6875 -0.8125 C 1.78125 -0.59375 1.867188 -0.445312 1.953125 -0.375 C 2.035156 -0.300781 2.144531 -0.265625 2.28125 -0.265625 C 2.519531 -0.265625 2.753906 -0.378906 2.984375 -0.609375 C 3.148438 -0.773438 3.234375 -1.039062 3.234375 -1.40625 C 3.234375 -1.675781 3.132812 -2.085938 2.9375 -2.640625 C 2.664062 -3.429688 2.53125 -4.050781 2.53125 -4.5 C 2.53125 -5.164062 2.707031 -5.75 3.0625 -6.25 C 3.414062 -6.757812 3.976562 -7.015625 4.75 -7.015625 C 5.070312 -7.015625 5.328125 -6.925781 5.515625 -6.75 C 5.710938 -6.570312 5.8125 -6.359375 5.8125 -6.109375 C 5.8125 -5.941406 5.765625 -5.800781 5.671875 -5.6875 C 5.578125 -5.582031 5.472656 -5.53125 5.359375 -5.53125 C 5.109375 -5.53125 4.878906 -5.648438 4.671875 -5.890625 C 4.472656 -6.140625 4.34375 -6.285156 4.28125 -6.328125 C 4.207031 -6.359375 4.097656 -6.375 3.953125 -6.375 C 3.796875 -6.375 3.65625 -6.304688 3.53125 -6.171875 C 3.40625 -6.035156 3.34375 -5.867188 3.34375 -5.671875 C 3.34375 -5.210938 3.476562 -4.566406 3.75 -3.734375 C 4.03125 -2.910156 4.171875 -2.269531 4.171875 -1.8125 C 4.171875 -1.519531 4.078125 -1.222656 3.890625 -0.921875 C 3.710938 -0.617188 3.429688 -0.363281 3.046875 -0.15625 C 2.671875 0.0507812 2.285156 0.15625 1.890625 0.15625 C 1.410156 0.15625 1.050781 0.0507812 0.8125 -0.15625 C 0.570312 -0.363281 0.453125 -0.609375 0.453125 -0.890625 C 0.453125 -1.066406 0.5 -1.207031 0.59375 -1.3125 C 0.695312 -1.414062 0.828125 -1.46875 0.984375 -1.46875 Z M 0.984375 -1.46875 "/></g></g></g><g fill="#6d452b" fill-opacity="1"><g transform="translate(78.116506, 15.413732)"><g/></g></g><g fill="#6d452b" fill-opacity="1"><g transform="translate(83.989444, 15.413732)"><g><path d="M 3.296875 -6.34375 C 2.859375 -6.226562 2.347656 -5.851562 1.765625 -5.21875 L 1.296875 -5.125 C 1.648438 -5.644531 2.109375 -6.085938 2.671875 -6.453125 C 3.242188 -6.816406 3.707031 -7 4.0625 -7 C 4.164062 -7 4.25 -6.960938 4.3125 -6.890625 C 4.375 -6.828125 4.40625 -6.742188 4.40625 -6.640625 C 4.40625 -6.578125 4.398438 -6.515625 4.390625 -6.453125 C 4.378906 -6.390625 4.300781 -6.160156 4.15625 -5.765625 C 4.070312 -5.546875 3.722656 -4.832031 3.109375 -3.625 L 1.875 -1.34375 C 1.769531 -1.144531 1.703125 -1.003906 1.671875 -0.921875 C 1.648438 -0.835938 1.640625 -0.726562 1.640625 -0.59375 C 1.671875 -0.5625 1.707031 -0.546875 1.75 -0.546875 C 1.9375 -0.546875 2.140625 -0.644531 2.359375 -0.84375 C 2.921875 -1.351562 3.300781 -1.773438 3.5 -2.109375 C 3.601562 -2.109375 3.71875 -2.097656 3.84375 -2.078125 C 3.675781 -1.785156 3.425781 -1.441406 3.09375 -1.046875 C 2.769531 -0.648438 2.429688 -0.347656 2.078125 -0.140625 C 1.722656 0.0546875 1.425781 0.15625 1.1875 0.15625 C 1.03125 0.15625 0.90625 0.113281 0.8125 0.03125 C 0.71875 -0.0390625 0.671875 -0.128906 0.671875 -0.234375 C 0.671875 -0.710938 0.992188 -1.546875 1.640625 -2.734375 C 2.429688 -4.140625 2.921875 -5.035156 3.109375 -5.421875 C 3.191406 -5.609375 3.253906 -5.738281 3.296875 -5.8125 C 3.378906 -5.945312 3.421875 -6.046875 3.421875 -6.109375 C 3.421875 -6.160156 3.378906 -6.238281 3.296875 -6.34375 Z M 3.4375 -8.09375 L 3.28125 -8.109375 C 3.289062 -8.128906 3.535156 -8.472656 4.015625 -9.140625 C 4.492188 -9.816406 4.765625 -10.191406 4.828125 -10.265625 C 4.984375 -10.441406 5.144531 -10.578125 5.3125 -10.671875 C 5.425781 -10.722656 5.546875 -10.75 5.671875 -10.75 C 5.804688 -10.75 5.914062 -10.707031 6 -10.625 C 6.082031 -10.550781 6.125 -10.460938 6.125 -10.359375 C 6.125 -10.109375 5.890625 -9.820312 5.421875 -9.5 Z M 3.4375 -8.09375 "/></g></g></g><g fill="#6d452b" fill-opacity="1"><g transform="translate(89.493243, 15.413732)"><g><path d="M 5.15625 -5.5 C 5.070312 -5.570312 5.007812 -5.632812 4.96875 -5.6875 C 4.9375 -5.726562 4.878906 -5.835938 4.796875 -6.015625 C 4.710938 -6.203125 4.65625 -6.3125 4.625 -6.34375 C 4.550781 -6.414062 4.476562 -6.453125 4.40625 -6.453125 C 4.207031 -6.453125 3.992188 -6.328125 3.765625 -6.078125 C 3.335938 -5.628906 2.90625 -4.882812 2.46875 -3.84375 C 2.039062 -2.800781 1.828125 -1.9375 1.828125 -1.25 C 1.828125 -0.988281 1.863281 -0.804688 1.9375 -0.703125 C 2 -0.628906 2.082031 -0.59375 2.1875 -0.59375 C 2.40625 -0.59375 2.648438 -0.710938 2.921875 -0.953125 C 3.285156 -1.273438 3.65625 -1.722656 4.03125 -2.296875 C 4.132812 -2.316406 4.21875 -2.328125 4.28125 -2.328125 L 4.40625 -2.3125 C 4.382812 -2.207031 4.222656 -1.9375 3.921875 -1.5 C 3.492188 -0.875 3.097656 -0.4375 2.734375 -0.1875 C 2.378906 0.0625 2.050781 0.1875 1.75 0.1875 C 1.476562 0.1875 1.273438 0.09375 1.140625 -0.09375 C 0.941406 -0.34375 0.84375 -0.734375 0.84375 -1.265625 C 0.84375 -1.722656 0.953125 -2.28125 1.171875 -2.9375 C 1.398438 -3.59375 1.726562 -4.226562 2.15625 -4.84375 C 2.582031 -5.457031 2.929688 -5.894531 3.203125 -6.15625 C 3.472656 -6.425781 3.804688 -6.65625 4.203125 -6.84375 C 4.472656 -6.96875 4.726562 -7.03125 4.96875 -7.03125 C 5.207031 -7.03125 5.414062 -6.925781 5.59375 -6.71875 C 5.78125 -6.507812 5.875 -6.265625 5.875 -5.984375 C 5.875 -5.816406 5.828125 -5.6875 5.734375 -5.59375 C 5.648438 -5.5 5.550781 -5.453125 5.4375 -5.453125 C 5.363281 -5.453125 5.269531 -5.46875 5.15625 -5.5 Z M 5.15625 -5.5 "/></g></g></g><g fill="#6d452b" fill-opacity="1"><g transform="translate(95.735328, 15.413732)"><g><path d="M 6.234375 -4.875 C 6.234375 -3.550781 5.832031 -2.375 5.03125 -1.34375 C 4.226562 -0.3125 3.394531 0.203125 2.53125 0.203125 C 2.070312 0.203125 1.695312 0.03125 1.40625 -0.3125 C 1.125 -0.65625 0.984375 -1.195312 0.984375 -1.9375 C 0.984375 -2.4375 1.09375 -3.007812 1.3125 -3.65625 C 1.53125 -4.3125 1.820312 -4.851562 2.1875 -5.28125 C 2.257812 -5.375 2.347656 -5.488281 2.453125 -5.625 C 2.753906 -6.019531 3.113281 -6.351562 3.53125 -6.625 C 3.945312 -6.894531 4.375 -7.03125 4.8125 -7.03125 C 5.21875 -7.03125 5.554688 -6.863281 5.828125 -6.53125 C 6.097656 -6.195312 6.234375 -5.644531 6.234375 -4.875 Z M 1.78125 -0.96875 C 1.78125 -0.707031 1.835938 -0.515625 1.953125 -0.390625 C 2.078125 -0.265625 2.28125 -0.203125 2.5625 -0.203125 C 2.832031 -0.203125 3.101562 -0.332031 3.375 -0.59375 C 3.863281 -1.070312 4.351562 -1.894531 4.84375 -3.0625 C 5.34375 -4.238281 5.59375 -5.164062 5.59375 -5.84375 C 5.59375 -6.082031 5.53125 -6.269531 5.40625 -6.40625 C 5.289062 -6.550781 5.15625 -6.625 5 -6.625 C 4.65625 -6.625 4.300781 -6.425781 3.9375 -6.03125 C 3.3125 -5.363281 2.773438 -4.445312 2.328125 -3.28125 C 1.960938 -2.332031 1.78125 -1.5625 1.78125 -0.96875 Z M 1.78125 -0.96875 "/></g></g></g><g fill="#6d452b" fill-opacity="1"><g transform="translate(103.436815, 15.413732)"><g><path d="M 3.109375 -5.953125 C 3.097656 -5.992188 3.082031 -6.019531 3.0625 -6.03125 C 3.039062 -6.050781 3.015625 -6.0625 2.984375 -6.0625 C 2.691406 -6.0625 2.226562 -5.59375 1.59375 -4.65625 C 1.53125 -4.65625 1.484375 -4.65625 1.453125 -4.65625 C 1.421875 -4.65625 1.363281 -4.65625 1.28125 -4.65625 C 1.40625 -4.894531 1.601562 -5.195312 1.875 -5.5625 C 2.144531 -5.9375 2.429688 -6.242188 2.734375 -6.484375 C 3.046875 -6.722656 3.335938 -6.90625 3.609375 -7.03125 C 3.703125 -7.070312 3.785156 -7.09375 3.859375 -7.09375 C 3.890625 -7.09375 3.929688 -7.085938 3.984375 -7.078125 C 4.085938 -6.972656 4.140625 -6.867188 4.140625 -6.765625 C 4.140625 -6.691406 4.132812 -6.617188 4.125 -6.546875 C 4.113281 -6.484375 4.082031 -6.378906 4.03125 -6.234375 C 3.863281 -5.742188 3.738281 -5.398438 3.65625 -5.203125 L 3.171875 -3.9375 C 3.054688 -3.644531 2.941406 -3.332031 2.828125 -3 C 2.878906 -3.0625 2.921875 -3.117188 2.953125 -3.171875 C 3.484375 -3.941406 4.054688 -4.679688 4.671875 -5.390625 C 5.285156 -6.109375 5.796875 -6.585938 6.203125 -6.828125 C 6.484375 -7.003906 6.753906 -7.09375 7.015625 -7.09375 C 7.203125 -7.09375 7.347656 -7.039062 7.453125 -6.9375 C 7.566406 -6.832031 7.625 -6.695312 7.625 -6.53125 C 7.625 -6.425781 7.613281 -6.328125 7.59375 -6.234375 C 7.550781 -6.015625 7.460938 -5.707031 7.328125 -5.3125 C 7.191406 -4.925781 6.832031 -4.085938 6.25 -2.796875 L 5.390625 -0.8125 L 5.359375 -0.6875 C 5.359375 -0.65625 5.378906 -0.609375 5.421875 -0.546875 C 5.734375 -0.609375 6.210938 -1.113281 6.859375 -2.0625 L 7.203125 -2.0625 C 7.023438 -1.738281 6.734375 -1.328125 6.328125 -0.828125 C 6.015625 -0.441406 5.679688 -0.144531 5.328125 0.0625 C 5.117188 0.1875 4.898438 0.25 4.671875 0.25 C 4.535156 0.25 4.429688 0.21875 4.359375 0.15625 C 4.296875 0.101562 4.265625 0.0390625 4.265625 -0.03125 C 4.265625 -0.332031 4.410156 -0.800781 4.703125 -1.4375 L 5.953125 -4.15625 L 6.421875 -5.296875 C 6.535156 -5.546875 6.601562 -5.71875 6.625 -5.8125 C 6.644531 -5.914062 6.65625 -6.015625 6.65625 -6.109375 C 6.65625 -6.179688 6.632812 -6.238281 6.59375 -6.28125 C 6.5625 -6.320312 6.515625 -6.34375 6.453125 -6.34375 C 6.359375 -6.34375 6.25 -6.304688 6.125 -6.234375 C 5.707031 -5.984375 5.242188 -5.550781 4.734375 -4.9375 C 3.992188 -4.0625 3.503906 -3.429688 3.265625 -3.046875 C 2.671875 -2.097656 2.148438 -1.128906 1.703125 -0.140625 C 1.628906 0.0234375 1.546875 0.144531 1.453125 0.21875 C 1.328125 0.226562 1.234375 0.234375 1.171875 0.234375 C 1.097656 0.234375 0.984375 0.222656 0.828125 0.203125 C 0.804688 0.148438 0.796875 0.109375 0.796875 0.078125 C 0.796875 0.0351562 0.828125 -0.0625 0.890625 -0.21875 C 1.015625 -0.59375 1.320312 -1.378906 1.8125 -2.578125 L 2.015625 -3.03125 Z M 3.109375 -5.953125 "/></g></g></g><g fill="#6d452b" fill-opacity="1"><g transform="translate(112.42601, 15.413732)"><g><path d="M 2.078125 -3.09375 C 1.890625 -2.570312 1.796875 -2.046875 1.796875 -1.515625 C 1.796875 -1.128906 1.882812 -0.816406 2.0625 -0.578125 C 2.1875 -0.421875 2.351562 -0.34375 2.5625 -0.34375 C 2.6875 -0.34375 2.796875 -0.367188 2.890625 -0.421875 C 3.097656 -0.523438 3.28125 -0.648438 3.4375 -0.796875 C 3.59375 -0.953125 3.75 -1.148438 3.90625 -1.390625 C 4.070312 -1.628906 4.207031 -1.898438 4.3125 -2.203125 L 4.4375 -2.203125 C 4.507812 -2.203125 4.585938 -2.195312 4.671875 -2.1875 C 4.492188 -1.539062 4.070312 -0.910156 3.40625 -0.296875 C 2.976562 0.0859375 2.535156 0.28125 2.078125 0.28125 C 1.773438 0.28125 1.519531 0.144531 1.3125 -0.125 C 1.03125 -0.488281 0.890625 -0.988281 0.890625 -1.625 C 0.890625 -1.894531 0.929688 -2.222656 1.015625 -2.609375 C 1.097656 -2.992188 1.191406 -3.316406 1.296875 -3.578125 C 1.472656 -3.972656 1.664062 -4.347656 1.875 -4.703125 L 2.546875 -5.671875 C 2.972656 -6.117188 3.210938 -6.367188 3.265625 -6.421875 C 3.460938 -6.585938 3.660156 -6.710938 3.859375 -6.796875 C 4.066406 -6.890625 4.28125 -6.9375 4.5 -6.9375 C 4.78125 -6.9375 5.023438 -6.816406 5.234375 -6.578125 C 5.441406 -6.347656 5.546875 -6.054688 5.546875 -5.703125 C 5.546875 -5.390625 5.460938 -5.078125 5.296875 -4.765625 C 5.140625 -4.460938 4.96875 -4.242188 4.78125 -4.109375 L 4.0625 -3.640625 C 3.988281 -3.597656 3.773438 -3.523438 3.421875 -3.421875 C 3.078125 -3.316406 2.628906 -3.207031 2.078125 -3.09375 Z M 2.21875 -3.53125 C 2.40625 -3.519531 2.691406 -3.59375 3.078125 -3.75 C 3.296875 -3.820312 3.578125 -3.976562 3.921875 -4.21875 C 4.054688 -4.3125 4.210938 -4.46875 4.390625 -4.6875 C 4.566406 -4.90625 4.703125 -5.128906 4.796875 -5.359375 C 4.890625 -5.597656 4.9375 -5.847656 4.9375 -6.109375 C 4.9375 -6.265625 4.882812 -6.394531 4.78125 -6.5 C 4.6875 -6.613281 4.582031 -6.671875 4.46875 -6.671875 C 4.3125 -6.671875 4.125 -6.582031 3.90625 -6.40625 C 3.550781 -6.101562 3.179688 -5.585938 2.796875 -4.859375 C 2.503906 -4.304688 2.3125 -3.863281 2.21875 -3.53125 Z M 2.21875 -3.53125 "/></g></g></g><g fill="#6d452b" fill-opacity="1"><g transform="translate(119.028653, 15.413732)"><g><path d="M 0.984375 -1.46875 C 1.273438 -1.46875 1.507812 -1.25 1.6875 -0.8125 C 1.78125 -0.59375 1.867188 -0.445312 1.953125 -0.375 C 2.035156 -0.300781 2.144531 -0.265625 2.28125 -0.265625 C 2.519531 -0.265625 2.753906 -0.378906 2.984375 -0.609375 C 3.148438 -0.773438 3.234375 -1.039062 3.234375 -1.40625 C 3.234375 -1.675781 3.132812 -2.085938 2.9375 -2.640625 C 2.664062 -3.429688 2.53125 -4.050781 2.53125 -4.5 C 2.53125 -5.164062 2.707031 -5.75 3.0625 -6.25 C 3.414062 -6.757812 3.976562 -7.015625 4.75 -7.015625 C 5.070312 -7.015625 5.328125 -6.925781 5.515625 -6.75 C 5.710938 -6.570312 5.8125 -6.359375 5.8125 -6.109375 C 5.8125 -5.941406 5.765625 -5.800781 5.671875 -5.6875 C 5.578125 -5.582031 5.472656 -5.53125 5.359375 -5.53125 C 5.109375 -5.53125 4.878906 -5.648438 4.671875 -5.890625 C 4.472656 -6.140625 4.34375 -6.285156 4.28125 -6.328125 C 4.207031 -6.359375 4.097656 -6.375 3.953125 -6.375 C 3.796875 -6.375 3.65625 -6.304688 3.53125 -6.171875 C 3.40625 -6.035156 3.34375 -5.867188 3.34375 -5.671875 C 3.34375 -5.210938 3.476562 -4.566406 3.75 -3.734375 C 4.03125 -2.910156 4.171875 -2.269531 4.171875 -1.8125 C 4.171875 -1.519531 4.078125 -1.222656 3.890625 -0.921875 C 3.710938 -0.617188 3.429688 -0.363281 3.046875 -0.15625 C 2.671875 0.0507812 2.285156 0.15625 1.890625 0.15625 C 1.410156 0.15625 1.050781 0.0507812 0.8125 -0.15625 C 0.570312 -0.363281 0.453125 -0.609375 0.453125 -0.890625 C 0.453125 -1.066406 0.5 -1.207031 0.59375 -1.3125 C 0.695312 -1.414062 0.828125 -1.46875 0.984375 -1.46875 Z M 0.984375 -1.46875 "/></g></g></g><g fill="#6d452b" fill-opacity="1"><g transform="translate(13.177672, 41.249183)"><g><path d="M -2.421875 4.140625 C -2.210938 4.085938 -1.9375 4.046875 -1.59375 4.015625 C -1.414062 3.992188 -1.289062 3.976562 -1.21875 3.96875 C -1.125 3.945312 -1.039062 3.925781 -0.96875 3.90625 C -0.882812 3.875 -0.828125 3.835938 -0.796875 3.796875 C -0.722656 3.722656 -0.644531 3.570312 -0.5625 3.34375 L 0.296875 1.109375 C 0.410156 0.816406 0.523438 0.492188 0.640625 0.140625 C 0.703125 -0.078125 0.773438 -0.289062 0.859375 -0.5 C 0.941406 -0.71875 0.988281 -0.859375 1 -0.921875 C 1.039062 -1.046875 1.070312 -1.140625 1.09375 -1.203125 L 1.890625 -3.421875 C 1.921875 -3.503906 2.132812 -4.132812 2.53125 -5.3125 C 2.65625 -5.664062 2.765625 -6.019531 2.859375 -6.375 C 2.453125 -6.3125 2.097656 -6.234375 1.796875 -6.140625 C 1.734375 -6.117188 1.644531 -6.09375 1.53125 -6.0625 C 1.3125 -5.976562 1.179688 -5.9375 1.140625 -5.9375 C 1.085938 -5.9375 1.015625 -5.953125 0.921875 -5.984375 L 0.90625 -6.078125 C 0.90625 -6.160156 0.945312 -6.234375 1.03125 -6.296875 C 1.3125 -6.472656 1.976562 -6.671875 3.03125 -6.890625 C 3.300781 -7.609375 3.46875 -8.09375 3.53125 -8.34375 C 3.613281 -8.6875 3.707031 -8.925781 3.8125 -9.0625 C 3.882812 -9.070312 3.957031 -9.078125 4.03125 -9.078125 C 4.113281 -9.078125 4.234375 -9.070312 4.390625 -9.0625 C 4.492188 -8.957031 4.546875 -8.875 4.546875 -8.8125 L 4.5 -8.6875 C 4.488281 -8.664062 4.453125 -8.535156 4.390625 -8.296875 C 4.359375 -8.171875 4.304688 -8.007812 4.234375 -7.8125 C 4.085938 -7.425781 3.992188 -7.164062 3.953125 -7.03125 C 4.203125 -7.050781 4.367188 -7.0625 4.453125 -7.0625 C 4.546875 -7.0625 4.679688 -7.054688 4.859375 -7.046875 L 4.90625 -7.046875 C 5.207031 -7.046875 5.523438 -6.96875 5.859375 -6.8125 C 6.328125 -6.582031 6.664062 -6.269531 6.875 -5.875 C 7.082031 -5.488281 7.1875 -5.046875 7.1875 -4.546875 C 7.1875 -4.160156 7.113281 -3.75 6.96875 -3.3125 C 6.820312 -2.875 6.597656 -2.425781 6.296875 -1.96875 C 5.992188 -1.519531 5.644531 -1.144531 5.25 -0.84375 C 4.863281 -0.539062 4.519531 -0.335938 4.21875 -0.234375 C 3.53125 0.00390625 3.078125 0.125 2.859375 0.125 C 2.703125 0.125 2.523438 0.0976562 2.328125 0.046875 C 2.128906 0.00390625 1.910156 -0.0546875 1.671875 -0.140625 C 1.441406 0.316406 1.0625 1.304688 0.53125 2.828125 C 0.425781 3.128906 0.34375 3.351562 0.28125 3.5 C 0.21875 3.644531 0.1875 3.757812 0.1875 3.84375 L 0.203125 3.921875 L 0.296875 4 C 0.453125 4.039062 0.632812 4.066406 0.84375 4.078125 C 1.0625 4.097656 1.25 4.117188 1.40625 4.140625 C 1.4375 4.171875 1.472656 4.191406 1.515625 4.203125 L 1.5625 4.34375 C 1.5625 4.375 1.546875 4.40625 1.515625 4.4375 C 1.296875 4.425781 1.125 4.421875 1 4.421875 C 0.925781 4.421875 0.863281 4.421875 0.8125 4.421875 L 0.59375 4.4375 L -0.984375 4.375 C -1.265625 4.375 -1.484375 4.390625 -1.640625 4.421875 C -1.835938 4.410156 -2.007812 4.40625 -2.15625 4.40625 L -2.46875 4.40625 L -2.484375 4.359375 C -2.484375 4.304688 -2.460938 4.234375 -2.421875 4.140625 Z M 4.71875 -1.1875 C 5.25 -1.769531 5.625 -2.363281 5.84375 -2.96875 C 6.070312 -3.582031 6.1875 -4.117188 6.1875 -4.578125 C 6.1875 -4.867188 6.144531 -5.160156 6.0625 -5.453125 C 6.03125 -5.617188 5.945312 -5.765625 5.8125 -5.890625 C 5.632812 -6.066406 5.460938 -6.195312 5.296875 -6.28125 C 5.023438 -6.394531 4.675781 -6.453125 4.25 -6.453125 C 4.113281 -6.453125 3.957031 -6.441406 3.78125 -6.421875 C 3.394531 -5.242188 3.082031 -4.332031 2.84375 -3.6875 L 2.125 -1.625 C 2.070312 -1.457031 2.035156 -1.300781 2.015625 -1.15625 C 1.992188 -1.070312 1.984375 -0.984375 1.984375 -0.890625 C 1.984375 -0.691406 2.035156 -0.550781 2.140625 -0.46875 C 2.316406 -0.34375 2.554688 -0.28125 2.859375 -0.28125 C 3.128906 -0.28125 3.390625 -0.332031 3.640625 -0.4375 C 3.835938 -0.519531 4.195312 -0.769531 4.71875 -1.1875 Z M 4.71875 -1.1875 "/></g></g></g><g fill="#6d452b" fill-opacity="1"><g transform="translate(21.79772, 41.249183)"><g><path d="M 6.515625 -6.21875 C 6.566406 -6.3125 6.601562 -6.390625 6.625 -6.453125 C 6.695312 -6.617188 6.765625 -6.726562 6.828125 -6.78125 C 6.992188 -6.800781 7.113281 -6.8125 7.1875 -6.8125 C 7.28125 -6.8125 7.375 -6.789062 7.46875 -6.75 L 7.5 -6.640625 C 7.5 -6.609375 7.484375 -6.554688 7.453125 -6.484375 C 7.429688 -6.453125 7.394531 -6.34375 7.34375 -6.15625 L 7.265625 -5.984375 L 6.703125 -4.453125 C 6.460938 -3.765625 6.25 -3.210938 6.0625 -2.796875 C 5.882812 -2.390625 5.726562 -1.972656 5.59375 -1.546875 C 5.46875 -1.117188 5.351562 -0.8125 5.25 -0.625 L 5.203125 -0.546875 C 5.203125 -0.503906 5.234375 -0.457031 5.296875 -0.40625 C 5.554688 -0.550781 5.773438 -0.703125 5.953125 -0.859375 C 6.410156 -1.296875 6.679688 -1.566406 6.765625 -1.671875 C 6.828125 -1.742188 6.890625 -1.8125 6.953125 -1.875 C 7.023438 -1.8125 7.085938 -1.75 7.140625 -1.6875 C 6.984375 -1.46875 6.710938 -1.164062 6.328125 -0.78125 C 5.953125 -0.394531 5.613281 -0.125 5.3125 0.03125 C 5.082031 0.15625 4.863281 0.21875 4.65625 0.21875 C 4.519531 0.21875 4.414062 0.1875 4.34375 0.125 C 4.28125 0.0703125 4.25 0 4.25 -0.09375 C 4.25 -0.175781 4.28125 -0.328125 4.34375 -0.546875 C 4.488281 -0.921875 4.585938 -1.164062 4.640625 -1.28125 C 4.703125 -1.40625 4.78125 -1.59375 4.875 -1.84375 C 4.9375 -2 5.054688 -2.269531 5.234375 -2.65625 C 5.117188 -2.539062 4.984375 -2.378906 4.828125 -2.171875 C 4.359375 -1.585938 3.828125 -1.035156 3.234375 -0.515625 C 3.085938 -0.390625 2.753906 -0.195312 2.234375 0.0625 C 2.035156 0.132812 1.804688 0.179688 1.546875 0.203125 C 1.316406 0.203125 1.164062 0.179688 1.09375 0.140625 C 0.957031 0.0664062 0.847656 -0.0507812 0.765625 -0.21875 C 0.703125 -0.332031 0.671875 -0.515625 0.671875 -0.765625 C 0.671875 -1.140625 0.75 -1.546875 0.90625 -1.984375 C 1.1875 -2.753906 1.46875 -3.320312 1.75 -3.6875 C 2.226562 -4.320312 2.703125 -4.820312 3.171875 -5.1875 C 3.640625 -5.5625 4.070312 -5.835938 4.46875 -6.015625 C 4.988281 -6.234375 5.441406 -6.34375 5.828125 -6.34375 C 5.953125 -6.34375 6.070312 -6.332031 6.1875 -6.3125 C 6.300781 -6.289062 6.410156 -6.257812 6.515625 -6.21875 Z M 2.421875 -0.578125 C 2.566406 -0.617188 2.691406 -0.671875 2.796875 -0.734375 C 2.859375 -0.765625 3.078125 -0.921875 3.453125 -1.203125 C 4.148438 -1.898438 4.546875 -2.300781 4.640625 -2.40625 C 4.835938 -2.632812 5.066406 -2.941406 5.328125 -3.328125 C 5.390625 -3.421875 5.535156 -3.691406 5.765625 -4.140625 L 5.984375 -4.734375 C 6.066406 -5.078125 6.109375 -5.273438 6.109375 -5.328125 C 6.109375 -5.492188 6.039062 -5.644531 5.90625 -5.78125 C 5.820312 -5.863281 5.679688 -5.90625 5.484375 -5.90625 C 5.265625 -5.90625 5.070312 -5.867188 4.90625 -5.796875 C 4.550781 -5.628906 4.222656 -5.414062 3.921875 -5.15625 C 3.523438 -4.789062 3.140625 -4.328125 2.765625 -3.765625 C 2.390625 -3.203125 2.125 -2.734375 1.96875 -2.359375 C 1.757812 -1.835938 1.65625 -1.445312 1.65625 -1.1875 C 1.65625 -0.96875 1.695312 -0.804688 1.78125 -0.703125 C 1.863281 -0.609375 1.972656 -0.5625 2.109375 -0.5625 C 2.160156 -0.5625 2.265625 -0.566406 2.421875 -0.578125 Z M 2.421875 -0.578125 "/></g></g></g><g fill="#6d452b" fill-opacity="1"><g transform="translate(30.417768, 41.249183)"><g><path d="M 2.8125 -6.3125 C 2.625 -6.175781 2.445312 -6.015625 2.28125 -5.828125 C 2.238281 -5.773438 1.976562 -5.429688 1.5 -4.796875 L 1.15625 -4.78125 C 1.289062 -5.09375 1.550781 -5.472656 1.9375 -5.921875 C 2.332031 -6.367188 2.675781 -6.675781 2.96875 -6.84375 C 3.144531 -6.957031 3.347656 -7.019531 3.578125 -7.03125 C 3.722656 -7 3.820312 -6.945312 3.875 -6.875 C 3.925781 -6.800781 3.953125 -6.71875 3.953125 -6.625 C 3.953125 -6.53125 3.941406 -6.429688 3.921875 -6.328125 C 3.859375 -6.015625 3.734375 -5.566406 3.546875 -4.984375 C 3.359375 -4.398438 3.1875 -3.941406 3.03125 -3.609375 L 2.59375 -2.546875 L 2.5625 -2.390625 C 2.632812 -2.523438 2.796875 -2.832031 3.046875 -3.3125 C 3.984375 -5.082031 4.65625 -6.175781 5.0625 -6.59375 C 5.363281 -6.882812 5.71875 -7.03125 6.125 -7.03125 C 6.351562 -7.03125 6.566406 -6.941406 6.765625 -6.765625 C 6.921875 -6.617188 7 -6.429688 7 -6.203125 C 7 -5.929688 6.914062 -5.703125 6.75 -5.515625 C 6.632812 -5.390625 6.46875 -5.328125 6.25 -5.328125 C 6.070312 -5.328125 5.945312 -5.367188 5.875 -5.453125 C 5.8125 -5.535156 5.769531 -5.738281 5.75 -6.0625 C 5.675781 -6.21875 5.59375 -6.296875 5.5 -6.296875 C 5.40625 -6.296875 5.304688 -6.242188 5.203125 -6.140625 C 4.929688 -5.898438 4.414062 -5.113281 3.65625 -3.78125 C 2.894531 -2.445312 2.414062 -1.519531 2.21875 -1 C 2.03125 -0.488281 1.878906 -0.132812 1.765625 0.0625 C 1.703125 0.15625 1.582031 0.203125 1.40625 0.203125 C 1.25 0.203125 1.140625 0.175781 1.078125 0.125 C 1.015625 0.0703125 0.984375 0.00390625 0.984375 -0.078125 C 0.984375 -0.191406 1.007812 -0.328125 1.0625 -0.484375 C 1.3125 -1.078125 1.707031 -2.179688 2.25 -3.796875 L 2.84375 -5.640625 C 2.882812 -5.804688 2.914062 -5.910156 2.9375 -5.953125 L 2.984375 -6.078125 C 2.984375 -6.140625 2.925781 -6.21875 2.8125 -6.3125 Z M 2.8125 -6.3125 "/></g></g></g><g fill="#6d452b" fill-opacity="1"><g transform="translate(37.209275, 41.249183)"><g><path d="M 6.515625 -6.21875 C 6.566406 -6.3125 6.601562 -6.390625 6.625 -6.453125 C 6.695312 -6.617188 6.765625 -6.726562 6.828125 -6.78125 C 6.992188 -6.800781 7.113281 -6.8125 7.1875 -6.8125 C 7.28125 -6.8125 7.375 -6.789062 7.46875 -6.75 L 7.5 -6.640625 C 7.5 -6.609375 7.484375 -6.554688 7.453125 -6.484375 C 7.429688 -6.453125 7.394531 -6.34375 7.34375 -6.15625 L 7.265625 -5.984375 L 6.703125 -4.453125 C 6.460938 -3.765625 6.25 -3.210938 6.0625 -2.796875 C 5.882812 -2.390625 5.726562 -1.972656 5.59375 -1.546875 C 5.46875 -1.117188 5.351562 -0.8125 5.25 -0.625 L 5.203125 -0.546875 C 5.203125 -0.503906 5.234375 -0.457031 5.296875 -0.40625 C 5.554688 -0.550781 5.773438 -0.703125 5.953125 -0.859375 C 6.410156 -1.296875 6.679688 -1.566406 6.765625 -1.671875 C 6.828125 -1.742188 6.890625 -1.8125 6.953125 -1.875 C 7.023438 -1.8125 7.085938 -1.75 7.140625 -1.6875 C 6.984375 -1.46875 6.710938 -1.164062 6.328125 -0.78125 C 5.953125 -0.394531 5.613281 -0.125 5.3125 0.03125 C 5.082031 0.15625 4.863281 0.21875 4.65625 0.21875 C 4.519531 0.21875 4.414062 0.1875 4.34375 0.125 C 4.28125 0.0703125 4.25 0 4.25 -0.09375 C 4.25 -0.175781 4.28125 -0.328125 4.34375 -0.546875 C 4.488281 -0.921875 4.585938 -1.164062 4.640625 -1.28125 C 4.703125 -1.40625 4.78125 -1.59375 4.875 -1.84375 C 4.9375 -2 5.054688 -2.269531 5.234375 -2.65625 C 5.117188 -2.539062 4.984375 -2.378906 4.828125 -2.171875 C 4.359375 -1.585938 3.828125 -1.035156 3.234375 -0.515625 C 3.085938 -0.390625 2.753906 -0.195312 2.234375 0.0625 C 2.035156 0.132812 1.804688 0.179688 1.546875 0.203125 C 1.316406 0.203125 1.164062 0.179688 1.09375 0.140625 C 0.957031 0.0664062 0.847656 -0.0507812 0.765625 -0.21875 C 0.703125 -0.332031 0.671875 -0.515625 0.671875 -0.765625 C 0.671875 -1.140625 0.75 -1.546875 0.90625 -1.984375 C 1.1875 -2.753906 1.46875 -3.320312 1.75 -3.6875 C 2.226562 -4.320312 2.703125 -4.820312 3.171875 -5.1875 C 3.640625 -5.5625 4.070312 -5.835938 4.46875 -6.015625 C 4.988281 -6.234375 5.441406 -6.34375 5.828125 -6.34375 C 5.953125 -6.34375 6.070312 -6.332031 6.1875 -6.3125 C 6.300781 -6.289062 6.410156 -6.257812 6.515625 -6.21875 Z M 2.421875 -0.578125 C 2.566406 -0.617188 2.691406 -0.671875 2.796875 -0.734375 C 2.859375 -0.765625 3.078125 -0.921875 3.453125 -1.203125 C 4.148438 -1.898438 4.546875 -2.300781 4.640625 -2.40625 C 4.835938 -2.632812 5.066406 -2.941406 5.328125 -3.328125 C 5.390625 -3.421875 5.535156 -3.691406 5.765625 -4.140625 L 5.984375 -4.734375 C 6.066406 -5.078125 6.109375 -5.273438 6.109375 -5.328125 C 6.109375 -5.492188 6.039062 -5.644531 5.90625 -5.78125 C 5.820312 -5.863281 5.679688 -5.90625 5.484375 -5.90625 C 5.265625 -5.90625 5.070312 -5.867188 4.90625 -5.796875 C 4.550781 -5.628906 4.222656 -5.414062 3.921875 -5.15625 C 3.523438 -4.789062 3.140625 -4.328125 2.765625 -3.765625 C 2.390625 -3.203125 2.125 -2.734375 1.96875 -2.359375 C 1.757812 -1.835938 1.65625 -1.445312 1.65625 -1.1875 C 1.65625 -0.96875 1.695312 -0.804688 1.78125 -0.703125 C 1.863281 -0.609375 1.972656 -0.5625 2.109375 -0.5625 C 2.160156 -0.5625 2.265625 -0.566406 2.421875 -0.578125 Z M 2.421875 -0.578125 "/></g></g></g><g fill="#6d452b" fill-opacity="1"><g transform="translate(45.829322, 41.249183)"><g/></g></g><g fill="#6d452b" fill-opacity="1"><g transform="translate(51.70226, 41.249183)"><g><path d="M 3.640625 -10.15625 C 3.640625 -10.351562 3.71875 -10.53125 3.875 -10.6875 C 4.03125 -10.84375 4.210938 -10.921875 4.421875 -10.921875 C 4.617188 -10.921875 4.785156 -10.851562 4.921875 -10.71875 C 5.054688 -10.582031 5.125 -10.425781 5.125 -10.25 C 5.125 -10.019531 5.035156 -9.8125 4.859375 -9.625 C 4.765625 -9.507812 4.578125 -9.453125 4.296875 -9.453125 C 4.117188 -9.453125 3.960938 -9.515625 3.828125 -9.640625 C 3.703125 -9.773438 3.640625 -9.945312 3.640625 -10.15625 Z M 3.3125 -6.296875 C 3.195312 -6.296875 3.109375 -6.289062 3.046875 -6.28125 C 2.773438 -6.132812 2.578125 -6.007812 2.453125 -5.90625 C 2.191406 -5.707031 1.945312 -5.472656 1.71875 -5.203125 L 1.234375 -5.09375 C 1.671875 -5.6875 2.15625 -6.148438 2.6875 -6.484375 C 3.226562 -6.828125 3.65625 -7 3.96875 -7 C 4.09375 -7 4.1875 -6.960938 4.25 -6.890625 C 4.320312 -6.828125 4.359375 -6.742188 4.359375 -6.640625 C 4.359375 -6.359375 4.195312 -5.894531 3.875 -5.25 C 3.832031 -5.164062 3.738281 -4.957031 3.59375 -4.625 C 3.25 -3.875 2.882812 -3.164062 2.5 -2.5 C 2.375 -2.28125 2.234375 -2.019531 2.078125 -1.71875 C 2.003906 -1.5625 1.9375 -1.429688 1.875 -1.328125 C 1.695312 -1.023438 1.609375 -0.800781 1.609375 -0.65625 C 1.609375 -0.613281 1.625 -0.578125 1.65625 -0.546875 C 1.6875 -0.515625 1.722656 -0.5 1.765625 -0.5 C 1.828125 -0.5 1.921875 -0.535156 2.046875 -0.609375 C 2.242188 -0.722656 2.476562 -0.910156 2.75 -1.171875 C 3.03125 -1.441406 3.28125 -1.75 3.5 -2.09375 L 3.84375 -2.09375 C 3.675781 -1.78125 3.429688 -1.421875 3.109375 -1.015625 C 2.785156 -0.617188 2.421875 -0.300781 2.015625 -0.0625 C 1.703125 0.113281 1.425781 0.203125 1.1875 0.203125 C 1 0.203125 0.863281 0.160156 0.78125 0.078125 C 0.695312 0.00390625 0.65625 -0.09375 0.65625 -0.21875 C 0.65625 -0.65625 0.976562 -1.484375 1.625 -2.703125 L 3 -5.3125 C 3.144531 -5.582031 3.242188 -5.796875 3.296875 -5.953125 C 3.335938 -6.046875 3.359375 -6.109375 3.359375 -6.140625 C 3.359375 -6.171875 3.34375 -6.222656 3.3125 -6.296875 Z M 3.3125 -6.296875 "/></g></g></g><g fill="#6d452b" fill-opacity="1"><g transform="translate(57.206059, 41.249183)"><g><path d="M 3.109375 -5.953125 C 3.097656 -5.992188 3.082031 -6.019531 3.0625 -6.03125 C 3.039062 -6.050781 3.015625 -6.0625 2.984375 -6.0625 C 2.691406 -6.0625 2.226562 -5.59375 1.59375 -4.65625 C 1.53125 -4.65625 1.484375 -4.65625 1.453125 -4.65625 C 1.421875 -4.65625 1.363281 -4.65625 1.28125 -4.65625 C 1.40625 -4.894531 1.601562 -5.195312 1.875 -5.5625 C 2.144531 -5.9375 2.429688 -6.242188 2.734375 -6.484375 C 3.046875 -6.722656 3.335938 -6.90625 3.609375 -7.03125 C 3.703125 -7.070312 3.785156 -7.09375 3.859375 -7.09375 C 3.890625 -7.09375 3.929688 -7.085938 3.984375 -7.078125 C 4.085938 -6.972656 4.140625 -6.867188 4.140625 -6.765625 C 4.140625 -6.691406 4.132812 -6.617188 4.125 -6.546875 C 4.113281 -6.484375 4.082031 -6.378906 4.03125 -6.234375 C 3.863281 -5.742188 3.738281 -5.398438 3.65625 -5.203125 L 3.171875 -3.9375 C 3.054688 -3.644531 2.941406 -3.332031 2.828125 -3 C 2.878906 -3.0625 2.921875 -3.117188 2.953125 -3.171875 C 3.484375 -3.941406 4.054688 -4.679688 4.671875 -5.390625 C 5.285156 -6.109375 5.796875 -6.585938 6.203125 -6.828125 C 6.484375 -7.003906 6.753906 -7.09375 7.015625 -7.09375 C 7.203125 -7.09375 7.347656 -7.039062 7.453125 -6.9375 C 7.566406 -6.832031 7.625 -6.695312 7.625 -6.53125 C 7.625 -6.425781 7.613281 -6.328125 7.59375 -6.234375 C 7.550781 -6.015625 7.460938 -5.707031 7.328125 -5.3125 C 7.191406 -4.925781 6.832031 -4.085938 6.25 -2.796875 L 5.390625 -0.8125 L 5.359375 -0.6875 C 5.359375 -0.65625 5.378906 -0.609375 5.421875 -0.546875 C 5.734375 -0.609375 6.210938 -1.113281 6.859375 -2.0625 L 7.203125 -2.0625 C 7.023438 -1.738281 6.734375 -1.328125 6.328125 -0.828125 C 6.015625 -0.441406 5.679688 -0.144531 5.328125 0.0625 C 5.117188 0.1875 4.898438 0.25 4.671875 0.25 C 4.535156 0.25 4.429688 0.21875 4.359375 0.15625 C 4.296875 0.101562 4.265625 0.0390625 4.265625 -0.03125 C 4.265625 -0.332031 4.410156 -0.800781 4.703125 -1.4375 L 5.953125 -4.15625 L 6.421875 -5.296875 C 6.535156 -5.546875 6.601562 -5.71875 6.625 -5.8125 C 6.644531 -5.914062 6.65625 -6.015625 6.65625 -6.109375 C 6.65625 -6.179688 6.632812 -6.238281 6.59375 -6.28125 C 6.5625 -6.320312 6.515625 -6.34375 6.453125 -6.34375 C 6.359375 -6.34375 6.25 -6.304688 6.125 -6.234375 C 5.707031 -5.984375 5.242188 -5.550781 4.734375 -4.9375 C 3.992188 -4.0625 3.503906 -3.429688 3.265625 -3.046875 C 2.671875 -2.097656 2.148438 -1.128906 1.703125 -0.140625 C 1.628906 0.0234375 1.546875 0.144531 1.453125 0.21875 C 1.328125 0.226562 1.234375 0.234375 1.171875 0.234375 C 1.097656 0.234375 0.984375 0.222656 0.828125 0.203125 C 0.804688 0.148438 0.796875 0.109375 0.796875 0.078125 C 0.796875 0.0351562 0.828125 -0.0625 0.890625 -0.21875 C 1.015625 -0.59375 1.320312 -1.378906 1.8125 -2.578125 L 2.015625 -3.03125 Z M 3.109375 -5.953125 "/></g></g></g><g fill="#6d452b" fill-opacity="1"><g transform="translate(66.195254, 41.249183)"><g><path d="M 3.171875 -6.234375 L 2.671875 -6.234375 L 2.421875 -6.25 L 1.875 -6.234375 L 1.765625 -6.234375 C 1.773438 -6.359375 1.820312 -6.503906 1.90625 -6.671875 C 2.726562 -6.691406 3.21875 -6.710938 3.375 -6.734375 C 3.488281 -7.003906 3.585938 -7.222656 3.671875 -7.390625 C 3.835938 -7.765625 4.015625 -8.207031 4.203125 -8.71875 C 4.253906 -8.875 4.316406 -9.023438 4.390625 -9.171875 C 4.515625 -9.179688 4.660156 -9.1875 4.828125 -9.1875 C 4.960938 -9.1875 5.09375 -9.175781 5.21875 -9.15625 L 5.234375 -9.015625 C 5.234375 -8.898438 4.976562 -8.269531 4.46875 -7.125 C 4.40625 -6.988281 4.351562 -6.851562 4.3125 -6.71875 C 4.476562 -6.6875 4.578125 -6.671875 4.609375 -6.671875 L 5.078125 -6.671875 L 5.90625 -6.6875 C 5.90625 -6.5 5.867188 -6.34375 5.796875 -6.21875 C 5.566406 -6.195312 5.269531 -6.1875 4.90625 -6.1875 C 4.71875 -6.1875 4.597656 -6.1875 4.546875 -6.1875 C 4.253906 -6.15625 4.085938 -6.125 4.046875 -6.09375 L 2.625 -2.765625 C 2.46875 -2.441406 2.203125 -1.820312 1.828125 -0.90625 C 1.828125 -0.863281 1.84375 -0.820312 1.875 -0.78125 L 1.984375 -0.765625 C 2.140625 -0.765625 2.332031 -0.863281 2.5625 -1.0625 C 3.070312 -1.488281 3.554688 -1.988281 4.015625 -2.5625 C 4.109375 -2.507812 4.191406 -2.445312 4.265625 -2.375 C 3.691406 -1.6875 3.285156 -1.226562 3.046875 -1 C 2.804688 -0.78125 2.503906 -0.550781 2.140625 -0.3125 C 1.785156 -0.0820312 1.570312 0.046875 1.5 0.078125 C 1.363281 0.128906 1.226562 0.15625 1.09375 0.15625 C 0.957031 0.15625 0.851562 0.125 0.78125 0.0625 C 0.707031 0 0.671875 -0.0859375 0.671875 -0.203125 C 0.671875 -0.367188 0.8125 -0.753906 1.09375 -1.359375 L 1.46875 -2.15625 L 2.765625 -5.203125 C 2.929688 -5.597656 3.066406 -5.941406 3.171875 -6.234375 Z M 3.171875 -6.234375 "/></g></g></g><g fill="#6d452b" fill-opacity="1"><g transform="translate(72.068192, 41.249183)"><g><path d="M 2.078125 -3.09375 C 1.890625 -2.570312 1.796875 -2.046875 1.796875 -1.515625 C 1.796875 -1.128906 1.882812 -0.816406 2.0625 -0.578125 C 2.1875 -0.421875 2.351562 -0.34375 2.5625 -0.34375 C 2.6875 -0.34375 2.796875 -0.367188 2.890625 -0.421875 C 3.097656 -0.523438 3.28125 -0.648438 3.4375 -0.796875 C 3.59375 -0.953125 3.75 -1.148438 3.90625 -1.390625 C 4.070312 -1.628906 4.207031 -1.898438 4.3125 -2.203125 L 4.4375 -2.203125 C 4.507812 -2.203125 4.585938 -2.195312 4.671875 -2.1875 C 4.492188 -1.539062 4.070312 -0.910156 3.40625 -0.296875 C 2.976562 0.0859375 2.535156 0.28125 2.078125 0.28125 C 1.773438 0.28125 1.519531 0.144531 1.3125 -0.125 C 1.03125 -0.488281 0.890625 -0.988281 0.890625 -1.625 C 0.890625 -1.894531 0.929688 -2.222656 1.015625 -2.609375 C 1.097656 -2.992188 1.191406 -3.316406 1.296875 -3.578125 C 1.472656 -3.972656 1.664062 -4.347656 1.875 -4.703125 L 2.546875 -5.671875 C 2.972656 -6.117188 3.210938 -6.367188 3.265625 -6.421875 C 3.460938 -6.585938 3.660156 -6.710938 3.859375 -6.796875 C 4.066406 -6.890625 4.28125 -6.9375 4.5 -6.9375 C 4.78125 -6.9375 5.023438 -6.816406 5.234375 -6.578125 C 5.441406 -6.347656 5.546875 -6.054688 5.546875 -5.703125 C 5.546875 -5.390625 5.460938 -5.078125 5.296875 -4.765625 C 5.140625 -4.460938 4.96875 -4.242188 4.78125 -4.109375 L 4.0625 -3.640625 C 3.988281 -3.597656 3.773438 -3.523438 3.421875 -3.421875 C 3.078125 -3.316406 2.628906 -3.207031 2.078125 -3.09375 Z M 2.21875 -3.53125 C 2.40625 -3.519531 2.691406 -3.59375 3.078125 -3.75 C 3.296875 -3.820312 3.578125 -3.976562 3.921875 -4.21875 C 4.054688 -4.3125 4.210938 -4.46875 4.390625 -4.6875 C 4.566406 -4.90625 4.703125 -5.128906 4.796875 -5.359375 C 4.890625 -5.597656 4.9375 -5.847656 4.9375 -6.109375 C 4.9375 -6.265625 4.882812 -6.394531 4.78125 -6.5 C 4.6875 -6.613281 4.582031 -6.671875 4.46875 -6.671875 C 4.3125 -6.671875 4.125 -6.582031 3.90625 -6.40625 C 3.550781 -6.101562 3.179688 -5.585938 2.796875 -4.859375 C 2.503906 -4.304688 2.3125 -3.863281 2.21875 -3.53125 Z M 2.21875 -3.53125 "/></g></g></g><g fill="#6d452b" fill-opacity="1"><g transform="translate(78.670835, 41.249183)"><g><path d="M 2.8125 -6.3125 C 2.625 -6.175781 2.445312 -6.015625 2.28125 -5.828125 C 2.238281 -5.773438 1.976562 -5.429688 1.5 -4.796875 L 1.15625 -4.78125 C 1.289062 -5.09375 1.550781 -5.472656 1.9375 -5.921875 C 2.332031 -6.367188 2.675781 -6.675781 2.96875 -6.84375 C 3.144531 -6.957031 3.347656 -7.019531 3.578125 -7.03125 C 3.722656 -7 3.820312 -6.945312 3.875 -6.875 C 3.925781 -6.800781 3.953125 -6.71875 3.953125 -6.625 C 3.953125 -6.53125 3.941406 -6.429688 3.921875 -6.328125 C 3.859375 -6.015625 3.734375 -5.566406 3.546875 -4.984375 C 3.359375 -4.398438 3.1875 -3.941406 3.03125 -3.609375 L 2.59375 -2.546875 L 2.5625 -2.390625 C 2.632812 -2.523438 2.796875 -2.832031 3.046875 -3.3125 C 3.984375 -5.082031 4.65625 -6.175781 5.0625 -6.59375 C 5.363281 -6.882812 5.71875 -7.03125 6.125 -7.03125 C 6.351562 -7.03125 6.566406 -6.941406 6.765625 -6.765625 C 6.921875 -6.617188 7 -6.429688 7 -6.203125 C 7 -5.929688 6.914062 -5.703125 6.75 -5.515625 C 6.632812 -5.390625 6.46875 -5.328125 6.25 -5.328125 C 6.070312 -5.328125 5.945312 -5.367188 5.875 -5.453125 C 5.8125 -5.535156 5.769531 -5.738281 5.75 -6.0625 C 5.675781 -6.21875 5.59375 -6.296875 5.5 -6.296875 C 5.40625 -6.296875 5.304688 -6.242188 5.203125 -6.140625 C 4.929688 -5.898438 4.414062 -5.113281 3.65625 -3.78125 C 2.894531 -2.445312 2.414062 -1.519531 2.21875 -1 C 2.03125 -0.488281 1.878906 -0.132812 1.765625 0.0625 C 1.703125 0.15625 1.582031 0.203125 1.40625 0.203125 C 1.25 0.203125 1.140625 0.175781 1.078125 0.125 C 1.015625 0.0703125 0.984375 0.00390625 0.984375 -0.078125 C 0.984375 -0.191406 1.007812 -0.328125 1.0625 -0.484375 C 1.3125 -1.078125 1.707031 -2.179688 2.25 -3.796875 L 2.84375 -5.640625 C 2.882812 -5.804688 2.914062 -5.910156 2.9375 -5.953125 L 2.984375 -6.078125 C 2.984375 -6.140625 2.925781 -6.21875 2.8125 -6.3125 Z M 2.8125 -6.3125 "/></g></g></g><g fill="#6d452b" fill-opacity="1"><g transform="translate(85.462342, 41.249183)"><g><path d="M 6.515625 -6.21875 C 6.566406 -6.3125 6.601562 -6.390625 6.625 -6.453125 C 6.695312 -6.617188 6.765625 -6.726562 6.828125 -6.78125 C 6.992188 -6.800781 7.113281 -6.8125 7.1875 -6.8125 C 7.28125 -6.8125 7.375 -6.789062 7.46875 -6.75 L 7.5 -6.640625 C 7.5 -6.609375 7.484375 -6.554688 7.453125 -6.484375 C 7.429688 -6.453125 7.394531 -6.34375 7.34375 -6.15625 L 7.265625 -5.984375 L 6.703125 -4.453125 C 6.460938 -3.765625 6.25 -3.210938 6.0625 -2.796875 C 5.882812 -2.390625 5.726562 -1.972656 5.59375 -1.546875 C 5.46875 -1.117188 5.351562 -0.8125 5.25 -0.625 L 5.203125 -0.546875 C 5.203125 -0.503906 5.234375 -0.457031 5.296875 -0.40625 C 5.554688 -0.550781 5.773438 -0.703125 5.953125 -0.859375 C 6.410156 -1.296875 6.679688 -1.566406 6.765625 -1.671875 C 6.828125 -1.742188 6.890625 -1.8125 6.953125 -1.875 C 7.023438 -1.8125 7.085938 -1.75 7.140625 -1.6875 C 6.984375 -1.46875 6.710938 -1.164062 6.328125 -0.78125 C 5.953125 -0.394531 5.613281 -0.125 5.3125 0.03125 C 5.082031 0.15625 4.863281 0.21875 4.65625 0.21875 C 4.519531 0.21875 4.414062 0.1875 4.34375 0.125 C 4.28125 0.0703125 4.25 0 4.25 -0.09375 C 4.25 -0.175781 4.28125 -0.328125 4.34375 -0.546875 C 4.488281 -0.921875 4.585938 -1.164062 4.640625 -1.28125 C 4.703125 -1.40625 4.78125 -1.59375 4.875 -1.84375 C 4.9375 -2 5.054688 -2.269531 5.234375 -2.65625 C 5.117188 -2.539062 4.984375 -2.378906 4.828125 -2.171875 C 4.359375 -1.585938 3.828125 -1.035156 3.234375 -0.515625 C 3.085938 -0.390625 2.753906 -0.195312 2.234375 0.0625 C 2.035156 0.132812 1.804688 0.179688 1.546875 0.203125 C 1.316406 0.203125 1.164062 0.179688 1.09375 0.140625 C 0.957031 0.0664062 0.847656 -0.0507812 0.765625 -0.21875 C 0.703125 -0.332031 0.671875 -0.515625 0.671875 -0.765625 C 0.671875 -1.140625 0.75 -1.546875 0.90625 -1.984375 C 1.1875 -2.753906 1.46875 -3.320312 1.75 -3.6875 C 2.226562 -4.320312 2.703125 -4.820312 3.171875 -5.1875 C 3.640625 -5.5625 4.070312 -5.835938 4.46875 -6.015625 C 4.988281 -6.234375 5.441406 -6.34375 5.828125 -6.34375 C 5.953125 -6.34375 6.070312 -6.332031 6.1875 -6.3125 C 6.300781 -6.289062 6.410156 -6.257812 6.515625 -6.21875 Z M 2.421875 -0.578125 C 2.566406 -0.617188 2.691406 -0.671875 2.796875 -0.734375 C 2.859375 -0.765625 3.078125 -0.921875 3.453125 -1.203125 C 4.148438 -1.898438 4.546875 -2.300781 4.640625 -2.40625 C 4.835938 -2.632812 5.066406 -2.941406 5.328125 -3.328125 C 5.390625 -3.421875 5.535156 -3.691406 5.765625 -4.140625 L 5.984375 -4.734375 C 6.066406 -5.078125 6.109375 -5.273438 6.109375 -5.328125 C 6.109375 -5.492188 6.039062 -5.644531 5.90625 -5.78125 C 5.820312 -5.863281 5.679688 -5.90625 5.484375 -5.90625 C 5.265625 -5.90625 5.070312 -5.867188 4.90625 -5.796875 C 4.550781 -5.628906 4.222656 -5.414062 3.921875 -5.15625 C 3.523438 -4.789062 3.140625 -4.328125 2.765625 -3.765625 C 2.390625 -3.203125 2.125 -2.734375 1.96875 -2.359375 C 1.757812 -1.835938 1.65625 -1.445312 1.65625 -1.1875 C 1.65625 -0.96875 1.695312 -0.804688 1.78125 -0.703125 C 1.863281 -0.609375 1.972656 -0.5625 2.109375 -0.5625 C 2.160156 -0.5625 2.265625 -0.566406 2.421875 -0.578125 Z M 2.421875 -0.578125 "/></g></g></g><g fill="#6d452b" fill-opacity="1"><g transform="translate(94.08239, 41.249183)"><g><path d="M 1.609375 0.421875 C 1.171875 0.0664062 0.890625 -0.1875 0.765625 -0.34375 C 0.710938 -0.394531 0.6875 -0.457031 0.6875 -0.53125 C 0.6875 -0.613281 0.71875 -0.6875 0.78125 -0.75 C 0.84375 -0.820312 0.988281 -0.90625 1.21875 -1 C 1.457031 -1.101562 1.835938 -1.328125 2.359375 -1.671875 C 2.296875 -1.753906 2.160156 -1.90625 1.953125 -2.125 L 1.671875 -2.421875 C 1.609375 -2.554688 1.546875 -2.726562 1.484375 -2.9375 C 1.429688 -3.144531 1.40625 -3.359375 1.40625 -3.578125 C 1.40625 -3.910156 1.457031 -4.238281 1.5625 -4.5625 C 1.71875 -5.039062 1.90625 -5.441406 2.125 -5.765625 C 2.351562 -6.097656 2.585938 -6.359375 2.828125 -6.546875 C 2.984375 -6.671875 3.175781 -6.769531 3.40625 -6.84375 C 3.757812 -6.96875 4.0625 -7.03125 4.3125 -7.03125 C 4.601562 -7.03125 4.894531 -6.960938 5.1875 -6.828125 C 5.375 -6.734375 5.59375 -6.6875 5.84375 -6.6875 C 5.9375 -6.6875 6.050781 -6.691406 6.1875 -6.703125 C 6.320312 -6.722656 6.414062 -6.734375 6.46875 -6.734375 C 6.507812 -6.734375 6.578125 -6.726562 6.671875 -6.71875 C 6.679688 -6.550781 6.6875 -6.425781 6.6875 -6.34375 C 6.6875 -6.289062 6.671875 -6.234375 6.640625 -6.171875 C 6.546875 -6.160156 6.476562 -6.15625 6.4375 -6.15625 C 6.300781 -6.15625 6.101562 -6.191406 5.84375 -6.265625 C 5.726562 -6.296875 5.628906 -6.320312 5.546875 -6.34375 C 5.703125 -5.988281 5.78125 -5.601562 5.78125 -5.1875 C 5.78125 -4.351562 5.492188 -3.570312 4.921875 -2.84375 C 4.359375 -2.113281 3.703125 -1.671875 2.953125 -1.515625 C 2.546875 -1.429688 2.226562 -1.296875 2 -1.109375 C 1.90625 -1.046875 1.859375 -0.957031 1.859375 -0.84375 C 1.859375 -0.65625 2.007812 -0.441406 2.3125 -0.203125 C 2.675781 -0.0234375 3.015625 0.132812 3.328125 0.28125 C 4.203125 0.59375 4.859375 0.941406 5.296875 1.328125 C 5.640625 1.617188 5.8125 2.007812 5.8125 2.5 C 5.8125 2.769531 5.742188 3.007812 5.609375 3.21875 C 5.472656 3.4375 5.25 3.640625 4.9375 3.828125 C 4.738281 3.953125 4.40625 4.066406 3.9375 4.171875 C 3.46875 4.273438 3.019531 4.328125 2.59375 4.328125 C 1.8125 4.328125 1.25 4.289062 0.90625 4.21875 C 0.269531 4.09375 -0.226562 3.929688 -0.59375 3.734375 C -0.957031 3.546875 -1.242188 3.3125 -1.453125 3.03125 C -1.566406 2.863281 -1.625 2.691406 -1.625 2.515625 C -1.625 2.265625 -1.507812 2.046875 -1.28125 1.859375 C -0.9375 1.585938 0.0234375 1.109375 1.609375 0.421875 Z M 2.875 -1.890625 C 3.175781 -1.941406 3.425781 -2.050781 3.625 -2.21875 C 3.726562 -2.289062 3.894531 -2.519531 4.125 -2.90625 C 4.351562 -3.300781 4.519531 -3.648438 4.625 -3.953125 C 4.875 -4.671875 5 -5.257812 5 -5.71875 C 5 -6.03125 4.921875 -6.269531 4.765625 -6.4375 C 4.617188 -6.601562 4.429688 -6.6875 4.203125 -6.6875 C 3.941406 -6.6875 3.691406 -6.578125 3.453125 -6.359375 C 3.222656 -6.148438 2.941406 -5.625 2.609375 -4.78125 C 2.285156 -3.945312 2.125 -3.300781 2.125 -2.84375 C 2.125 -2.601562 2.195312 -2.394531 2.34375 -2.21875 C 2.488281 -2.039062 2.664062 -1.929688 2.875 -1.890625 Z M -0.40625 3.171875 C -0.09375 3.460938 0.328125 3.671875 0.859375 3.796875 C 0.953125 3.828125 1.039062 3.851562 1.125 3.875 C 1.226562 3.90625 1.398438 3.9375 1.640625 3.96875 C 2.003906 3.988281 2.3125 4 2.5625 4 C 3.082031 4 3.570312 3.914062 4.03125 3.75 C 4.5 3.582031 4.804688 3.410156 4.953125 3.234375 C 5.046875 3.117188 5.09375 2.972656 5.09375 2.796875 C 5.09375 2.472656 4.910156 2.15625 4.546875 1.84375 C 4.273438 1.613281 3.71875 1.335938 2.875 1.015625 C 2.5 0.867188 2.191406 0.742188 1.953125 0.640625 C 1.566406 0.765625 1.066406 0.992188 0.453125 1.328125 C 0.128906 1.503906 -0.113281 1.671875 -0.28125 1.828125 C -0.457031 1.984375 -0.550781 2.078125 -0.5625 2.109375 C -0.632812 2.242188 -0.671875 2.382812 -0.671875 2.53125 C -0.671875 2.78125 -0.582031 2.992188 -0.40625 3.171875 Z M -0.40625 3.171875 "/></g></g></g><g fill="#6d452b" fill-opacity="1"><g transform="translate(101.234455, 41.249183)"><g><path d="M 3.640625 -10.15625 C 3.640625 -10.351562 3.71875 -10.53125 3.875 -10.6875 C 4.03125 -10.84375 4.210938 -10.921875 4.421875 -10.921875 C 4.617188 -10.921875 4.785156 -10.851562 4.921875 -10.71875 C 5.054688 -10.582031 5.125 -10.425781 5.125 -10.25 C 5.125 -10.019531 5.035156 -9.8125 4.859375 -9.625 C 4.765625 -9.507812 4.578125 -9.453125 4.296875 -9.453125 C 4.117188 -9.453125 3.960938 -9.515625 3.828125 -9.640625 C 3.703125 -9.773438 3.640625 -9.945312 3.640625 -10.15625 Z M 3.3125 -6.296875 C 3.195312 -6.296875 3.109375 -6.289062 3.046875 -6.28125 C 2.773438 -6.132812 2.578125 -6.007812 2.453125 -5.90625 C 2.191406 -5.707031 1.945312 -5.472656 1.71875 -5.203125 L 1.234375 -5.09375 C 1.671875 -5.6875 2.15625 -6.148438 2.6875 -6.484375 C 3.226562 -6.828125 3.65625 -7 3.96875 -7 C 4.09375 -7 4.1875 -6.960938 4.25 -6.890625 C 4.320312 -6.828125 4.359375 -6.742188 4.359375 -6.640625 C 4.359375 -6.359375 4.195312 -5.894531 3.875 -5.25 C 3.832031 -5.164062 3.738281 -4.957031 3.59375 -4.625 C 3.25 -3.875 2.882812 -3.164062 2.5 -2.5 C 2.375 -2.28125 2.234375 -2.019531 2.078125 -1.71875 C 2.003906 -1.5625 1.9375 -1.429688 1.875 -1.328125 C 1.695312 -1.023438 1.609375 -0.800781 1.609375 -0.65625 C 1.609375 -0.613281 1.625 -0.578125 1.65625 -0.546875 C 1.6875 -0.515625 1.722656 -0.5 1.765625 -0.5 C 1.828125 -0.5 1.921875 -0.535156 2.046875 -0.609375 C 2.242188 -0.722656 2.476562 -0.910156 2.75 -1.171875 C 3.03125 -1.441406 3.28125 -1.75 3.5 -2.09375 L 3.84375 -2.09375 C 3.675781 -1.78125 3.429688 -1.421875 3.109375 -1.015625 C 2.785156 -0.617188 2.421875 -0.300781 2.015625 -0.0625 C 1.703125 0.113281 1.425781 0.203125 1.1875 0.203125 C 1 0.203125 0.863281 0.160156 0.78125 0.078125 C 0.695312 0.00390625 0.65625 -0.09375 0.65625 -0.21875 C 0.65625 -0.65625 0.976562 -1.484375 1.625 -2.703125 L 3 -5.3125 C 3.144531 -5.582031 3.242188 -5.796875 3.296875 -5.953125 C 3.335938 -6.046875 3.359375 -6.109375 3.359375 -6.140625 C 3.359375 -6.171875 3.34375 -6.222656 3.3125 -6.296875 Z M 3.3125 -6.296875 "/></g></g></g><g fill="#6d452b" fill-opacity="1"><g transform="translate(106.738254, 41.249183)"><g><path d="M 2.8125 -6.3125 C 2.625 -6.175781 2.445312 -6.015625 2.28125 -5.828125 C 2.238281 -5.773438 1.976562 -5.429688 1.5 -4.796875 L 1.15625 -4.78125 C 1.289062 -5.09375 1.550781 -5.472656 1.9375 -5.921875 C 2.332031 -6.367188 2.675781 -6.675781 2.96875 -6.84375 C 3.144531 -6.957031 3.347656 -7.019531 3.578125 -7.03125 C 3.722656 -7 3.820312 -6.945312 3.875 -6.875 C 3.925781 -6.800781 3.953125 -6.71875 3.953125 -6.625 C 3.953125 -6.53125 3.941406 -6.429688 3.921875 -6.328125 C 3.859375 -6.015625 3.734375 -5.566406 3.546875 -4.984375 C 3.359375 -4.398438 3.1875 -3.941406 3.03125 -3.609375 L 2.59375 -2.546875 L 2.5625 -2.390625 C 2.632812 -2.523438 2.796875 -2.832031 3.046875 -3.3125 C 3.984375 -5.082031 4.65625 -6.175781 5.0625 -6.59375 C 5.363281 -6.882812 5.71875 -7.03125 6.125 -7.03125 C 6.351562 -7.03125 6.566406 -6.941406 6.765625 -6.765625 C 6.921875 -6.617188 7 -6.429688 7 -6.203125 C 7 -5.929688 6.914062 -5.703125 6.75 -5.515625 C 6.632812 -5.390625 6.46875 -5.328125 6.25 -5.328125 C 6.070312 -5.328125 5.945312 -5.367188 5.875 -5.453125 C 5.8125 -5.535156 5.769531 -5.738281 5.75 -6.0625 C 5.675781 -6.21875 5.59375 -6.296875 5.5 -6.296875 C 5.40625 -6.296875 5.304688 -6.242188 5.203125 -6.140625 C 4.929688 -5.898438 4.414062 -5.113281 3.65625 -3.78125 C 2.894531 -2.445312 2.414062 -1.519531 2.21875 -1 C 2.03125 -0.488281 1.878906 -0.132812 1.765625 0.0625 C 1.703125 0.15625 1.582031 0.203125 1.40625 0.203125 C 1.25 0.203125 1.140625 0.175781 1.078125 0.125 C 1.015625 0.0703125 0.984375 0.00390625 0.984375 -0.078125 C 0.984375 -0.191406 1.007812 -0.328125 1.0625 -0.484375 C 1.3125 -1.078125 1.707031 -2.179688 2.25 -3.796875 L 2.84375 -5.640625 C 2.882812 -5.804688 2.914062 -5.910156 2.9375 -5.953125 L 2.984375 -6.078125 C 2.984375 -6.140625 2.925781 -6.21875 2.8125 -6.3125 Z M 2.8125 -6.3125 "/></g></g></g></g></g></svg>