<svg xmlns="http://www.w3.org/2000/svg" xmlns:xlink="http://www.w3.org/1999/xlink" width="775" zoomAndPan="magnify" viewBox="0 0 581.25 178.499995" height="238" preserveAspectRatio="xMidYMid meet" version="1.0"><defs><g/><clipPath id="c6b3ad6511"><rect x="0" width="87" y="0" height="100"/></clipPath></defs><path stroke-linecap="butt" transform="matrix(0.747905, 0, 0, 0.747905, 8.346651, 53.896392)" fill="none" stroke-linejoin="miter" d="M 0.00134354 1.000313 L 288.719297 1.000313 " stroke="#b48b58" stroke-width="2" stroke-opacity="1" stroke-miterlimit="4"/><path stroke-linecap="butt" transform="matrix(0.747905, 0, 0, 0.747905, 8.346651, 114.625407)" fill="none" stroke-linejoin="miter" d="M 0.00134354 1.002256 L 288.719297 1.002256 " stroke="#b48b58" stroke-width="2" stroke-opacity="1" stroke-miterlimit="4"/><path stroke-linecap="butt" transform="matrix(0.747905, 0, 0, 0.747905, 355.564964, 53.896392)" fill="none" stroke-linejoin="miter" d="M 0.00192812 1.000313 L 288.719882 1.000313 " stroke="#b48b58" stroke-width="2" stroke-opacity="1" stroke-miterlimit="4"/><path stroke-linecap="butt" transform="matrix(0.747905, 0, 0, 0.747905, 355.564964, 114.625407)" fill="none" stroke-linejoin="miter" d="M 0.00192812 1.002256 L 288.719882 1.002256 " stroke="#b48b58" stroke-width="2" stroke-opacity="1" stroke-miterlimit="4"/><g transform="matrix(1, 0, 0, 1, 252, 44)"><g clip-path="url(#c6b3ad6511)"><g fill="#6d452b" fill-opacity="1"><g transform="translate(2.174201, 56.347881)"><g><path d="M 3.734375 2.21875 C 5.304688 1.476562 6.820312 1.050781 8.28125 0.9375 C 9.738281 0.832031 11.164062 0.925781 12.5625 1.21875 C 13.96875 1.507812 15.335938 1.90625 16.671875 2.40625 C 17.648438 2.78125 18.632812 3.160156 19.625 3.546875 C 20.625 3.929688 21.648438 4.21875 22.703125 4.40625 C 23.960938 4.644531 25.234375 4.679688 26.515625 4.515625 C 27.796875 4.347656 29.09375 3.800781 30.40625 2.875 C 30.8125 2.5625 31.1875 2.207031 31.53125 1.8125 C 31.882812 1.414062 32.179688 0.957031 32.421875 0.4375 C 32.679688 -0.207031 32.8125 -0.820312 32.8125 -1.40625 C 32.8125 -1.664062 32.769531 -1.863281 32.6875 -2 C 32.601562 -2.144531 32.429688 -2.195312 32.171875 -2.15625 C 32.003906 -2.101562 31.84375 -2.113281 31.6875 -2.1875 C 31.53125 -2.257812 31.390625 -2.34375 31.265625 -2.4375 C 31.191406 -2.507812 31.128906 -2.585938 31.078125 -2.671875 C 31.035156 -2.753906 31.023438 -2.867188 31.046875 -3.015625 C 31.097656 -3.179688 31.175781 -3.289062 31.28125 -3.34375 C 31.394531 -3.40625 31.5 -3.453125 31.59375 -3.484375 C 31.632812 -3.503906 31.691406 -3.515625 31.765625 -3.515625 C 31.835938 -3.515625 31.898438 -3.523438 31.953125 -3.546875 C 32.335938 -3.566406 32.707031 -3.53125 33.0625 -3.4375 C 33.414062 -3.34375 33.75 -3.203125 34.0625 -3.015625 C 35.039062 -2.460938 35.222656 -1.398438 34.609375 0.171875 C 34.222656 1.128906 33.710938 1.925781 33.078125 2.5625 C 32.441406 3.195312 31.753906 3.753906 31.015625 4.234375 C 29.816406 4.992188 28.617188 5.457031 27.421875 5.625 C 26.234375 5.789062 25.039062 5.789062 23.84375 5.625 C 22.40625 5.4375 21.015625 5.082031 19.671875 4.5625 C 18.335938 4.050781 17.003906 3.546875 15.671875 3.046875 C 14.492188 2.617188 13.285156 2.320312 12.046875 2.15625 C 10.804688 1.988281 9.53125 2.007812 8.21875 2.21875 C 7.09375 2.382812 5.992188 2.75 4.921875 3.3125 C 3.859375 3.875 2.816406 4.550781 1.796875 5.34375 C 1.722656 5.394531 1.644531 5.453125 1.5625 5.515625 C 1.476562 5.585938 1.398438 5.648438 1.328125 5.703125 C 1.035156 5.921875 0.804688 5.882812 0.640625 5.59375 C 0.546875 5.476562 0.488281 5.347656 0.46875 5.203125 C 0.445312 5.054688 0.484375 4.898438 0.578125 4.734375 C 0.671875 4.492188 0.800781 4.253906 0.96875 4.015625 C 2.132812 1.929688 3.453125 0.0703125 4.921875 -1.5625 C 6.398438 -3.195312 7.972656 -4.695312 9.640625 -6.0625 C 11.554688 -7.613281 13.503906 -9.035156 15.484375 -10.328125 C 17.472656 -11.617188 19.472656 -12.875 21.484375 -14.09375 C 23.253906 -15.195312 25.023438 -16.300781 26.796875 -17.40625 C 28.578125 -18.519531 30.304688 -19.78125 31.984375 -21.1875 C 32.609375 -21.71875 33.210938 -22.273438 33.796875 -22.859375 C 34.378906 -23.441406 34.9375 -24.09375 35.46875 -24.8125 C 35.945312 -25.476562 36.332031 -26.175781 36.625 -26.90625 C 36.925781 -27.632812 37.085938 -28.421875 37.109375 -29.265625 C 37.140625 -30.390625 36.921875 -31.289062 36.453125 -31.96875 C 35.984375 -32.644531 35.40625 -33.210938 34.71875 -33.671875 C 33.832031 -34.242188 32.882812 -34.570312 31.875 -34.65625 C 30.875 -34.738281 29.820312 -34.601562 28.71875 -34.25 C 26.425781 -33.476562 24.351562 -32.257812 22.5 -30.59375 C 20.644531 -28.9375 19.015625 -26.816406 17.609375 -24.234375 C 17.367188 -23.785156 17.148438 -23.316406 16.953125 -22.828125 C 16.765625 -22.335938 16.632812 -21.816406 16.5625 -21.265625 C 16.539062 -21.171875 16.53125 -21.066406 16.53125 -20.953125 C 16.53125 -20.847656 16.519531 -20.738281 16.5 -20.625 C 16.5 -20.519531 16.53125 -20.441406 16.59375 -20.390625 C 16.664062 -20.347656 16.65625 -20.28125 16.5625 -20.1875 C 16.488281 -20.09375 16.410156 -20.0625 16.328125 -20.09375 C 16.242188 -20.132812 16.164062 -20.164062 16.09375 -20.1875 C 15.738281 -20.351562 15.550781 -20.6875 15.53125 -21.1875 C 15.5 -21.71875 15.550781 -22.226562 15.6875 -22.71875 C 15.820312 -23.207031 15.992188 -23.703125 16.203125 -24.203125 C 16.898438 -25.828125 17.757812 -27.285156 18.78125 -28.578125 C 19.8125 -29.867188 20.953125 -31.015625 22.203125 -32.015625 C 24.398438 -33.785156 26.582031 -34.914062 28.75 -35.40625 C 30.925781 -35.894531 33.066406 -35.640625 35.171875 -34.640625 C 35.648438 -34.398438 36.09375 -34.113281 36.5 -33.78125 C 36.90625 -33.445312 37.265625 -33.039062 37.578125 -32.5625 C 38.273438 -31.550781 38.613281 -30.472656 38.59375 -29.328125 C 38.582031 -28.179688 38.171875 -26.867188 37.359375 -25.390625 C 37.054688 -24.785156 36.6875 -24.242188 36.25 -23.765625 C 35.820312 -23.296875 35.378906 -22.832031 34.921875 -22.375 C 33.828125 -21.300781 32.675781 -20.332031 31.46875 -19.46875 C 30.257812 -18.613281 29.046875 -17.78125 27.828125 -16.96875 C 25.796875 -15.644531 23.753906 -14.363281 21.703125 -13.125 C 19.660156 -11.882812 17.648438 -10.554688 15.671875 -9.140625 C 13.992188 -7.941406 12.351562 -6.664062 10.75 -5.3125 C 9.15625 -3.96875 7.628906 -2.445312 6.171875 -0.75 C 5.765625 -0.269531 5.359375 0.21875 4.953125 0.71875 C 4.546875 1.21875 4.140625 1.71875 3.734375 2.21875 Z M 3.734375 2.21875 "/></g></g></g><g fill="#6d452b" fill-opacity="1"><g transform="translate(39.597709, 56.347881)"><g><path d="M 18.859375 -34.640625 C 18.691406 -34.617188 18.53125 -34.59375 18.375 -34.5625 C 18.21875 -34.539062 18.054688 -34.519531 17.890625 -34.5 C 16.765625 -34.300781 15.65625 -34.03125 14.5625 -33.6875 C 13.476562 -33.34375 12.4375 -32.882812 11.4375 -32.3125 C 10.957031 -32.050781 10.492188 -31.757812 10.046875 -31.4375 C 9.609375 -31.113281 9.222656 -30.722656 8.890625 -30.265625 C 8.773438 -30.078125 8.609375 -30.03125 8.390625 -30.125 C 8.222656 -30.21875 8.175781 -30.382812 8.25 -30.625 C 8.363281 -30.882812 8.519531 -31.117188 8.71875 -31.328125 C 8.925781 -31.546875 9.140625 -31.753906 9.359375 -31.953125 C 10.078125 -32.578125 10.84375 -33.082031 11.65625 -33.46875 C 12.46875 -33.863281 13.316406 -34.207031 14.203125 -34.5 C 15.753906 -35 17.3125 -35.332031 18.875 -35.5 C 20.445312 -35.664062 22.03125 -35.726562 23.625 -35.6875 C 25.425781 -35.632812 27.222656 -35.582031 29.015625 -35.53125 C 30.804688 -35.488281 32.609375 -35.488281 34.421875 -35.53125 C 35.429688 -35.582031 36.4375 -35.660156 37.4375 -35.765625 C 38.4375 -35.878906 39.414062 -36.066406 40.375 -36.328125 C 40.925781 -36.472656 41.441406 -36.664062 41.921875 -36.90625 C 42.398438 -37.144531 42.828125 -37.46875 43.203125 -37.875 C 43.378906 -38.0625 43.53125 -38.238281 43.65625 -38.40625 C 43.789062 -38.570312 43.878906 -38.773438 43.921875 -39.015625 C 43.992188 -39.328125 44.1875 -39.484375 44.5 -39.484375 C 44.625 -39.484375 44.738281 -39.460938 44.84375 -39.421875 C 44.945312 -39.390625 44.941406 -39.265625 44.828125 -39.046875 C 44.828125 -39.023438 44.828125 -39 44.828125 -38.96875 C 44.828125 -38.945312 44.828125 -38.914062 44.828125 -38.875 C 44.941406 -38.132812 44.789062 -37.582031 44.375 -37.21875 C 43.957031 -36.863281 43.5 -36.554688 43 -36.296875 C 42.226562 -35.910156 41.4375 -35.632812 40.625 -35.46875 C 39.8125 -35.300781 38.988281 -35.15625 38.15625 -35.03125 C 36.144531 -34.789062 34.128906 -34.691406 32.109375 -34.734375 C 30.085938 -34.785156 28.070312 -34.828125 26.0625 -34.859375 C 25.226562 -34.878906 24.382812 -34.894531 23.53125 -34.90625 C 22.6875 -34.914062 21.847656 -34.898438 21.015625 -34.859375 C 20.628906 -34.828125 20.351562 -34.644531 20.1875 -34.3125 C 19.726562 -33.457031 19.28125 -32.597656 18.84375 -31.734375 C 18.40625 -30.867188 17.957031 -30.007812 17.5 -29.15625 C 17.070312 -28.34375 16.59375 -27.578125 16.0625 -26.859375 C 16.207031 -26.835938 16.328125 -26.847656 16.421875 -26.890625 C 16.515625 -26.941406 16.609375 -26.976562 16.703125 -27 C 18.097656 -27.570312 19.503906 -27.945312 20.921875 -28.125 C 22.347656 -28.3125 23.789062 -28.203125 25.25 -27.796875 C 27.113281 -27.316406 28.628906 -26.507812 29.796875 -25.375 C 30.972656 -24.238281 31.832031 -22.929688 32.375 -21.453125 C 32.925781 -19.984375 33.191406 -18.488281 33.171875 -16.96875 C 33.148438 -14.882812 32.800781 -12.894531 32.125 -11 C 31.457031 -9.113281 30.5625 -7.3125 29.4375 -5.59375 C 27.769531 -3.007812 25.785156 -0.8125 23.484375 1 C 21.191406 2.820312 18.5625 4.195312 15.59375 5.125 C 14.0625 5.601562 12.53125 5.851562 11 5.875 C 9.476562 5.90625 7.972656 5.582031 6.484375 4.90625 C 5.148438 4.3125 4.019531 3.535156 3.09375 2.578125 C 2.175781 1.617188 1.5625 0.398438 1.25 -1.078125 C 0.988281 -2.484375 1.054688 -3.921875 1.453125 -5.390625 C 1.847656 -6.867188 2.507812 -8.21875 3.4375 -9.4375 C 4.375 -10.65625 5.472656 -11.570312 6.734375 -12.1875 C 7.359375 -12.476562 8.003906 -12.707031 8.671875 -12.875 C 9.347656 -13.039062 10.019531 -13.132812 10.6875 -13.15625 C 11.28125 -13.207031 11.734375 -12.992188 12.046875 -12.515625 C 10.710938 -12.609375 9.507812 -12.382812 8.4375 -11.84375 C 7.375 -11.3125 6.378906 -10.640625 5.453125 -9.828125 C 4.566406 -9.054688 3.859375 -8.175781 3.328125 -7.1875 C 2.804688 -6.195312 2.453125 -5.113281 2.265625 -3.9375 C 2.046875 -2.507812 2.109375 -1.175781 2.453125 0.0625 C 2.796875 1.3125 3.59375 2.390625 4.84375 3.296875 C 5.75 3.960938 6.722656 4.414062 7.765625 4.65625 C 8.804688 4.894531 9.875 4.957031 10.96875 4.84375 C 12.8125 4.625 14.546875 4.140625 16.171875 3.390625 C 17.796875 2.640625 19.347656 1.738281 20.828125 0.6875 C 23.054688 -0.894531 24.992188 -2.695312 26.640625 -4.71875 C 28.296875 -6.738281 29.578125 -9.050781 30.484375 -11.65625 C 30.984375 -13.113281 31.3125 -14.582031 31.46875 -16.0625 C 31.625 -17.539062 31.5 -19.035156 31.09375 -20.546875 C 30.851562 -21.484375 30.519531 -22.375 30.09375 -23.21875 C 29.675781 -24.0625 29.085938 -24.796875 28.328125 -25.421875 C 27.328125 -26.253906 26.25 -26.785156 25.09375 -27.015625 C 23.945312 -27.242188 22.753906 -27.3125 21.515625 -27.21875 C 19.910156 -27.09375 18.394531 -26.710938 16.96875 -26.078125 C 15.550781 -25.453125 14.207031 -24.648438 12.9375 -23.671875 C 12.820312 -23.578125 12.707031 -23.503906 12.59375 -23.453125 C 12.488281 -23.398438 12.378906 -23.457031 12.265625 -23.625 C 12.171875 -23.769531 12.09375 -23.894531 12.03125 -24 C 11.96875 -24.113281 12.054688 -24.253906 12.296875 -24.421875 C 13.066406 -24.972656 13.710938 -25.628906 14.234375 -26.390625 C 14.765625 -27.160156 15.242188 -27.953125 15.671875 -28.765625 C 16.171875 -29.742188 16.675781 -30.707031 17.1875 -31.65625 C 17.707031 -32.613281 18.265625 -33.546875 18.859375 -34.453125 C 18.859375 -34.453125 18.859375 -34.46875 18.859375 -34.5 C 18.859375 -34.539062 18.859375 -34.585938 18.859375 -34.640625 Z M 18.859375 -34.640625 "/></g></g></g></g></g><g fill="#6d452b" fill-opacity="1"><g transform="translate(57.454276, 93.299501)"><g><path d="M 8.515625 -13.21875 C 8.566406 -12.75 8.59375 -12.476562 8.59375 -12.40625 L 8.5625 -11.453125 C 8.539062 -11.046875 8.519531 -10.785156 8.5 -10.671875 C 8.4375 -10.640625 8.382812 -10.625 8.34375 -10.625 L 8.25 -10.640625 C 8.019531 -11.640625 7.628906 -12.367188 7.078125 -12.828125 C 6.535156 -13.285156 5.875 -13.515625 5.09375 -13.515625 C 4.269531 -13.515625 3.597656 -13.285156 3.078125 -12.828125 C 2.554688 -12.367188 2.296875 -11.835938 2.296875 -11.234375 C 2.296875 -10.773438 2.476562 -10.351562 2.84375 -9.96875 C 3.207031 -9.582031 4.140625 -9.003906 5.640625 -8.234375 C 6.785156 -7.640625 7.601562 -7.15625 8.09375 -6.78125 C 8.59375 -6.40625 8.96875 -5.96875 9.21875 -5.46875 C 9.46875 -4.976562 9.59375 -4.429688 9.59375 -3.828125 C 9.59375 -3.054688 9.390625 -2.335938 8.984375 -1.671875 C 8.585938 -1.003906 8.054688 -0.5 7.390625 -0.15625 C 6.722656 0.1875 5.832031 0.359375 4.71875 0.359375 C 3.757812 0.359375 2.835938 0.203125 1.953125 -0.109375 C 1.429688 -0.296875 1.113281 -0.445312 1 -0.5625 C 0.882812 -0.675781 0.828125 -0.796875 0.828125 -0.921875 C 0.828125 -0.992188 0.832031 -1.09375 0.84375 -1.21875 C 0.945312 -2.0625 1 -2.753906 1 -3.296875 C 1.019531 -3.628906 1.046875 -3.828125 1.078125 -3.890625 C 1.109375 -3.941406 1.164062 -3.96875 1.25 -3.96875 C 1.3125 -3.96875 1.359375 -3.941406 1.390625 -3.890625 C 1.429688 -3.847656 1.460938 -3.757812 1.484375 -3.625 C 1.554688 -2.75 1.960938 -1.96875 2.703125 -1.28125 C 3.429688 -0.582031 4.253906 -0.234375 5.171875 -0.234375 C 5.734375 -0.234375 6.25 -0.347656 6.71875 -0.578125 C 7.195312 -0.816406 7.570312 -1.160156 7.84375 -1.609375 C 8.113281 -2.054688 8.25 -2.488281 8.25 -2.90625 C 8.25 -3.488281 8.046875 -4.019531 7.640625 -4.5 C 7.234375 -4.976562 6.414062 -5.535156 5.1875 -6.171875 C 3.957031 -6.816406 3.15625 -7.285156 2.78125 -7.578125 C 2.1875 -8.054688 1.738281 -8.5625 1.4375 -9.09375 C 1.21875 -9.507812 1.109375 -9.992188 1.109375 -10.546875 C 1.109375 -11.535156 1.5 -12.375 2.28125 -13.0625 C 3.0625 -13.75 4.113281 -14.09375 5.4375 -14.09375 C 6.164062 -14.09375 6.796875 -14.007812 7.328125 -13.84375 C 7.710938 -13.71875 8.109375 -13.507812 8.515625 -13.21875 Z M 8.515625 -13.21875 "/></g></g></g><g fill="#6d452b" fill-opacity="1"><g transform="translate(73.950273, 93.299501)"><g><path d="M -0.125 -0.34375 C -0.0195312 -0.394531 0.0703125 -0.421875 0.15625 -0.421875 L 0.390625 -0.421875 C 0.441406 -0.421875 0.53125 -0.425781 0.65625 -0.4375 C 1.207031 -0.488281 1.53125 -0.539062 1.625 -0.59375 C 1.875 -0.726562 2.085938 -0.960938 2.265625 -1.296875 C 2.640625 -2.023438 3.0625 -3.054688 3.53125 -4.390625 C 3.75 -5.023438 3.882812 -5.410156 3.9375 -5.546875 C 4.113281 -5.972656 4.285156 -6.421875 4.453125 -6.890625 L 5.46875 -9.71875 C 5.625 -10.15625 6 -11.164062 6.59375 -12.75 C 6.75 -13.15625 6.929688 -13.691406 7.140625 -14.359375 L 7.453125 -14.390625 L 7.828125 -14.375 C 8.140625 -13.769531 8.410156 -13.117188 8.640625 -12.421875 C 8.773438 -12.046875 8.988281 -11.488281 9.28125 -10.75 L 10.90625 -6.359375 L 11.765625 -3.96875 C 12.222656 -2.601562 12.523438 -1.765625 12.671875 -1.453125 C 12.816406 -1.148438 12.945312 -0.945312 13.0625 -0.84375 C 13.101562 -0.8125 13.238281 -0.765625 13.46875 -0.703125 C 13.695312 -0.648438 13.859375 -0.613281 13.953125 -0.59375 C 14.285156 -0.5 14.515625 -0.421875 14.640625 -0.359375 C 14.671875 -0.273438 14.6875 -0.210938 14.6875 -0.171875 C 14.6875 -0.140625 14.675781 -0.0859375 14.65625 -0.015625 C 14.425781 -0.00390625 14.265625 0 14.171875 0 C 13.804688 0 13.164062 -0.0078125 12.25 -0.03125 L 11.171875 -0.0625 L 9.875 -0.046875 C 9.789062 -0.046875 9.703125 -0.0507812 9.609375 -0.0625 C 9.523438 -0.0703125 9.453125 -0.078125 9.390625 -0.078125 L 9.140625 -0.078125 C 9.066406 -0.078125 9 -0.0976562 8.9375 -0.140625 C 8.9375 -0.242188 8.953125 -0.335938 8.984375 -0.421875 C 9.066406 -0.472656 9.144531 -0.5 9.21875 -0.5 L 10.34375 -0.578125 C 10.632812 -0.585938 10.859375 -0.628906 11.015625 -0.703125 C 11.054688 -0.828125 11.078125 -0.921875 11.078125 -0.984375 C 11.078125 -1.109375 10.984375 -1.441406 10.796875 -1.984375 C 10.671875 -2.335938 10.554688 -2.675781 10.453125 -3 C 10.359375 -3.320312 9.976562 -4.378906 9.3125 -6.171875 C 9.019531 -6.222656 8.765625 -6.25 8.546875 -6.25 L 6.25 -6.21875 L 5.578125 -6.234375 C 5.335938 -6.234375 5.070312 -6.21875 4.78125 -6.1875 C 4.6875 -5.96875 4.625 -5.8125 4.59375 -5.71875 L 3.65625 -2.78125 C 3.25 -1.65625 3.046875 -1.035156 3.046875 -0.921875 C 3.046875 -0.859375 3.082031 -0.75 3.15625 -0.59375 C 3.300781 -0.550781 3.5 -0.515625 3.75 -0.484375 L 5.203125 -0.359375 C 5.285156 -0.285156 5.328125 -0.226562 5.328125 -0.1875 C 5.328125 -0.144531 5.316406 -0.0859375 5.296875 -0.015625 C 4.972656 -0.015625 4.722656 -0.015625 4.546875 -0.015625 C 3.984375 -0.015625 3.320312 -0.03125 2.5625 -0.0625 C 2.207031 -0.0703125 1.957031 -0.078125 1.8125 -0.078125 C 1.65625 -0.078125 1.394531 -0.0703125 1.03125 -0.0625 C 0.789062 -0.0507812 0.613281 -0.046875 0.5 -0.046875 C 0.332031 -0.046875 0.113281 -0.0546875 -0.15625 -0.078125 L -0.15625 -0.140625 C -0.15625 -0.191406 -0.144531 -0.257812 -0.125 -0.34375 Z M 4.984375 -6.765625 C 5.753906 -6.722656 6.628906 -6.703125 7.609375 -6.703125 C 8.160156 -6.703125 8.648438 -6.722656 9.078125 -6.765625 C 9.003906 -7.035156 8.921875 -7.296875 8.828125 -7.546875 C 8.359375 -8.785156 8.101562 -9.46875 8.0625 -9.59375 L 7.078125 -12.078125 L 6.96875 -12.265625 C 6.925781 -12.179688 6.769531 -11.8125 6.5 -11.15625 C 6.039062 -10.039062 5.710938 -9.175781 5.515625 -8.5625 C 5.421875 -8.28125 5.320312 -8 5.21875 -7.71875 C 5.125 -7.445312 5.0625 -7.253906 5.03125 -7.140625 C 5.007812 -7.035156 4.972656 -6.925781 4.921875 -6.8125 Z M 6.375 -15.0625 L 7.703125 -16.96875 C 8.085938 -17.53125 8.472656 -17.9375 8.859375 -18.1875 C 9.015625 -18.300781 9.1875 -18.359375 9.375 -18.359375 C 9.5625 -18.359375 9.710938 -18.300781 9.828125 -18.1875 C 9.941406 -18.082031 10 -17.957031 10 -17.8125 C 10 -17.675781 9.945312 -17.535156 9.84375 -17.390625 C 9.75 -17.242188 9.507812 -17.039062 9.125 -16.78125 L 6.609375 -15.0625 L 6.5 -15.046875 Z M 6.375 -15.0625 "/></g></g></g><g fill="#6d452b" fill-opacity="1"><g transform="translate(94.794643, 93.299501)"><g><path d="M 0.296875 -13.265625 L 0.296875 -13.609375 C 0.410156 -13.628906 0.503906 -13.644531 0.578125 -13.65625 L 1.578125 -13.71875 C 2.421875 -13.78125 3.359375 -13.832031 4.390625 -13.875 C 4.804688 -13.894531 5.460938 -13.90625 6.359375 -13.90625 C 7.566406 -13.90625 8.453125 -13.816406 9.015625 -13.640625 C 9.835938 -13.367188 10.453125 -12.96875 10.859375 -12.4375 C 11.265625 -11.90625 11.46875 -11.316406 11.46875 -10.671875 C 11.46875 -9.609375 10.710938 -8.71875 9.203125 -8 L 9.140625 -7.921875 C 9.910156 -7.710938 10.539062 -7.421875 11.03125 -7.046875 C 11.53125 -6.671875 11.910156 -6.21875 12.171875 -5.6875 C 12.367188 -5.289062 12.46875 -4.773438 12.46875 -4.140625 C 12.46875 -3.078125 11.984375 -2.128906 11.015625 -1.296875 C 10.046875 -0.460938 8.710938 -0.046875 7.015625 -0.046875 L 5.421875 -0.046875 L 3.796875 0 C 2.367188 0.0078125 1.535156 0.015625 1.296875 0.015625 C 1.046875 0.015625 0.800781 0.00390625 0.5625 -0.015625 L 0.5625 -0.125 C 0.5625 -0.207031 0.578125 -0.269531 0.609375 -0.3125 C 0.648438 -0.351562 0.734375 -0.390625 0.859375 -0.421875 C 1.753906 -0.609375 2.257812 -0.734375 2.375 -0.796875 C 2.488281 -0.867188 2.566406 -0.976562 2.609375 -1.125 C 2.703125 -1.40625 2.75 -2.140625 2.75 -3.328125 C 2.75 -3.429688 2.742188 -3.566406 2.734375 -3.734375 C 2.710938 -4.210938 2.703125 -4.488281 2.703125 -4.5625 L 2.703125 -5.671875 C 2.703125 -7.554688 2.679688 -9.203125 2.640625 -10.609375 L 2.640625 -12.765625 L 2.625 -13.03125 C 2.019531 -13.125 1.484375 -13.179688 1.015625 -13.203125 C 0.710938 -13.203125 0.472656 -13.222656 0.296875 -13.265625 Z M 4.546875 -7.859375 C 4.898438 -7.785156 5.273438 -7.75 5.671875 -7.75 C 7.210938 -7.75 8.253906 -8.085938 8.796875 -8.765625 C 9.347656 -9.441406 9.625 -10.113281 9.625 -10.78125 C 9.625 -11.082031 9.578125 -11.390625 9.484375 -11.703125 C 9.390625 -12.015625 9.21875 -12.296875 8.96875 -12.546875 C 8.71875 -12.796875 8.414062 -12.976562 8.0625 -13.09375 C 7.4375 -13.300781 6.800781 -13.40625 6.15625 -13.40625 C 5.539062 -13.40625 4.972656 -13.335938 4.453125 -13.203125 C 4.453125 -13.054688 4.453125 -12.945312 4.453125 -12.875 C 4.453125 -12.800781 4.457031 -12.597656 4.46875 -12.265625 C 4.476562 -12.046875 4.484375 -11.832031 4.484375 -11.625 L 4.453125 -10.328125 L 4.453125 -9.5625 L 4.53125 -8.046875 Z M 7.0625 -0.5625 C 7.769531 -0.613281 8.363281 -0.765625 8.84375 -1.015625 C 9.0625 -1.128906 9.320312 -1.332031 9.625 -1.625 C 9.925781 -1.925781 10.160156 -2.285156 10.328125 -2.703125 C 10.492188 -3.117188 10.578125 -3.519531 10.578125 -3.90625 C 10.578125 -4.195312 10.519531 -4.554688 10.40625 -4.984375 C 10.289062 -5.410156 10.09375 -5.785156 9.8125 -6.109375 C 9.53125 -6.429688 9.109375 -6.695312 8.546875 -6.90625 C 7.992188 -7.125 7.378906 -7.234375 6.703125 -7.234375 C 5.398438 -7.234375 4.671875 -7.207031 4.515625 -7.15625 C 4.515625 -6.988281 4.515625 -6.867188 4.515625 -6.796875 L 4.515625 -4.6875 C 4.535156 -3 4.570312 -2.003906 4.625 -1.703125 C 4.6875 -1.398438 4.878906 -1.132812 5.203125 -0.90625 C 5.535156 -0.6875 6.15625 -0.570312 7.0625 -0.5625 Z M 7.0625 -0.5625 "/></g></g></g><g fill="#6d452b" fill-opacity="1"><g transform="translate(114.268098, 93.299501)"><g><path d="M -0.125 -0.34375 C -0.0195312 -0.394531 0.0703125 -0.421875 0.15625 -0.421875 L 0.390625 -0.421875 C 0.441406 -0.421875 0.53125 -0.425781 0.65625 -0.4375 C 1.207031 -0.488281 1.53125 -0.539062 1.625 -0.59375 C 1.875 -0.726562 2.085938 -0.960938 2.265625 -1.296875 C 2.640625 -2.023438 3.0625 -3.054688 3.53125 -4.390625 C 3.75 -5.023438 3.882812 -5.410156 3.9375 -5.546875 C 4.113281 -5.972656 4.285156 -6.421875 4.453125 -6.890625 L 5.46875 -9.71875 C 5.625 -10.15625 6 -11.164062 6.59375 -12.75 C 6.75 -13.15625 6.929688 -13.691406 7.140625 -14.359375 L 7.453125 -14.390625 L 7.828125 -14.375 C 8.140625 -13.769531 8.410156 -13.117188 8.640625 -12.421875 C 8.773438 -12.046875 8.988281 -11.488281 9.28125 -10.75 L 10.90625 -6.359375 L 11.765625 -3.96875 C 12.222656 -2.601562 12.523438 -1.765625 12.671875 -1.453125 C 12.816406 -1.148438 12.945312 -0.945312 13.0625 -0.84375 C 13.101562 -0.8125 13.238281 -0.765625 13.46875 -0.703125 C 13.695312 -0.648438 13.859375 -0.613281 13.953125 -0.59375 C 14.285156 -0.5 14.515625 -0.421875 14.640625 -0.359375 C 14.671875 -0.273438 14.6875 -0.210938 14.6875 -0.171875 C 14.6875 -0.140625 14.675781 -0.0859375 14.65625 -0.015625 C 14.425781 -0.00390625 14.265625 0 14.171875 0 C 13.804688 0 13.164062 -0.0078125 12.25 -0.03125 L 11.171875 -0.0625 L 9.875 -0.046875 C 9.789062 -0.046875 9.703125 -0.0507812 9.609375 -0.0625 C 9.523438 -0.0703125 9.453125 -0.078125 9.390625 -0.078125 L 9.140625 -0.078125 C 9.066406 -0.078125 9 -0.0976562 8.9375 -0.140625 C 8.9375 -0.242188 8.953125 -0.335938 8.984375 -0.421875 C 9.066406 -0.472656 9.144531 -0.5 9.21875 -0.5 L 10.34375 -0.578125 C 10.632812 -0.585938 10.859375 -0.628906 11.015625 -0.703125 C 11.054688 -0.828125 11.078125 -0.921875 11.078125 -0.984375 C 11.078125 -1.109375 10.984375 -1.441406 10.796875 -1.984375 C 10.671875 -2.335938 10.554688 -2.675781 10.453125 -3 C 10.359375 -3.320312 9.976562 -4.378906 9.3125 -6.171875 C 9.019531 -6.222656 8.765625 -6.25 8.546875 -6.25 L 6.25 -6.21875 L 5.578125 -6.234375 C 5.335938 -6.234375 5.070312 -6.21875 4.78125 -6.1875 C 4.6875 -5.96875 4.625 -5.8125 4.59375 -5.71875 L 3.65625 -2.78125 C 3.25 -1.65625 3.046875 -1.035156 3.046875 -0.921875 C 3.046875 -0.859375 3.082031 -0.75 3.15625 -0.59375 C 3.300781 -0.550781 3.5 -0.515625 3.75 -0.484375 L 5.203125 -0.359375 C 5.285156 -0.285156 5.328125 -0.226562 5.328125 -0.1875 C 5.328125 -0.144531 5.316406 -0.0859375 5.296875 -0.015625 C 4.972656 -0.015625 4.722656 -0.015625 4.546875 -0.015625 C 3.984375 -0.015625 3.320312 -0.03125 2.5625 -0.0625 C 2.207031 -0.0703125 1.957031 -0.078125 1.8125 -0.078125 C 1.65625 -0.078125 1.394531 -0.0703125 1.03125 -0.0625 C 0.789062 -0.0507812 0.613281 -0.046875 0.5 -0.046875 C 0.332031 -0.046875 0.113281 -0.0546875 -0.15625 -0.078125 L -0.15625 -0.140625 C -0.15625 -0.191406 -0.144531 -0.257812 -0.125 -0.34375 Z M 4.984375 -6.765625 C 5.753906 -6.722656 6.628906 -6.703125 7.609375 -6.703125 C 8.160156 -6.703125 8.648438 -6.722656 9.078125 -6.765625 C 9.003906 -7.035156 8.921875 -7.296875 8.828125 -7.546875 C 8.359375 -8.785156 8.101562 -9.46875 8.0625 -9.59375 L 7.078125 -12.078125 L 6.96875 -12.265625 C 6.925781 -12.179688 6.769531 -11.8125 6.5 -11.15625 C 6.039062 -10.039062 5.710938 -9.175781 5.515625 -8.5625 C 5.421875 -8.28125 5.320312 -8 5.21875 -7.71875 C 5.125 -7.445312 5.0625 -7.253906 5.03125 -7.140625 C 5.007812 -7.035156 4.972656 -6.925781 4.921875 -6.8125 Z M 4.984375 -6.765625 "/></g></g></g><g fill="#6d452b" fill-opacity="1"><g transform="translate(135.112468, 93.299501)"><g><path d="M 0.25 -0.21875 C 0.519531 -0.332031 0.828125 -0.40625 1.171875 -0.4375 C 1.679688 -0.5 2.0625 -0.617188 2.3125 -0.796875 C 2.507812 -1.191406 2.609375 -2.191406 2.609375 -3.796875 L 2.609375 -5.5 L 2.625 -6.515625 L 2.609375 -7.265625 L 2.625 -8.640625 L 2.59375 -12.125 C 2.59375 -12.519531 2.535156 -12.773438 2.421875 -12.890625 C 2.253906 -13.078125 1.816406 -13.242188 1.109375 -13.390625 C 0.816406 -13.453125 0.640625 -13.507812 0.578125 -13.5625 C 0.515625 -13.613281 0.472656 -13.71875 0.453125 -13.875 C 0.617188 -13.90625 0.734375 -13.921875 0.796875 -13.921875 L 1.5625 -13.921875 L 1.953125 -13.9375 C 2.222656 -13.9375 2.519531 -13.90625 2.84375 -13.84375 C 3.5 -13.800781 4.171875 -13.78125 4.859375 -13.78125 C 5.054688 -13.78125 5.34375 -13.789062 5.71875 -13.8125 C 6.707031 -13.875 7.414062 -13.90625 7.84375 -13.90625 C 8.707031 -13.90625 9.519531 -13.816406 10.28125 -13.640625 C 11.050781 -13.472656 11.84375 -13.15625 12.65625 -12.6875 C 13.164062 -12.394531 13.6875 -11.929688 14.21875 -11.296875 C 14.75 -10.671875 15.148438 -9.984375 15.421875 -9.234375 C 15.703125 -8.492188 15.84375 -7.65625 15.84375 -6.71875 C 15.84375 -5.882812 15.691406 -5.054688 15.390625 -4.234375 C 15.085938 -3.410156 14.660156 -2.695312 14.109375 -2.09375 C 13.566406 -1.488281 13.019531 -1.035156 12.46875 -0.734375 C 11.914062 -0.429688 11.066406 -0.171875 9.921875 0.046875 C 9.453125 0.140625 8.601562 0.1875 7.375 0.1875 C 6.570312 0.1875 5.914062 0.160156 5.40625 0.109375 C 5.207031 0.078125 4.992188 0.0625 4.765625 0.0625 C 4.734375 0.0625 4.695312 0.0664062 4.65625 0.078125 L 0.28125 0.15625 L 0.25 0.0625 C 0.238281 0.03125 0.234375 -0.00390625 0.234375 -0.046875 Z M 5.703125 -0.625 C 6.242188 -0.445312 6.796875 -0.359375 7.359375 -0.359375 C 8.078125 -0.359375 8.78125 -0.46875 9.46875 -0.6875 C 10.164062 -0.914062 10.78125 -1.234375 11.3125 -1.640625 C 11.84375 -2.054688 12.28125 -2.519531 12.625 -3.03125 C 12.96875 -3.550781 13.210938 -4.019531 13.359375 -4.4375 C 13.554688 -5.039062 13.65625 -5.828125 13.65625 -6.796875 C 13.65625 -7.722656 13.457031 -8.664062 13.0625 -9.625 C 12.789062 -10.289062 12.3125 -10.925781 11.625 -11.53125 C 10.945312 -12.144531 10.144531 -12.59375 9.21875 -12.875 C 8.289062 -13.15625 7.289062 -13.296875 6.21875 -13.296875 C 5.46875 -13.296875 4.914062 -13.210938 4.5625 -13.046875 C 4.519531 -13.003906 4.476562 -12.953125 4.4375 -12.890625 C 4.394531 -12.710938 4.375 -12.550781 4.375 -12.40625 C 4.375 -12.3125 4.375 -12.203125 4.375 -12.078125 C 4.394531 -11.242188 4.40625 -10.578125 4.40625 -10.078125 L 4.40625 -7.640625 C 4.40625 -4.078125 4.46875 -2.09375 4.59375 -1.6875 C 4.726562 -1.28125 5.097656 -0.925781 5.703125 -0.625 Z M 5.703125 -0.625 "/></g></g></g><g fill="#6d452b" fill-opacity="1"><g transform="translate(158.013212, 93.299501)"><g><path d="M 1 -6.84375 C 1 -7.570312 1.085938 -8.21875 1.265625 -8.78125 C 1.441406 -9.351562 1.738281 -9.972656 2.15625 -10.640625 C 2.570312 -11.304688 3.070312 -11.859375 3.65625 -12.296875 C 4.238281 -12.742188 5.046875 -13.140625 6.078125 -13.484375 C 6.804688 -13.722656 7.726562 -13.84375 8.84375 -13.84375 C 9.59375 -13.84375 10.328125 -13.738281 11.046875 -13.53125 C 11.765625 -13.332031 12.414062 -13.054688 13 -12.703125 C 13.582031 -12.347656 14.171875 -11.796875 14.765625 -11.046875 C 15.171875 -10.535156 15.476562 -9.984375 15.6875 -9.390625 C 15.957031 -8.617188 16.09375 -7.816406 16.09375 -6.984375 C 16.09375 -6.035156 16 -5.25 15.8125 -4.625 C 15.632812 -4.007812 15.332031 -3.398438 14.90625 -2.796875 C 14.5625 -2.328125 13.984375 -1.785156 13.171875 -1.171875 C 12.628906 -0.753906 11.953125 -0.414062 11.140625 -0.15625 C 10.335938 0.09375 9.46875 0.21875 8.53125 0.21875 C 7.582031 0.21875 6.738281 0.109375 6 -0.109375 C 5.257812 -0.335938 4.640625 -0.609375 4.140625 -0.921875 C 3.640625 -1.242188 3.128906 -1.710938 2.609375 -2.328125 C 2.085938 -2.953125 1.6875 -3.640625 1.40625 -4.390625 C 1.132812 -5.140625 1 -5.957031 1 -6.84375 Z M 8.4375 -0.1875 C 9.039062 -0.1875 9.664062 -0.269531 10.3125 -0.4375 C 10.957031 -0.601562 11.53125 -0.878906 12.03125 -1.265625 C 12.53125 -1.660156 12.921875 -2.101562 13.203125 -2.59375 C 13.484375 -3.09375 13.707031 -3.726562 13.875 -4.5 C 14.050781 -5.28125 14.140625 -6.0625 14.140625 -6.84375 C 14.140625 -7.8125 14 -8.769531 13.71875 -9.71875 C 13.488281 -10.445312 13.125 -11.09375 12.625 -11.65625 C 12.125 -12.226562 11.519531 -12.664062 10.8125 -12.96875 C 10.113281 -13.28125 9.363281 -13.4375 8.5625 -13.4375 C 7.90625 -13.4375 7.265625 -13.328125 6.640625 -13.109375 C 6.023438 -12.898438 5.515625 -12.628906 5.109375 -12.296875 C 4.710938 -11.960938 4.34375 -11.488281 4 -10.875 C 3.65625 -10.269531 3.394531 -9.597656 3.21875 -8.859375 C 3.039062 -8.128906 2.953125 -7.484375 2.953125 -6.921875 C 2.953125 -6.328125 3.039062 -5.65625 3.21875 -4.90625 C 3.394531 -4.15625 3.640625 -3.503906 3.953125 -2.953125 C 4.265625 -2.398438 4.644531 -1.910156 5.09375 -1.484375 C 5.550781 -1.066406 6.0625 -0.742188 6.625 -0.515625 C 7.195312 -0.296875 7.800781 -0.1875 8.4375 -0.1875 Z M 8.4375 -0.1875 "/></g></g></g><g fill="#6d452b" fill-opacity="1"><g transform="translate(422.645671, 93.299494)"><g><path d="M 7.78125 -0.015625 L 2.875 -0.015625 C 2.863281 -0.0859375 2.859375 -0.144531 2.859375 -0.1875 C 2.859375 -0.300781 2.882812 -0.378906 2.9375 -0.421875 C 2.988281 -0.472656 3.144531 -0.523438 3.40625 -0.578125 C 3.820312 -0.660156 4.15625 -0.765625 4.40625 -0.890625 C 4.476562 -1.046875 4.515625 -1.191406 4.515625 -1.328125 L 4.515625 -2 C 4.515625 -2.070312 4.523438 -2.429688 4.546875 -3.078125 C 4.554688 -3.316406 4.566406 -4.363281 4.578125 -6.21875 L 4.59375 -8.734375 L 4.578125 -10.203125 C 4.578125 -10.421875 4.582031 -11.097656 4.59375 -12.234375 C 2.96875 -11.078125 2.078125 -10.5 1.921875 -10.5 C 1.867188 -10.5 1.8125 -10.523438 1.75 -10.578125 C 1.6875 -10.640625 1.65625 -10.703125 1.65625 -10.765625 C 1.65625 -10.835938 1.675781 -10.894531 1.71875 -10.9375 C 1.820312 -11.03125 2.0625 -11.179688 2.4375 -11.390625 C 2.5 -11.421875 2.75 -11.613281 3.1875 -11.96875 C 3.875 -12.550781 4.378906 -13.003906 4.703125 -13.328125 C 5.023438 -13.660156 5.222656 -13.847656 5.296875 -13.890625 C 5.429688 -13.898438 5.539062 -13.90625 5.625 -13.90625 C 5.8125 -13.90625 5.925781 -13.875 5.96875 -13.8125 C 6.019531 -13.75 6.046875 -13.53125 6.046875 -13.15625 L 5.96875 -3.609375 L 5.96875 -2.671875 C 5.96875 -2.441406 5.960938 -2.207031 5.953125 -1.96875 C 5.941406 -1.738281 5.9375 -1.570312 5.9375 -1.46875 C 5.9375 -1.207031 5.972656 -1.039062 6.046875 -0.96875 C 6.085938 -0.914062 6.21875 -0.847656 6.4375 -0.765625 L 7.171875 -0.625 C 7.484375 -0.539062 7.65625 -0.484375 7.6875 -0.453125 C 7.75 -0.390625 7.78125 -0.289062 7.78125 -0.15625 Z M 7.78125 -0.015625 "/></g></g></g><g fill="#6d452b" fill-opacity="1"><g transform="translate(438.916747, 93.299494)"><g><path d="M 8.4375 -14.03125 C 8.5 -13.925781 8.539062 -13.804688 8.5625 -13.671875 C 8.519531 -13.597656 8.453125 -13.546875 8.359375 -13.515625 C 8.066406 -13.441406 7.625 -13.234375 7.03125 -12.890625 C 6.894531 -12.828125 6.484375 -12.5 5.796875 -11.90625 C 5.484375 -11.6875 5.113281 -11.285156 4.6875 -10.703125 C 4.09375 -9.910156 3.664062 -9.207031 3.40625 -8.59375 C 3.144531 -7.976562 2.914062 -7.171875 2.71875 -6.171875 C 2.664062 -5.878906 2.628906 -5.375 2.609375 -4.65625 L 2.578125 -4.265625 C 2.578125 -3.347656 2.84375 -2.429688 3.375 -1.515625 C 3.914062 -0.609375 4.59375 -0.15625 5.40625 -0.15625 C 5.820312 -0.15625 6.210938 -0.285156 6.578125 -0.546875 C 6.953125 -0.804688 7.242188 -1.242188 7.453125 -1.859375 C 7.671875 -2.472656 7.78125 -3.210938 7.78125 -4.078125 C 7.78125 -5.265625 7.550781 -6.140625 7.09375 -6.703125 C 6.644531 -7.273438 6.101562 -7.5625 5.46875 -7.5625 C 5.269531 -7.5625 5.097656 -7.535156 4.953125 -7.484375 L 4.859375 -7.453125 C 4.765625 -7.453125 4.671875 -7.554688 4.578125 -7.765625 C 4.765625 -7.890625 4.988281 -7.988281 5.25 -8.0625 C 5.507812 -8.144531 5.679688 -8.1875 5.765625 -8.1875 C 5.816406 -8.1875 6.140625 -8.128906 6.734375 -8.015625 L 7.046875 -7.875 C 7.390625 -7.769531 7.648438 -7.644531 7.828125 -7.5 C 8.160156 -7.238281 8.453125 -6.90625 8.703125 -6.5 C 8.835938 -6.289062 9.007812 -5.867188 9.21875 -5.234375 C 9.238281 -5.191406 9.289062 -4.878906 9.375 -4.296875 L 9.3125 -3.21875 C 9.164062 -2.582031 9.023438 -2.132812 8.890625 -1.875 C 8.691406 -1.476562 8.359375 -1.050781 7.890625 -0.59375 C 7.640625 -0.351562 7.320312 -0.160156 6.9375 -0.015625 C 6.394531 0.191406 5.820312 0.296875 5.21875 0.296875 C 4.0625 0.296875 3.082031 -0.160156 2.28125 -1.078125 C 1.476562 -2.003906 1.078125 -3.347656 1.078125 -5.109375 C 1.078125 -6.085938 1.222656 -7.015625 1.515625 -7.890625 C 1.816406 -8.765625 2.242188 -9.566406 2.796875 -10.296875 C 3.171875 -10.785156 3.675781 -11.3125 4.3125 -11.875 C 4.945312 -12.4375 5.550781 -12.878906 6.125 -13.203125 C 6.90625 -13.609375 7.675781 -13.882812 8.4375 -14.03125 Z M 8.4375 -14.03125 "/></g></g></g><g fill="#6d452b" fill-opacity="1"><g transform="translate(455.187823, 93.299494)"><g><path d="M 0.421875 0.15625 L 0.421875 -0.078125 C 0.671875 -0.210938 0.957031 -0.296875 1.28125 -0.328125 C 1.78125 -0.390625 2.097656 -0.453125 2.234375 -0.515625 C 2.367188 -0.585938 2.46875 -0.6875 2.53125 -0.8125 C 2.625 -1.050781 2.671875 -1.289062 2.671875 -1.53125 L 2.65625 -2.34375 L 2.671875 -3.09375 L 2.640625 -3.96875 C 2.640625 -4.332031 2.648438 -4.785156 2.671875 -5.328125 C 2.691406 -5.878906 2.703125 -6.175781 2.703125 -6.21875 L 2.703125 -9.140625 C 2.703125 -9.597656 2.710938 -10.097656 2.734375 -10.640625 C 2.765625 -11.179688 2.78125 -11.554688 2.78125 -11.765625 C 2.78125 -12.378906 2.765625 -12.734375 2.734375 -12.828125 C 2.703125 -12.929688 2.644531 -13.003906 2.5625 -13.046875 C 2.488281 -13.085938 2.234375 -13.128906 1.796875 -13.171875 C 1.460938 -13.191406 1.234375 -13.210938 1.109375 -13.234375 C 1.066406 -13.316406 1.046875 -13.382812 1.046875 -13.4375 C 1.046875 -13.488281 1.050781 -13.554688 1.0625 -13.640625 C 1.226562 -13.648438 1.359375 -13.65625 1.453125 -13.65625 L 2.46875 -13.640625 C 3.175781 -13.640625 3.929688 -13.671875 4.734375 -13.734375 C 5.128906 -13.765625 5.722656 -13.789062 6.515625 -13.8125 C 6.523438 -13.75 6.53125 -13.6875 6.53125 -13.625 C 6.53125 -13.550781 6.515625 -13.492188 6.484375 -13.453125 C 6.453125 -13.421875 6.394531 -13.394531 6.3125 -13.375 C 5.382812 -13.300781 4.832031 -13.1875 4.65625 -13.03125 C 4.488281 -12.875 4.40625 -12.484375 4.40625 -11.859375 C 4.40625 -10.703125 4.425781 -9.507812 4.46875 -8.28125 L 4.515625 -7.265625 C 4.546875 -7.242188 5.007812 -7.210938 5.90625 -7.171875 C 6.144531 -7.148438 6.285156 -7.140625 6.328125 -7.140625 L 7.90625 -7.171875 L 8.9375 -7.140625 L 11.671875 -7.21875 C 12.003906 -7.226562 12.207031 -7.242188 12.28125 -7.265625 C 12.320312 -8.503906 12.34375 -9.707031 12.34375 -10.875 C 12.34375 -11.988281 12.316406 -12.648438 12.265625 -12.859375 C 12.234375 -12.972656 12.179688 -13.050781 12.109375 -13.09375 C 12.066406 -13.113281 11.695312 -13.171875 11 -13.265625 C 10.875 -13.285156 10.757812 -13.304688 10.65625 -13.328125 C 10.625 -13.429688 10.609375 -13.550781 10.609375 -13.6875 C 10.847656 -13.726562 11 -13.75 11.0625 -13.75 L 11.765625 -13.703125 C 12.421875 -13.660156 13.078125 -13.640625 13.734375 -13.640625 C 14.148438 -13.640625 14.847656 -13.675781 15.828125 -13.75 C 15.828125 -13.613281 15.8125 -13.488281 15.78125 -13.375 C 15.507812 -13.257812 15.179688 -13.191406 14.796875 -13.171875 C 14.554688 -13.148438 14.351562 -13.109375 14.1875 -13.046875 C 14.050781 -12.941406 13.984375 -12.738281 13.984375 -12.4375 C 13.984375 -12.363281 13.988281 -12.285156 14 -12.203125 C 14.007812 -11.941406 14.015625 -11.773438 14.015625 -11.703125 L 14.015625 -9.6875 L 14 -8.703125 L 14.015625 -6.828125 L 13.984375 -5.078125 C 13.984375 -4.722656 13.992188 -4.175781 14.015625 -3.4375 L 14.015625 -2 C 14.015625 -1.507812 14.054688 -1.160156 14.140625 -0.953125 C 14.179688 -0.847656 14.253906 -0.773438 14.359375 -0.734375 L 15.21875 -0.546875 C 15.644531 -0.441406 15.898438 -0.351562 15.984375 -0.28125 C 16.066406 -0.21875 16.109375 -0.140625 16.109375 -0.046875 L 16.078125 0.078125 L 16.03125 0.09375 C 15.988281 0.09375 15.941406 0.0859375 15.890625 0.078125 C 15.109375 -0.0664062 14.289062 -0.140625 13.4375 -0.140625 C 12.757812 -0.140625 12.28125 -0.128906 12 -0.109375 C 11.71875 -0.0859375 11.128906 -0.0078125 10.234375 0.125 C 10.222656 0.03125 10.21875 -0.0351562 10.21875 -0.078125 C 10.21875 -0.128906 10.222656 -0.195312 10.234375 -0.28125 C 10.460938 -0.40625 10.816406 -0.492188 11.296875 -0.546875 C 11.648438 -0.578125 11.929688 -0.691406 12.140625 -0.890625 C 12.273438 -1.015625 12.34375 -1.203125 12.34375 -1.453125 L 12.328125 -3 C 12.347656 -3.46875 12.359375 -3.722656 12.359375 -3.765625 C 12.359375 -4.367188 12.347656 -5.253906 12.328125 -6.421875 C 12.304688 -6.515625 12.269531 -6.570312 12.21875 -6.59375 C 12.019531 -6.65625 11.066406 -6.644531 9.359375 -6.5625 C 9.015625 -6.53125 8.757812 -6.515625 8.59375 -6.515625 C 8.414062 -6.515625 8.050781 -6.523438 7.5 -6.546875 C 6.957031 -6.566406 6.457031 -6.578125 6 -6.578125 C 5.75 -6.578125 5.535156 -6.570312 5.359375 -6.5625 C 5.035156 -6.5625 4.851562 -6.5625 4.8125 -6.5625 C 4.65625 -6.5625 4.546875 -6.523438 4.484375 -6.453125 C 4.421875 -6.390625 4.390625 -6.273438 4.390625 -6.109375 L 4.40625 -5.359375 C 4.40625 -5.234375 4.382812 -4.554688 4.34375 -3.328125 C 4.34375 -3.078125 4.34375 -2.867188 4.34375 -2.703125 C 4.34375 -1.734375 4.378906 -1.085938 4.453125 -0.765625 C 4.484375 -0.609375 4.546875 -0.503906 4.640625 -0.453125 C 4.703125 -0.410156 4.976562 -0.332031 5.46875 -0.21875 C 5.800781 -0.15625 6.050781 -0.0859375 6.21875 -0.015625 L 6.28125 0.078125 C 6.28125 0.117188 6.269531 0.148438 6.25 0.171875 C 6.207031 0.203125 6.144531 0.21875 6.0625 0.21875 C 6.007812 0.21875 5.941406 0.21875 5.859375 0.21875 C 5.773438 0.21875 5.625 0.210938 5.40625 0.203125 C 5.039062 0.191406 4.582031 0.164062 4.03125 0.125 C 3.6875 0.09375 3.378906 0.078125 3.109375 0.078125 C 2.648438 0.078125 1.914062 0.101562 0.90625 0.15625 C 0.71875 0.15625 0.554688 0.15625 0.421875 0.15625 Z M 0.421875 0.15625 "/></g></g></g><g fill="#6d452b" fill-opacity="1"><g transform="translate(477.852941, 93.299494)"><g><path d="M 1.828125 -10.796875 L 1.484375 -10.984375 C 1.929688 -12.078125 2.460938 -12.847656 3.078125 -13.296875 C 3.703125 -13.742188 4.429688 -13.96875 5.265625 -13.96875 C 6.035156 -13.96875 6.648438 -13.796875 7.109375 -13.453125 C 7.804688 -12.941406 8.15625 -12.363281 8.15625 -11.71875 C 8.15625 -11.195312 7.976562 -10.671875 7.625 -10.140625 C 7.269531 -9.609375 6.648438 -9.015625 5.765625 -8.359375 L 6.015625 -8.375 C 6.578125 -8.375 7.113281 -8.234375 7.625 -7.953125 C 8.144531 -7.671875 8.554688 -7.226562 8.859375 -6.625 C 9.160156 -6.03125 9.3125 -5.394531 9.3125 -4.71875 C 9.3125 -3.332031 8.804688 -2.148438 7.796875 -1.171875 C 6.785156 -0.191406 5.5 0.296875 3.9375 0.296875 C 2.75 0.296875 1.875 0.125 1.3125 -0.21875 C 1 -0.394531 0.84375 -0.617188 0.84375 -0.890625 C 0.84375 -1.035156 0.90625 -1.171875 1.03125 -1.296875 C 1.15625 -1.421875 1.3125 -1.484375 1.5 -1.484375 C 1.738281 -1.484375 2.023438 -1.351562 2.359375 -1.09375 C 3.148438 -0.488281 3.835938 -0.1875 4.421875 -0.1875 C 5.304688 -0.1875 6.09375 -0.554688 6.78125 -1.296875 C 7.46875 -2.046875 7.8125 -2.988281 7.8125 -4.125 C 7.8125 -5.0625 7.578125 -5.832031 7.109375 -6.4375 C 6.648438 -7.039062 6.066406 -7.34375 5.359375 -7.34375 C 4.835938 -7.34375 4.289062 -7.09375 3.71875 -6.59375 L 3.453125 -7.03125 C 3.816406 -7.332031 4.140625 -7.59375 4.421875 -7.8125 C 5.296875 -8.445312 5.945312 -9.070312 6.375 -9.6875 C 6.675781 -10.125 6.828125 -10.507812 6.828125 -10.84375 C 6.828125 -11.414062 6.628906 -11.894531 6.234375 -12.28125 C 5.835938 -12.664062 5.3125 -12.859375 4.65625 -12.859375 C 3.582031 -12.859375 2.640625 -12.171875 1.828125 -10.796875 Z M 1.828125 -10.796875 "/></g></g></g><g fill="#6d452b" fill-opacity="1"><g transform="translate(494.124017, 93.299494)"><g><path d="M 9.59375 -6.765625 C 9.59375 -6.023438 9.539062 -5.367188 9.4375 -4.796875 C 9.238281 -3.816406 8.96875 -2.992188 8.625 -2.328125 C 8.289062 -1.660156 7.882812 -1.097656 7.40625 -0.640625 C 7.0625 -0.304688 6.695312 -0.0625 6.3125 0.09375 C 5.925781 0.25 5.535156 0.328125 5.140625 0.328125 C 4.429688 0.328125 3.757812 0.09375 3.125 -0.375 C 2.5 -0.851562 1.945312 -1.632812 1.46875 -2.71875 C 1 -3.800781 0.765625 -5.082031 0.765625 -6.5625 C 0.765625 -7.707031 0.90625 -8.804688 1.1875 -9.859375 C 1.476562 -10.921875 1.859375 -11.742188 2.328125 -12.328125 C 2.796875 -12.910156 3.257812 -13.328125 3.71875 -13.578125 C 4.175781 -13.835938 4.679688 -13.96875 5.234375 -13.96875 C 5.992188 -13.96875 6.734375 -13.664062 7.453125 -13.0625 C 8.171875 -12.46875 8.742188 -11.535156 9.171875 -10.265625 C 9.453125 -9.421875 9.59375 -8.253906 9.59375 -6.765625 Z M 7.984375 -7.109375 C 7.984375 -8.867188 7.921875 -10.0625 7.796875 -10.6875 C 7.597656 -11.726562 7.269531 -12.453125 6.8125 -12.859375 C 6.363281 -13.273438 5.835938 -13.484375 5.234375 -13.484375 C 4.722656 -13.484375 4.238281 -13.316406 3.78125 -12.984375 C 3.332031 -12.660156 3.019531 -12.148438 2.84375 -11.453125 C 2.550781 -10.316406 2.40625 -8.59375 2.40625 -6.28125 C 2.40625 -4 2.628906 -2.398438 3.078125 -1.484375 C 3.535156 -0.578125 4.21875 -0.125 5.125 -0.125 C 5.75 -0.125 6.285156 -0.316406 6.734375 -0.703125 C 7.191406 -1.085938 7.519531 -1.800781 7.71875 -2.84375 C 7.914062 -3.894531 8.007812 -5.070312 8 -6.375 Z M 7.984375 -7.109375 "/></g></g></g><g fill="#6d452b" fill-opacity="1"><g transform="translate(239.81149, 27.416772)"><g><path d="M -1.46875 3.90625 C -1.332031 3.8125 -1.210938 3.765625 -1.109375 3.765625 C -0.773438 3.765625 -0.398438 3.957031 0.015625 4.34375 C 0.0859375 4.40625 0.144531 4.445312 0.1875 4.46875 L 0.234375 4.53125 C 0.410156 4.675781 0.585938 4.75 0.765625 4.75 C 1.046875 4.75 1.320312 4.65625 1.59375 4.46875 C 1.863281 4.28125 2.082031 4.019531 2.25 3.6875 C 2.46875 3.226562 2.628906 2.710938 2.734375 2.140625 C 2.835938 1.566406 2.890625 0.875 2.890625 0.0625 L 2.875 -1.609375 L 2.890625 -2.765625 C 2.890625 -3.535156 2.863281 -4.734375 2.8125 -6.359375 L 2.75 -10.375 L 2.765625 -12.453125 C 2.765625 -12.640625 2.726562 -12.800781 2.65625 -12.9375 C 2.613281 -13.007812 2.535156 -13.070312 2.421875 -13.125 C 2.316406 -13.1875 2.160156 -13.21875 1.953125 -13.21875 L 1.15625 -13.28125 C 0.90625 -13.28125 0.734375 -13.304688 0.640625 -13.359375 C 0.609375 -13.460938 0.59375 -13.539062 0.59375 -13.59375 L 0.609375 -13.734375 C 0.765625 -13.734375 0.957031 -13.722656 1.1875 -13.703125 C 1.632812 -13.679688 2.066406 -13.671875 2.484375 -13.671875 C 2.691406 -13.671875 2.957031 -13.675781 3.28125 -13.6875 C 3.53125 -13.695312 3.707031 -13.703125 3.8125 -13.703125 L 5.390625 -13.703125 C 5.609375 -13.703125 5.847656 -13.691406 6.109375 -13.671875 C 6.109375 -13.503906 6.101562 -13.378906 6.09375 -13.296875 C 5.46875 -13.265625 5.070312 -13.21875 4.90625 -13.15625 C 4.75 -13.101562 4.628906 -13.023438 4.546875 -12.921875 C 4.492188 -12.859375 4.46875 -12.734375 4.46875 -12.546875 L 4.4375 -11.4375 L 4.4375 -11.15625 C 4.457031 -11.03125 4.46875 -10.785156 4.46875 -10.421875 L 4.46875 -10 C 4.46875 -9.75 4.46875 -9.523438 4.46875 -9.328125 C 4.488281 -9.046875 4.5 -8.875 4.5 -8.8125 C 4.5 -8.75 4.488281 -8.582031 4.46875 -8.3125 C 4.46875 -8.226562 4.46875 -8.160156 4.46875 -8.109375 L 4.59375 -5.125 L 4.578125 -3.203125 L 4.578125 -1.953125 C 4.578125 -1.234375 4.441406 -0.234375 4.171875 1.046875 C 3.960938 1.972656 3.597656 2.816406 3.078125 3.578125 C 2.554688 4.335938 2.039062 4.859375 1.53125 5.140625 C 1.019531 5.421875 0.34375 5.5625 -0.5 5.5625 C -0.945312 5.5625 -1.304688 5.453125 -1.578125 5.234375 C -1.765625 5.085938 -1.859375 4.890625 -1.859375 4.640625 C -1.859375 4.335938 -1.726562 4.09375 -1.46875 3.90625 Z M -1.46875 3.90625 "/></g></g></g><g fill="#6d452b" fill-opacity="1"><g transform="translate(254.855672, 27.416772)"><g><path d="M 6.265625 -13.78125 C 6.304688 -13.65625 6.328125 -13.5625 6.328125 -13.5 C 6.328125 -13.457031 6.316406 -13.394531 6.296875 -13.3125 C 6.109375 -13.257812 5.957031 -13.234375 5.84375 -13.234375 C 5.789062 -13.234375 5.703125 -13.238281 5.578125 -13.25 C 5.460938 -13.257812 5.367188 -13.265625 5.296875 -13.265625 C 4.972656 -13.265625 4.710938 -13.203125 4.515625 -13.078125 C 4.390625 -12.992188 4.3125 -12.890625 4.28125 -12.765625 L 4.171875 -11.546875 L 4.203125 -6.21875 C 4.210938 -4.28125 4.273438 -3.070312 4.390625 -2.59375 C 4.515625 -2.113281 4.71875 -1.71875 5 -1.40625 C 5.289062 -1.101562 5.722656 -0.851562 6.296875 -0.65625 C 6.878906 -0.457031 7.441406 -0.359375 7.984375 -0.359375 C 9.203125 -0.359375 10.132812 -0.53125 10.78125 -0.875 C 11.425781 -1.226562 11.890625 -1.710938 12.171875 -2.328125 C 12.460938 -2.953125 12.609375 -3.894531 12.609375 -5.15625 C 12.609375 -5.1875 12.59375 -5.472656 12.5625 -6.015625 L 12.5625 -6.328125 C 12.5625 -6.441406 12.566406 -6.664062 12.578125 -7 C 12.597656 -7.332031 12.609375 -7.523438 12.609375 -7.578125 L 12.453125 -10.65625 C 12.398438 -11.695312 12.335938 -12.3125 12.265625 -12.5 C 12.203125 -12.6875 12.109375 -12.820312 11.984375 -12.90625 C 11.703125 -13.113281 11.171875 -13.296875 10.390625 -13.453125 C 10.359375 -13.546875 10.335938 -13.648438 10.328125 -13.765625 C 10.609375 -13.785156 10.882812 -13.796875 11.15625 -13.796875 C 11.4375 -13.796875 11.738281 -13.785156 12.0625 -13.765625 C 12.53125 -13.734375 12.785156 -13.71875 12.828125 -13.71875 L 14.53125 -13.765625 L 14.859375 -13.765625 L 14.84375 -13.375 C 13.96875 -13.257812 13.441406 -13.125 13.265625 -12.96875 C 13.097656 -12.8125 13.015625 -12.53125 13.015625 -12.125 C 13.015625 -11.894531 13.023438 -11.410156 13.046875 -10.671875 L 13.125 -8.453125 L 13.125 -7.5625 L 13.15625 -6.453125 C 13.15625 -5.046875 13.113281 -4.085938 13.03125 -3.578125 C 12.914062 -2.867188 12.753906 -2.304688 12.546875 -1.890625 C 12.335938 -1.484375 12.03125 -1.113281 11.625 -0.78125 C 11.226562 -0.445312 10.691406 -0.175781 10.015625 0.03125 C 9.347656 0.25 8.691406 0.359375 8.046875 0.359375 C 7.015625 0.359375 6.273438 0.289062 5.828125 0.15625 C 5.003906 -0.09375 4.347656 -0.414062 3.859375 -0.8125 C 3.378906 -1.21875 3.046875 -1.625 2.859375 -2.03125 C 2.609375 -2.5625 2.484375 -3.332031 2.484375 -4.34375 L 2.484375 -5.09375 L 2.453125 -8.09375 L 2.484375 -10.515625 L 2.484375 -12.15625 C 2.484375 -12.570312 2.425781 -12.859375 2.3125 -13.015625 C 2.226562 -13.128906 2.113281 -13.1875 1.96875 -13.1875 L 1.328125 -13.1875 C 0.859375 -13.1875 0.554688 -13.234375 0.421875 -13.328125 C 0.398438 -13.390625 0.390625 -13.445312 0.390625 -13.5 C 0.390625 -13.5625 0.414062 -13.613281 0.46875 -13.65625 C 0.539062 -13.707031 0.632812 -13.734375 0.75 -13.734375 L 1.03125 -13.734375 L 1.75 -13.75 L 3.453125 -13.75 Z M 6.265625 -13.78125 "/></g></g></g><g fill="#6d452b" fill-opacity="1"><g transform="translate(278.138493, 27.416772)"><g><path d="M 0.125 0.0625 C 0.125 -0.0390625 0.148438 -0.132812 0.203125 -0.21875 C 0.765625 -0.375 1.304688 -0.476562 1.828125 -0.53125 C 2.179688 -0.550781 2.410156 -0.628906 2.515625 -0.765625 C 2.585938 -0.859375 2.628906 -1.203125 2.640625 -1.796875 L 2.71875 -4.625 L 2.703125 -6.546875 L 2.71875 -9.0625 L 2.71875 -9.71875 C 2.726562 -11.226562 2.71875 -12.171875 2.6875 -12.546875 C 2.6875 -12.617188 2.660156 -12.71875 2.609375 -12.84375 C 2.421875 -12.9375 2.265625 -12.992188 2.140625 -13.015625 C 2.015625 -13.046875 1.457031 -13.148438 0.46875 -13.328125 C 0.457031 -13.410156 0.453125 -13.46875 0.453125 -13.5 C 0.453125 -13.539062 0.457031 -13.597656 0.46875 -13.671875 C 0.601562 -13.671875 0.820312 -13.664062 1.125 -13.65625 L 2.765625 -13.59375 L 3.703125 -13.578125 L 3.984375 -13.59375 C 4.015625 -13.59375 4.117188 -13.582031 4.296875 -13.5625 C 4.710938 -13.5625 4.957031 -13.566406 5.03125 -13.578125 L 5.875 -13.640625 C 6.457031 -13.640625 6.867188 -13.628906 7.109375 -13.609375 C 7.097656 -13.484375 7.070312 -13.34375 7.03125 -13.1875 C 6.945312 -13.175781 6.570312 -13.15625 5.90625 -13.125 C 5.25 -13.101562 4.867188 -13.066406 4.765625 -13.015625 C 4.597656 -12.921875 4.515625 -12.632812 4.515625 -12.15625 C 4.515625 -12.039062 4.507812 -11.804688 4.5 -11.453125 L 4.5 -10.8125 L 4.515625 -8.828125 L 4.515625 -8.140625 L 4.53125 -4.59375 L 4.5 -1.5625 L 4.515625 -0.90625 C 4.515625 -0.6875 4.546875 -0.550781 4.609375 -0.5 C 4.796875 -0.5 5.320312 -0.492188 6.1875 -0.484375 L 6.921875 -0.484375 L 8.78125 -0.546875 C 9.269531 -0.554688 9.617188 -0.601562 9.828125 -0.6875 C 10.035156 -0.769531 10.378906 -1.015625 10.859375 -1.421875 C 11.148438 -1.671875 11.378906 -1.9375 11.546875 -2.21875 C 11.585938 -2.269531 11.648438 -2.351562 11.734375 -2.46875 C 11.867188 -2.65625 12.050781 -3.023438 12.28125 -3.578125 L 12.640625 -3.578125 C 12.585938 -3.328125 12.539062 -3.085938 12.5 -2.859375 C 12.289062 -1.847656 12.144531 -1.003906 12.0625 -0.328125 C 12.050781 -0.191406 12.035156 -0.0625 12.015625 0.0625 L 8.015625 -0.046875 C 4.554688 -0.046875 2.507812 -0.015625 1.875 0.046875 C 1.664062 0.0546875 1.453125 0.0625 1.234375 0.0625 Z M 0.125 0.0625 "/></g></g></g><g fill="#6d452b" fill-opacity="1"><g transform="translate(298.439099, 27.416772)"><g><path d="M 0.421875 0.15625 L 0.421875 -0.078125 C 0.671875 -0.210938 0.957031 -0.296875 1.28125 -0.328125 C 1.789062 -0.390625 2.113281 -0.457031 2.25 -0.53125 C 2.382812 -0.601562 2.476562 -0.695312 2.53125 -0.8125 C 2.632812 -1.050781 2.6875 -1.289062 2.6875 -1.53125 L 2.65625 -2.34375 L 2.671875 -3.109375 L 2.65625 -3.984375 C 2.65625 -4.347656 2.664062 -4.800781 2.6875 -5.34375 C 2.707031 -5.894531 2.71875 -6.1875 2.71875 -6.21875 L 2.71875 -9.15625 C 2.71875 -9.625 2.726562 -10.125 2.75 -10.65625 C 2.769531 -11.195312 2.78125 -11.570312 2.78125 -11.78125 C 2.78125 -12.394531 2.765625 -12.753906 2.734375 -12.859375 C 2.703125 -12.960938 2.644531 -13.035156 2.5625 -13.078125 C 2.488281 -13.117188 2.234375 -13.15625 1.796875 -13.1875 C 1.460938 -13.21875 1.234375 -13.242188 1.109375 -13.265625 C 1.066406 -13.347656 1.046875 -13.414062 1.046875 -13.46875 C 1.046875 -13.519531 1.050781 -13.585938 1.0625 -13.671875 C 1.238281 -13.679688 1.367188 -13.6875 1.453125 -13.6875 L 2.46875 -13.671875 C 3.1875 -13.671875 3.945312 -13.703125 4.75 -13.765625 C 5.132812 -13.785156 5.726562 -13.8125 6.53125 -13.84375 C 6.539062 -13.769531 6.546875 -13.707031 6.546875 -13.65625 C 6.546875 -13.582031 6.53125 -13.523438 6.5 -13.484375 C 6.46875 -13.441406 6.410156 -13.414062 6.328125 -13.40625 C 5.390625 -13.332031 4.835938 -13.21875 4.671875 -13.0625 C 4.503906 -12.90625 4.421875 -12.515625 4.421875 -11.890625 C 4.421875 -10.722656 4.4375 -9.523438 4.46875 -8.296875 L 4.515625 -7.28125 C 4.554688 -7.257812 5.023438 -7.226562 5.921875 -7.1875 C 6.160156 -7.164062 6.300781 -7.15625 6.34375 -7.15625 L 7.921875 -7.1875 L 8.96875 -7.15625 L 11.6875 -7.234375 C 12.019531 -7.242188 12.222656 -7.257812 12.296875 -7.28125 C 12.335938 -8.519531 12.359375 -9.722656 12.359375 -10.890625 C 12.359375 -12.015625 12.335938 -12.675781 12.296875 -12.875 C 12.265625 -13 12.210938 -13.082031 12.140625 -13.125 C 12.097656 -13.144531 11.726562 -13.203125 11.03125 -13.296875 C 10.90625 -13.316406 10.789062 -13.335938 10.6875 -13.359375 C 10.644531 -13.460938 10.625 -13.582031 10.625 -13.71875 C 10.875 -13.75 11.03125 -13.765625 11.09375 -13.765625 L 11.796875 -13.734375 C 12.453125 -13.691406 13.109375 -13.671875 13.765625 -13.671875 C 14.179688 -13.671875 14.878906 -13.707031 15.859375 -13.78125 C 15.859375 -13.632812 15.84375 -13.503906 15.8125 -13.390625 C 15.539062 -13.285156 15.210938 -13.21875 14.828125 -13.1875 C 14.585938 -13.175781 14.382812 -13.140625 14.21875 -13.078125 C 14.082031 -12.972656 14.015625 -12.769531 14.015625 -12.46875 C 14.015625 -12.394531 14.019531 -12.316406 14.03125 -12.234375 C 14.039062 -11.972656 14.046875 -11.800781 14.046875 -11.71875 L 14.046875 -9.71875 L 14.03125 -8.71875 L 14.046875 -6.84375 L 14.015625 -5.09375 C 14.015625 -4.738281 14.023438 -4.191406 14.046875 -3.453125 L 14.046875 -2 C 14.046875 -1.507812 14.085938 -1.160156 14.171875 -0.953125 C 14.210938 -0.859375 14.285156 -0.785156 14.390625 -0.734375 L 15.25 -0.546875 C 15.675781 -0.441406 15.929688 -0.351562 16.015625 -0.28125 C 16.097656 -0.21875 16.140625 -0.140625 16.140625 -0.046875 L 16.109375 0.078125 L 16.0625 0.09375 C 16.019531 0.09375 15.972656 0.0859375 15.921875 0.078125 C 15.140625 -0.0664062 14.320312 -0.140625 13.46875 -0.140625 C 12.789062 -0.140625 12.3125 -0.128906 12.03125 -0.109375 C 11.75 -0.0859375 11.160156 -0.0078125 10.265625 0.125 C 10.242188 0.03125 10.234375 -0.0351562 10.234375 -0.078125 C 10.234375 -0.128906 10.242188 -0.195312 10.265625 -0.28125 C 10.484375 -0.40625 10.832031 -0.492188 11.3125 -0.546875 C 11.664062 -0.578125 11.945312 -0.691406 12.15625 -0.890625 C 12.289062 -1.015625 12.359375 -1.203125 12.359375 -1.453125 L 12.359375 -3 C 12.378906 -3.46875 12.390625 -3.722656 12.390625 -3.765625 C 12.390625 -4.378906 12.378906 -5.269531 12.359375 -6.4375 C 12.335938 -6.53125 12.296875 -6.585938 12.234375 -6.609375 C 12.046875 -6.671875 11.09375 -6.65625 9.375 -6.5625 C 9.03125 -6.539062 8.773438 -6.53125 8.609375 -6.53125 C 8.429688 -6.53125 8.066406 -6.539062 7.515625 -6.5625 C 6.972656 -6.582031 6.472656 -6.59375 6.015625 -6.59375 C 5.765625 -6.59375 5.550781 -6.585938 5.375 -6.578125 C 5.050781 -6.566406 4.867188 -6.5625 4.828125 -6.5625 C 4.660156 -6.5625 4.546875 -6.53125 4.484375 -6.46875 C 4.429688 -6.40625 4.40625 -6.289062 4.40625 -6.125 L 4.40625 -5.375 C 4.40625 -5.25 4.390625 -4.570312 4.359375 -3.34375 C 4.347656 -3.09375 4.34375 -2.882812 4.34375 -2.71875 C 4.34375 -1.738281 4.378906 -1.085938 4.453125 -0.765625 C 4.492188 -0.609375 4.554688 -0.503906 4.640625 -0.453125 C 4.710938 -0.410156 4.992188 -0.332031 5.484375 -0.21875 C 5.816406 -0.15625 6.066406 -0.0859375 6.234375 -0.015625 L 6.296875 0.078125 C 6.296875 0.117188 6.285156 0.148438 6.265625 0.171875 C 6.210938 0.203125 6.148438 0.21875 6.078125 0.21875 C 6.015625 0.21875 5.941406 0.21875 5.859375 0.21875 C 5.785156 0.21875 5.632812 0.210938 5.40625 0.203125 C 5.039062 0.191406 4.585938 0.164062 4.046875 0.125 C 3.691406 0.09375 3.378906 0.078125 3.109375 0.078125 C 2.648438 0.078125 1.914062 0.101562 0.90625 0.15625 C 0.71875 0.15625 0.554688 0.15625 0.421875 0.15625 Z M 0.421875 0.15625 "/></g></g></g><g fill="#6d452b" fill-opacity="1"><g transform="translate(322.859025, 27.416772)"><g><path d="M 1.015625 -6.859375 C 1.015625 -7.585938 1.097656 -8.234375 1.265625 -8.796875 C 1.441406 -9.367188 1.738281 -9.988281 2.15625 -10.65625 C 2.570312 -11.320312 3.070312 -11.878906 3.65625 -12.328125 C 4.25 -12.773438 5.0625 -13.171875 6.09375 -13.515625 C 6.820312 -13.753906 7.742188 -13.875 8.859375 -13.875 C 9.617188 -13.875 10.359375 -13.769531 11.078125 -13.5625 C 11.796875 -13.363281 12.445312 -13.082031 13.03125 -12.71875 C 13.613281 -12.363281 14.203125 -11.816406 14.796875 -11.078125 C 15.203125 -10.566406 15.507812 -10.015625 15.71875 -9.421875 C 15.988281 -8.640625 16.125 -7.832031 16.125 -7 C 16.125 -6.050781 16.03125 -5.265625 15.84375 -4.640625 C 15.664062 -4.023438 15.363281 -3.410156 14.9375 -2.796875 C 14.59375 -2.328125 14.015625 -1.785156 13.203125 -1.171875 C 12.660156 -0.753906 11.984375 -0.414062 11.171875 -0.15625 C 10.367188 0.09375 9.5 0.21875 8.5625 0.21875 C 7.601562 0.21875 6.75 0.109375 6 -0.109375 C 5.257812 -0.335938 4.640625 -0.609375 4.140625 -0.921875 C 3.648438 -1.242188 3.140625 -1.71875 2.609375 -2.34375 C 2.085938 -2.96875 1.691406 -3.65625 1.421875 -4.40625 C 1.148438 -5.15625 1.015625 -5.972656 1.015625 -6.859375 Z M 8.453125 -0.1875 C 9.054688 -0.1875 9.679688 -0.269531 10.328125 -0.4375 C 10.972656 -0.601562 11.546875 -0.878906 12.046875 -1.265625 C 12.554688 -1.660156 12.953125 -2.101562 13.234375 -2.59375 C 13.515625 -3.09375 13.738281 -3.734375 13.90625 -4.515625 C 14.082031 -5.296875 14.171875 -6.078125 14.171875 -6.859375 C 14.171875 -7.828125 14.023438 -8.789062 13.734375 -9.75 C 13.515625 -10.46875 13.15625 -11.109375 12.65625 -11.671875 C 12.15625 -12.242188 11.550781 -12.6875 10.84375 -13 C 10.132812 -13.3125 9.378906 -13.46875 8.578125 -13.46875 C 7.921875 -13.46875 7.28125 -13.359375 6.65625 -13.140625 C 6.039062 -12.929688 5.53125 -12.660156 5.125 -12.328125 C 4.726562 -11.992188 4.359375 -11.519531 4.015625 -10.90625 C 3.671875 -10.300781 3.410156 -9.628906 3.234375 -8.890625 C 3.054688 -8.148438 2.96875 -7.5 2.96875 -6.9375 C 2.96875 -6.34375 3.054688 -5.671875 3.234375 -4.921875 C 3.410156 -4.171875 3.65625 -3.519531 3.96875 -2.96875 C 4.28125 -2.414062 4.660156 -1.925781 5.109375 -1.5 C 5.566406 -1.070312 6.078125 -0.742188 6.640625 -0.515625 C 7.210938 -0.296875 7.816406 -0.1875 8.453125 -0.1875 Z M 8.453125 -0.1875 "/></g></g></g><g fill="#6d452b" fill-opacity="1"><g transform="translate(257.799467, 162.6212)"><g><path d="M 9.34375 -0.015625 C 8.28125 -0.0546875 6.847656 -0.078125 5.046875 -0.078125 L 2.71875 -0.015625 L 1.6875 -0.046875 L 0.859375 -0.015625 C 0.773438 -0.0234375 0.648438 -0.046875 0.484375 -0.078125 C 0.609375 -0.378906 0.769531 -0.65625 0.96875 -0.90625 C 1.5625 -1.632812 2.429688 -2.570312 3.578125 -3.71875 C 5.179688 -5.320312 6.234375 -6.582031 6.734375 -7.5 C 7.242188 -8.414062 7.5 -9.28125 7.5 -10.09375 C 7.5 -10.84375 7.238281 -11.472656 6.71875 -11.984375 C 6.207031 -12.503906 5.578125 -12.765625 4.828125 -12.765625 C 4.378906 -12.765625 3.941406 -12.660156 3.515625 -12.453125 C 3.097656 -12.242188 2.757812 -11.976562 2.5 -11.65625 C 2.34375 -11.445312 2.128906 -11.03125 1.859375 -10.40625 C 1.703125 -10.0625 1.609375 -9.878906 1.578125 -9.859375 C 1.535156 -9.804688 1.488281 -9.78125 1.4375 -9.78125 C 1.375 -9.78125 1.316406 -9.8125 1.265625 -9.875 C 1.210938 -9.9375 1.1875 -10.007812 1.1875 -10.09375 C 1.1875 -10.414062 1.347656 -10.929688 1.671875 -11.640625 C 1.992188 -12.347656 2.472656 -12.898438 3.109375 -13.296875 C 3.742188 -13.703125 4.476562 -13.90625 5.3125 -13.90625 C 6.40625 -13.90625 7.316406 -13.546875 8.046875 -12.828125 C 8.773438 -12.117188 9.140625 -11.273438 9.140625 -10.296875 C 9.140625 -9.515625 8.890625 -8.722656 8.390625 -7.921875 C 7.890625 -7.117188 6.742188 -5.890625 4.953125 -4.234375 C 4.359375 -3.691406 3.9375 -3.289062 3.6875 -3.03125 C 3.4375 -2.769531 2.929688 -2.210938 2.171875 -1.359375 C 3.265625 -1.316406 4.257812 -1.296875 5.15625 -1.296875 C 5.34375 -1.296875 5.550781 -1.300781 5.78125 -1.3125 C 6.207031 -1.332031 6.453125 -1.34375 6.515625 -1.34375 L 8.015625 -1.3125 C 8.179688 -1.3125 8.347656 -1.390625 8.515625 -1.546875 C 8.679688 -1.703125 8.914062 -2.144531 9.21875 -2.875 L 9.46875 -2.875 C 9.5 -2.875 9.550781 -2.875 9.625 -2.875 C 9.664062 -2.800781 9.6875 -2.742188 9.6875 -2.703125 L 9.65625 -2.625 C 9.601562 -2.414062 9.554688 -2.035156 9.515625 -1.484375 C 9.484375 -1.160156 9.425781 -0.671875 9.34375 -0.015625 Z M 9.34375 -0.015625 "/></g></g></g><g fill="#6d452b" fill-opacity="1"><g transform="translate(275.781745, 162.6212)"><g><path d="M 9.59375 -6.765625 C 9.59375 -6.023438 9.539062 -5.367188 9.4375 -4.796875 C 9.238281 -3.816406 8.96875 -2.992188 8.625 -2.328125 C 8.289062 -1.660156 7.882812 -1.097656 7.40625 -0.640625 C 7.0625 -0.304688 6.695312 -0.0625 6.3125 0.09375 C 5.925781 0.25 5.535156 0.328125 5.140625 0.328125 C 4.429688 0.328125 3.757812 0.09375 3.125 -0.375 C 2.5 -0.851562 1.945312 -1.632812 1.46875 -2.71875 C 1 -3.800781 0.765625 -5.082031 0.765625 -6.5625 C 0.765625 -7.707031 0.90625 -8.804688 1.1875 -9.859375 C 1.476562 -10.921875 1.859375 -11.742188 2.328125 -12.328125 C 2.796875 -12.910156 3.257812 -13.328125 3.71875 -13.578125 C 4.175781 -13.835938 4.679688 -13.96875 5.234375 -13.96875 C 5.992188 -13.96875 6.734375 -13.664062 7.453125 -13.0625 C 8.171875 -12.46875 8.742188 -11.535156 9.171875 -10.265625 C 9.453125 -9.421875 9.59375 -8.253906 9.59375 -6.765625 Z M 7.984375 -7.109375 C 7.984375 -8.867188 7.921875 -10.0625 7.796875 -10.6875 C 7.597656 -11.726562 7.269531 -12.453125 6.8125 -12.859375 C 6.363281 -13.273438 5.835938 -13.484375 5.234375 -13.484375 C 4.722656 -13.484375 4.238281 -13.316406 3.78125 -12.984375 C 3.332031 -12.660156 3.019531 -12.148438 2.84375 -11.453125 C 2.550781 -10.316406 2.40625 -8.59375 2.40625 -6.28125 C 2.40625 -4 2.628906 -2.398438 3.078125 -1.484375 C 3.535156 -0.578125 4.21875 -0.125 5.125 -0.125 C 5.75 -0.125 6.285156 -0.316406 6.734375 -0.703125 C 7.191406 -1.085938 7.519531 -1.800781 7.71875 -2.84375 C 7.914062 -3.894531 8.007812 -5.070312 8 -6.375 Z M 7.984375 -7.109375 "/></g></g></g><g fill="#6d452b" fill-opacity="1"><g transform="translate(293.764023, 162.6212)"><g><path d="M 9.34375 -0.015625 C 8.28125 -0.0546875 6.847656 -0.078125 5.046875 -0.078125 L 2.71875 -0.015625 L 1.6875 -0.046875 L 0.859375 -0.015625 C 0.773438 -0.0234375 0.648438 -0.046875 0.484375 -0.078125 C 0.609375 -0.378906 0.769531 -0.65625 0.96875 -0.90625 C 1.5625 -1.632812 2.429688 -2.570312 3.578125 -3.71875 C 5.179688 -5.320312 6.234375 -6.582031 6.734375 -7.5 C 7.242188 -8.414062 7.5 -9.28125 7.5 -10.09375 C 7.5 -10.84375 7.238281 -11.472656 6.71875 -11.984375 C 6.207031 -12.503906 5.578125 -12.765625 4.828125 -12.765625 C 4.378906 -12.765625 3.941406 -12.660156 3.515625 -12.453125 C 3.097656 -12.242188 2.757812 -11.976562 2.5 -11.65625 C 2.34375 -11.445312 2.128906 -11.03125 1.859375 -10.40625 C 1.703125 -10.0625 1.609375 -9.878906 1.578125 -9.859375 C 1.535156 -9.804688 1.488281 -9.78125 1.4375 -9.78125 C 1.375 -9.78125 1.316406 -9.8125 1.265625 -9.875 C 1.210938 -9.9375 1.1875 -10.007812 1.1875 -10.09375 C 1.1875 -10.414062 1.347656 -10.929688 1.671875 -11.640625 C 1.992188 -12.347656 2.472656 -12.898438 3.109375 -13.296875 C 3.742188 -13.703125 4.476562 -13.90625 5.3125 -13.90625 C 6.40625 -13.90625 7.316406 -13.546875 8.046875 -12.828125 C 8.773438 -12.117188 9.140625 -11.273438 9.140625 -10.296875 C 9.140625 -9.515625 8.890625 -8.722656 8.390625 -7.921875 C 7.890625 -7.117188 6.742188 -5.890625 4.953125 -4.234375 C 4.359375 -3.691406 3.9375 -3.289062 3.6875 -3.03125 C 3.4375 -2.769531 2.929688 -2.210938 2.171875 -1.359375 C 3.265625 -1.316406 4.257812 -1.296875 5.15625 -1.296875 C 5.34375 -1.296875 5.550781 -1.300781 5.78125 -1.3125 C 6.207031 -1.332031 6.453125 -1.34375 6.515625 -1.34375 L 8.015625 -1.3125 C 8.179688 -1.3125 8.347656 -1.390625 8.515625 -1.546875 C 8.679688 -1.703125 8.914062 -2.144531 9.21875 -2.875 L 9.46875 -2.875 C 9.5 -2.875 9.550781 -2.875 9.625 -2.875 C 9.664062 -2.800781 9.6875 -2.742188 9.6875 -2.703125 L 9.65625 -2.625 C 9.601562 -2.414062 9.554688 -2.035156 9.515625 -1.484375 C 9.484375 -1.160156 9.425781 -0.671875 9.34375 -0.015625 Z M 9.34375 -0.015625 "/></g></g></g><g fill="#6d452b" fill-opacity="1"><g transform="translate(311.746301, 162.6212)"><g><path d="M 8.4375 -14.03125 C 8.5 -13.925781 8.539062 -13.804688 8.5625 -13.671875 C 8.519531 -13.597656 8.453125 -13.546875 8.359375 -13.515625 C 8.066406 -13.441406 7.625 -13.234375 7.03125 -12.890625 C 6.894531 -12.828125 6.484375 -12.5 5.796875 -11.90625 C 5.484375 -11.6875 5.113281 -11.285156 4.6875 -10.703125 C 4.09375 -9.910156 3.664062 -9.207031 3.40625 -8.59375 C 3.144531 -7.976562 2.914062 -7.171875 2.71875 -6.171875 C 2.664062 -5.878906 2.628906 -5.375 2.609375 -4.65625 L 2.578125 -4.265625 C 2.578125 -3.347656 2.84375 -2.429688 3.375 -1.515625 C 3.914062 -0.609375 4.59375 -0.15625 5.40625 -0.15625 C 5.820312 -0.15625 6.210938 -0.285156 6.578125 -0.546875 C 6.953125 -0.804688 7.242188 -1.242188 7.453125 -1.859375 C 7.671875 -2.472656 7.78125 -3.210938 7.78125 -4.078125 C 7.78125 -5.265625 7.550781 -6.140625 7.09375 -6.703125 C 6.644531 -7.273438 6.101562 -7.5625 5.46875 -7.5625 C 5.269531 -7.5625 5.097656 -7.535156 4.953125 -7.484375 L 4.859375 -7.453125 C 4.765625 -7.453125 4.671875 -7.554688 4.578125 -7.765625 C 4.765625 -7.890625 4.988281 -7.988281 5.25 -8.0625 C 5.507812 -8.144531 5.679688 -8.1875 5.765625 -8.1875 C 5.816406 -8.1875 6.140625 -8.128906 6.734375 -8.015625 L 7.046875 -7.875 C 7.390625 -7.769531 7.648438 -7.644531 7.828125 -7.5 C 8.160156 -7.238281 8.453125 -6.90625 8.703125 -6.5 C 8.835938 -6.289062 9.007812 -5.867188 9.21875 -5.234375 C 9.238281 -5.191406 9.289062 -4.878906 9.375 -4.296875 L 9.3125 -3.21875 C 9.164062 -2.582031 9.023438 -2.132812 8.890625 -1.875 C 8.691406 -1.476562 8.359375 -1.050781 7.890625 -0.59375 C 7.640625 -0.351562 7.320312 -0.160156 6.9375 -0.015625 C 6.394531 0.191406 5.820312 0.296875 5.21875 0.296875 C 4.0625 0.296875 3.082031 -0.160156 2.28125 -1.078125 C 1.476562 -2.003906 1.078125 -3.347656 1.078125 -5.109375 C 1.078125 -6.085938 1.222656 -7.015625 1.515625 -7.890625 C 1.816406 -8.765625 2.242188 -9.566406 2.796875 -10.296875 C 3.171875 -10.785156 3.675781 -11.3125 4.3125 -11.875 C 4.945312 -12.4375 5.550781 -12.878906 6.125 -13.203125 C 6.90625 -13.609375 7.675781 -13.882812 8.4375 -14.03125 Z M 8.4375 -14.03125 "/></g></g></g></svg>