<svg xmlns="http://www.w3.org/2000/svg" xmlns:xlink="http://www.w3.org/1999/xlink" width="133" zoomAndPan="magnify" viewBox="0 0 99.75 99.749996" height="133" preserveAspectRatio="xMidYMid meet" version="1.0"><defs><clipPath id="ad0d23f53c"><path d="M 0 0 L 99.5 0 L 99.5 99.5 L 0 99.5 Z M 0 0 " clip-rule="nonzero"/></clipPath><clipPath id="744175ad21"><path d="M 19.050781 17.003906 L 80.398438 17.003906 L 80.398438 73 L 19.050781 73 Z M 19.050781 17.003906 " clip-rule="nonzero"/></clipPath></defs><g clip-path="url(#ad0d23f53c)"><path fill="#d2550d" d="M 49.738281 0 C 22.3125 0 0 22.3125 0 49.738281 C 0 77.164062 22.3125 99.476562 49.738281 99.476562 C 77.164062 99.476562 99.476562 77.164062 99.476562 49.738281 C 99.476562 22.3125 77.164062 0 49.738281 0 Z M 49.738281 97.929688 C 23.164062 97.929688 1.546875 76.3125 1.546875 49.738281 C 1.546875 23.164062 23.164062 1.542969 49.738281 1.542969 C 76.3125 1.542969 97.929688 23.164062 97.929688 49.738281 C 97.929688 76.3125 76.3125 97.929688 49.738281 97.929688 Z M 49.738281 97.929688 " fill-opacity="1" fill-rule="nonzero"/></g><path fill="#d2550d" d="M 49.738281 3.859375 C 24.441406 3.859375 3.855469 24.4375 3.855469 49.738281 C 3.855469 75.039062 24.441406 95.621094 49.738281 95.621094 C 75.039062 95.621094 95.617188 75.035156 95.617188 49.738281 C 95.617188 24.4375 75.035156 3.859375 49.738281 3.859375 Z M 49.738281 92.53125 C 26.144531 92.53125 6.949219 73.335938 6.949219 49.738281 C 6.949219 26.144531 26.144531 6.949219 49.738281 6.949219 C 73.332031 6.949219 92.527344 26.144531 92.527344 49.738281 C 92.527344 73.335938 73.332031 92.53125 49.738281 92.53125 Z M 49.738281 92.53125 " fill-opacity="1" fill-rule="nonzero"/><path fill="#d2550d" d="M 49.738281 9.261719 C 27.417969 9.261719 9.261719 27.417969 9.261719 49.738281 C 9.261719 72.058594 27.417969 90.21875 49.738281 90.21875 C 72.058594 90.21875 90.21875 72.058594 90.21875 49.738281 C 90.214844 27.417969 72.058594 9.261719 49.738281 9.261719 Z M 49.738281 9.261719 " fill-opacity="1" fill-rule="nonzero"/><g clip-path="url(#744175ad21)"><path fill="#ffffff" d="M 55.503906 43.09375 C 55.480469 43.085938 55.457031 43.082031 55.425781 43.070312 C 54.410156 42.78125 53.351562 43.066406 52.613281 43.597656 C 52.308594 43.070312 51.839844 42.660156 51.246094 42.402344 C 51.207031 42.382812 51.167969 42.371094 51.128906 42.355469 C 51.109375 41.113281 50.445312 40.191406 49.222656 39.734375 C 48.597656 39.5 47.984375 39.425781 47.394531 39.515625 C 47.371094 39.519531 47.351562 39.523438 47.328125 39.527344 L 47.4375 40.117188 L 47.304688 39.53125 C 46.085938 39.753906 45.148438 40.667969 44.714844 41.664062 C 44.113281 41.222656 43.402344 41 42.632812 41.03125 C 41.144531 41.085938 39.808594 42.117188 39.460938 43.472656 C 39.265625 44.234375 39.136719 46.203125 42.15625 48.011719 C 42.160156 48.015625 42.167969 48.019531 42.171875 48.023438 L 42.242188 48.0625 C 42.894531 48.445312 43.660156 48.800781 44.523438 49.125 C 44.574219 49.144531 44.636719 49.167969 44.707031 49.195312 C 45.207031 49.390625 45.914062 49.667969 46.546875 49.667969 C 46.917969 49.667969 47.261719 49.574219 47.519531 49.3125 C 47.640625 49.195312 48.074219 48.703125 48.601562 48 C 48.882812 48.351562 49.199219 48.707031 49.554688 49.066406 C 49.589844 49.097656 49.625 49.136719 49.671875 49.183594 C 50.113281 49.640625 50.816406 50.371094 51.554688 50.371094 C 51.65625 50.371094 51.753906 50.359375 51.855469 50.328125 C 52.171875 50.238281 53.820312 49.605469 55.203125 48.734375 C 55.292969 48.675781 55.382812 48.617188 55.472656 48.554688 C 55.480469 48.550781 55.484375 48.546875 55.488281 48.542969 C 55.496094 48.539062 55.5 48.539062 55.503906 48.535156 C 56.816406 47.644531 57.527344 46.730469 57.617188 45.816406 C 57.683594 45.144531 57.425781 44.515625 56.855469 43.941406 C 56.457031 43.535156 56 43.25 55.503906 43.09375 Z M 46.683594 48.453125 C 46.578125 48.5 46.234375 48.503906 45.144531 48.078125 C 45.066406 48.046875 44.996094 48.019531 44.941406 48 C 44.144531 47.703125 43.441406 47.375 42.839844 47.023438 L 42.765625 46.980469 C 41.132812 46 40.351562 44.828125 40.621094 43.773438 C 40.839844 42.929688 41.722656 42.265625 42.679688 42.230469 C 43.414062 42.203125 44.085938 42.546875 44.558594 43.203125 C 44.710938 43.414062 44.980469 43.503906 45.226562 43.425781 C 45.472656 43.347656 45.640625 43.117188 45.644531 42.859375 C 45.648438 42.105469 46.367188 40.921875 47.507812 40.714844 L 47.550781 40.707031 C 47.554688 40.707031 47.5625 40.707031 47.570312 40.703125 C 47.957031 40.644531 48.371094 40.695312 48.800781 40.855469 C 49.476562 41.109375 49.835938 41.511719 49.914062 42.125 C 49.042969 42.125 48.210938 42.464844 47.6875 43.097656 C 47.300781 43.5625 46.59375 44.835938 47.867188 46.96875 C 47.273438 47.792969 46.777344 48.355469 46.683594 48.453125 Z M 56.421875 45.699219 C 56.371094 46.226562 55.804688 46.882812 54.832031 47.539062 C 54.828125 47.542969 54.820312 47.546875 54.816406 47.550781 C 54.8125 47.554688 54.640625 47.667969 54.558594 47.71875 C 53.28125 48.523438 51.792969 49.089844 51.542969 49.167969 C 51.421875 49.148438 51.148438 48.988281 50.535156 48.351562 C 50.484375 48.296875 50.441406 48.253906 50.40625 48.21875 C 49.910156 47.71875 49.492188 47.230469 49.164062 46.761719 L 49.125 46.707031 C 48.300781 45.503906 48.113281 44.46875 48.613281 43.863281 C 48.898438 43.515625 49.394531 43.328125 49.917969 43.328125 C 50.203125 43.328125 50.496094 43.382812 50.765625 43.5 C 51.160156 43.671875 51.660156 44.039062 51.800781 44.8125 C 51.84375 45.0625 52.042969 45.257812 52.292969 45.296875 C 52.546875 45.339844 52.796875 45.21875 52.917969 44.992188 C 53.144531 44.574219 54.09375 43.9375 55.085938 44.222656 L 55.105469 44.226562 C 55.117188 44.230469 55.125 44.234375 55.136719 44.238281 C 55.449219 44.335938 55.742188 44.519531 56.003906 44.785156 C 56.316406 45.097656 56.453125 45.398438 56.421875 45.699219 Z M 79.734375 62.433594 C 79.734375 62.433594 79.660156 61.253906 79.660156 61.25 C 79.449219 57.84375 79.402344 57.515625 78.546875 56.949219 L 78.503906 56.921875 C 76.066406 55.308594 73.578125 54.082031 70.945312 52.78125 C 68.664062 51.652344 66.304688 50.484375 63.902344 49.015625 C 63.890625 47.144531 63.871094 45.492188 63.851562 44.25 C 64.105469 44.496094 64.359375 44.746094 64.613281 45 C 64.925781 45.308594 66.523438 46.855469 67.382812 46.953125 C 68.34375 47.0625 69.207031 45.644531 69.300781 45.480469 C 69.378906 45.351562 69.484375 45.207031 69.59375 45.058594 C 69.929688 44.601562 70.351562 44.035156 70.246094 43.347656 C 70.121094 42.535156 69.273438 41.785156 68.085938 40.8125 C 67.789062 40.570312 67.511719 40.339844 67.328125 40.164062 C 61.953125 34.984375 56.292969 29.976562 50.5 25.273438 C 49.632812 24.570312 48.917969 24.160156 48.277344 24.003906 L 48.277344 20.730469 L 49.535156 20.730469 C 49.867188 20.730469 50.136719 20.460938 50.136719 20.128906 C 50.136719 19.796875 49.867188 19.527344 49.535156 19.527344 L 48.277344 19.527344 L 48.277344 17.605469 C 48.277344 17.273438 48.007812 17.003906 47.679688 17.003906 C 47.347656 17.003906 47.078125 17.273438 47.078125 17.605469 L 47.078125 19.527344 L 45.820312 19.527344 C 45.488281 19.527344 45.21875 19.796875 45.21875 20.128906 C 45.21875 20.460938 45.488281 20.730469 45.820312 20.730469 L 47.078125 20.730469 L 47.078125 24.011719 C 45.898438 24.347656 44.804688 25.636719 43.136719 27.609375 C 40.730469 30.449219 36.707031 35.203125 28.960938 41.566406 C 28.222656 42.171875 27.699219 42.664062 27.527344 43.113281 C 27.328125 43.636719 27.617188 44.28125 29.855469 46.714844 C 29.949219 46.816406 30.019531 46.894531 30.058594 46.933594 C 30.269531 47.175781 30.550781 47.308594 30.863281 47.320312 C 30.875 47.320312 30.886719 47.320312 30.898438 47.320312 C 31.613281 47.320312 32.429688 46.722656 34.207031 44.910156 C 34.21875 44.894531 34.234375 44.882812 34.246094 44.867188 C 34.238281 46.347656 34.238281 48.066406 34.25 49.90625 C 30.742188 51.660156 27.425781 53.121094 24.984375 54.195312 C 22.109375 55.464844 20.816406 56.042969 20.398438 56.449219 C 19.878906 56.949219 19.375 57.828125 19.21875 60.804688 C 19.21875 60.808594 19.21875 60.8125 19.21875 60.8125 C 19.085938 63.332031 19.207031 67.023438 19.597656 72.097656 C 19.621094 72.390625 19.855469 72.625 20.148438 72.648438 C 21.191406 72.730469 22.472656 72.800781 23.925781 72.851562 C 23.933594 72.851562 23.941406 72.851562 23.949219 72.851562 L 23.953125 72.851562 C 23.957031 72.851562 23.960938 72.851562 23.964844 72.851562 C 25.121094 72.886719 26.382812 72.910156 27.714844 72.910156 C 30.289062 72.910156 33.125 72.828125 35.9375 72.613281 C 36.007812 72.636719 36.078125 72.652344 36.148438 72.652344 C 37.808594 72.652344 55.785156 72.605469 56.292969 72.597656 C 57.746094 72.578125 62.511719 72.511719 62.875 72.414062 C 62.90625 72.40625 62.9375 72.394531 62.96875 72.382812 C 65.261719 72.496094 68.042969 72.484375 70.734375 72.46875 C 73.972656 72.457031 77.324219 72.441406 79.726562 72.644531 C 79.746094 72.644531 79.761719 72.648438 79.777344 72.648438 C 79.9375 72.648438 80.085938 72.585938 80.199219 72.472656 C 80.324219 72.351562 80.390625 72.175781 80.375 72.003906 C 80.046875 67.554688 79.859375 64.472656 79.734375 62.433594 Z M 70.414062 53.855469 C 73.011719 55.140625 75.464844 56.351562 77.839844 57.921875 L 77.886719 57.953125 C 78.175781 58.144531 78.25 58.191406 78.386719 60.167969 C 76.175781 58.832031 73.78125 57.605469 71.269531 56.316406 C 68.84375 55.070312 66.332031 53.785156 63.917969 52.359375 L 63.917969 50.425781 C 66.140625 51.742188 68.308594 52.816406 70.414062 53.855469 Z M 33.347656 44.070312 C 31.785156 45.667969 31.171875 46.074219 30.933594 46.113281 C 30.890625 46.066406 30.824219 45.992188 30.738281 45.902344 C 29.304688 44.339844 28.847656 43.699219 28.714844 43.4375 C 28.824219 43.292969 29.085938 43.015625 29.726562 42.488281 C 31.914062 40.691406 33.808594 39.023438 35.457031 37.484375 C 35.46875 37.476562 35.476562 37.46875 35.484375 37.457031 C 39.710938 33.511719 42.304688 30.449219 44.050781 28.382812 C 45.496094 26.679688 46.449219 25.550781 47.222656 25.222656 C 47.765625 24.988281 48.351562 25.078125 49.742188 26.207031 C 55.507812 30.886719 61.144531 35.875 66.492188 41.027344 C 66.710938 41.238281 67.011719 41.484375 67.324219 41.742188 C 67.90625 42.21875 68.996094 43.109375 69.058594 43.527344 C 69.089844 43.722656 68.84375 44.050781 68.628906 44.34375 C 68.503906 44.511719 68.375 44.691406 68.265625 44.875 C 68.015625 45.300781 67.652344 45.671875 67.488281 45.75 C 67.132812 45.632812 66.132812 44.8125 65.457031 44.148438 C 64.847656 43.539062 63.632812 42.355469 63.628906 42.355469 C 59.246094 38.246094 55.105469 34.449219 49.925781 30.210938 C 48.945312 29.414062 48.171875 28.933594 47.335938 29.027344 C 46.160156 29.152344 45.261719 30.28125 43.296875 32.761719 C 41.367188 35.191406 38.449219 38.863281 33.347656 44.070312 Z M 21.234375 57.308594 C 21.515625 57.035156 23.4375 56.191406 25.46875 55.292969 C 27.800781 54.269531 30.921875 52.894531 34.261719 51.242188 C 34.269531 51.957031 34.277344 52.683594 34.289062 53.421875 C 30.539062 55.335938 26.90625 56.921875 24.230469 58.085938 C 22.617188 58.789062 21.367188 59.335938 20.5 59.765625 C 20.707031 57.820312 21.09375 57.445312 21.234375 57.308594 Z M 20.402344 61.175781 C 21.148438 60.738281 22.746094 60.042969 24.710938 59.1875 C 27.273438 58.070312 30.714844 56.570312 34.308594 54.757812 C 34.339844 56.691406 34.382812 58.652344 34.441406 60.542969 C 34.65625 67.472656 34.957031 70.265625 35.222656 71.460938 C 33.9375 71.550781 32.652344 71.613281 31.398438 71.652344 C 31.429688 69.878906 31.390625 68.308594 31.152344 66.652344 C 30.984375 65.496094 30.480469 63.410156 28.976562 62.460938 C 28.152344 61.941406 27.226562 61.777344 26.371094 61.996094 C 25.503906 62.21875 24.753906 62.828125 24.265625 63.710938 C 23.203125 65.625 23.273438 68.625 23.328125 70.816406 C 23.328125 70.816406 23.339844 71.359375 23.34375 71.628906 C 22.386719 71.589844 21.519531 71.542969 20.757812 71.492188 C 20.421875 66.988281 20.300781 63.523438 20.402344 61.175781 Z M 24.542969 71.667969 C 24.542969 71.375 24.527344 70.789062 24.527344 70.789062 C 24.480469 68.734375 24.410156 65.921875 25.3125 64.292969 C 25.648438 63.695312 26.117188 63.300781 26.667969 63.160156 C 27.203125 63.023438 27.792969 63.136719 28.335938 63.476562 C 29.136719 63.980469 29.730469 65.199219 29.964844 66.824219 C 30.191406 68.417969 30.230469 69.945312 30.195312 71.683594 C 28.179688 71.726562 26.257812 71.714844 24.542969 71.667969 Z M 43.164062 70.15625 C 43.15625 69.339844 43.144531 68.492188 43.117188 67.617188 L 43.117188 67.550781 C 43.023438 64.582031 42.898438 60.515625 44.582031 58.136719 C 45.941406 56.207031 48.539062 55.671875 50.898438 56.839844 C 53.121094 57.9375 53.84375 60.695312 54.054688 61.832031 C 54.640625 65.046875 54.523438 68.160156 54.386719 71.429688 L 43.179688 71.429688 C 43.171875 71 43.167969 70.585938 43.164062 70.15625 Z M 56.277344 71.398438 C 56.035156 71.402344 55.800781 71.40625 55.585938 71.40625 C 55.726562 68.089844 55.84375 64.941406 55.234375 61.613281 C 54.933594 59.984375 54.042969 57.054688 51.429688 55.761719 C 48.53125 54.328125 45.3125 55.019531 43.601562 57.441406 C 41.6875 60.152344 41.820312 64.449219 41.917969 67.589844 L 41.976562 71.449219 L 36.449219 71.449219 C 35.941406 69.921875 35.609375 61.964844 35.488281 53.851562 C 35.496094 53.808594 35.492188 53.761719 35.488281 53.714844 C 35.472656 52.582031 35.457031 51.449219 35.449219 50.328125 C 35.453125 50.289062 35.453125 50.253906 35.449219 50.214844 C 35.433594 47.898438 35.433594 45.652344 35.457031 43.617188 C 39.835938 39.046875 42.453125 35.75 44.234375 33.507812 C 45.828125 31.503906 46.789062 30.292969 47.460938 30.21875 C 47.828125 30.179688 48.304688 30.4375 49.164062 31.140625 C 54.25 35.300781 58.394531 38.964844 62.625 43.054688 C 62.71875 46.472656 62.761719 64.210938 62.761719 64.210938 C 62.792969 69.3125 62.558594 70.816406 62.40625 71.261719 C 61.597656 71.304688 58.769531 71.367188 56.277344 71.398438 Z M 70.730469 71.269531 C 69.949219 71.273438 69.164062 71.277344 68.386719 71.277344 C 68.382812 70.882812 68.367188 70.023438 68.367188 70.023438 C 68.316406 68.171875 68.25 65.632812 69.140625 64.179688 C 69.808594 63.078125 71.039062 62.785156 72.195312 63.445312 C 72.988281 63.898438 73.574219 64.992188 73.804688 66.441406 C 74.0625 68.085938 74.066406 69.667969 74.023438 71.265625 C 72.9375 71.261719 71.828125 71.265625 70.730469 71.269531 Z M 75.222656 71.273438 C 75.269531 69.625 75.261719 67.984375 74.988281 66.253906 C 74.820312 65.191406 74.3125 63.273438 72.789062 62.402344 C 71.082031 61.429688 69.117188 61.910156 68.113281 63.550781 C 67.039062 65.3125 67.113281 68.054688 67.167969 70.058594 C 67.167969 70.058594 67.183594 70.890625 67.1875 71.277344 C 65.945312 71.269531 64.746094 71.253906 63.644531 71.210938 C 63.863281 70.148438 63.96875 68.128906 63.945312 64.203125 L 63.945312 53.753906 C 66.195312 55.054688 68.484375 56.238281 70.71875 57.382812 C 73.492188 58.804688 76.113281 60.152344 78.480469 61.636719 C 78.480469 61.636719 78.828125 67.3125 79.128906 71.398438 C 77.960938 71.320312 76.628906 71.285156 75.222656 71.273438 Z M 75.222656 71.273438 " fill-opacity="1" fill-rule="nonzero"/></g></svg>