<svg xmlns="http://www.w3.org/2000/svg" xmlns:xlink="http://www.w3.org/1999/xlink" width="133" zoomAndPan="magnify" viewBox="0 0 99.75 99.749996" height="133" preserveAspectRatio="xMidYMid meet" version="1.0"><defs><clipPath id="347e519980"><path d="M 0 0 L 99.5 0 L 99.5 99.5 L 0 99.5 Z M 0 0 " clip-rule="nonzero"/></clipPath><clipPath id="e09ea9318a"><path d="M 24.542969 23.527344 L 74.667969 23.527344 L 74.667969 75.894531 L 24.542969 75.894531 Z M 24.542969 23.527344 " clip-rule="nonzero"/></clipPath></defs><g clip-path="url(#347e519980)"><path fill="#d2550d" d="M 49.738281 0 C 22.3125 0 0 22.3125 0 49.738281 C 0 77.164062 22.3125 99.476562 49.738281 99.476562 C 77.164062 99.476562 99.476562 77.164062 99.476562 49.738281 C 99.476562 22.3125 77.164062 0 49.738281 0 Z M 49.738281 97.929688 C 23.164062 97.929688 1.546875 76.3125 1.546875 49.738281 C 1.546875 23.164062 23.164062 1.542969 49.738281 1.542969 C 76.3125 1.542969 97.929688 23.164062 97.929688 49.738281 C 97.929688 76.3125 76.3125 97.929688 49.738281 97.929688 Z M 49.738281 97.929688 " fill-opacity="1" fill-rule="nonzero"/></g><path fill="#d2550d" d="M 49.738281 3.859375 C 24.441406 3.859375 3.855469 24.4375 3.855469 49.738281 C 3.855469 75.039062 24.441406 95.621094 49.738281 95.621094 C 75.039062 95.621094 95.617188 75.035156 95.617188 49.738281 C 95.617188 24.4375 75.035156 3.859375 49.738281 3.859375 Z M 49.738281 92.53125 C 26.144531 92.53125 6.949219 73.335938 6.949219 49.738281 C 6.949219 26.144531 26.144531 6.949219 49.738281 6.949219 C 73.332031 6.949219 92.527344 26.144531 92.527344 49.738281 C 92.527344 73.335938 73.332031 92.53125 49.738281 92.53125 Z M 49.738281 92.53125 " fill-opacity="1" fill-rule="nonzero"/><path fill="#d2550d" d="M 49.738281 9.261719 C 27.417969 9.261719 9.261719 27.417969 9.261719 49.738281 C 9.261719 72.058594 27.417969 90.21875 49.738281 90.21875 C 72.058594 90.21875 90.21875 72.058594 90.21875 49.738281 C 90.214844 27.417969 72.058594 9.261719 49.738281 9.261719 Z M 49.738281 9.261719 " fill-opacity="1" fill-rule="nonzero"/><g clip-path="url(#e09ea9318a)"><path fill="#ffffff" d="M 72.792969 35.863281 L 63.109375 35.863281 C 65.210938 35.042969 66.492188 33.746094 66.972656 31.949219 C 67.4375 30.222656 67.199219 28.414062 66.292969 26.855469 C 65.394531 25.300781 63.941406 24.183594 62.210938 23.722656 C 59.449219 22.984375 56.78125 24.4375 54.050781 28.160156 C 53.488281 28.929688 52.917969 29.808594 52.285156 30.847656 C 51.703125 30.074219 50.777344 29.574219 49.738281 29.574219 C 48.699219 29.574219 47.773438 30.074219 47.191406 30.847656 C 46.5625 29.808594 45.992188 28.933594 45.425781 28.160156 C 42.699219 24.4375 40.03125 22.984375 37.265625 23.722656 C 35.535156 24.183594 34.085938 25.300781 33.183594 26.855469 C 32.285156 28.414062 32.042969 30.222656 32.503906 31.949219 C 32.992188 33.742188 34.261719 35.042969 36.371094 35.863281 L 26.683594 35.863281 C 25.503906 35.863281 24.542969 36.820312 24.542969 38 L 24.542969 43.082031 C 24.542969 44.222656 25.441406 45.148438 26.570312 45.210938 L 26.570312 73.273438 C 26.570312 74.746094 27.777344 75.945312 29.25 75.945312 L 70.230469 75.945312 C 71.710938 75.945312 72.910156 74.742188 72.910156 73.273438 L 72.910156 45.207031 C 74.03125 45.144531 74.9375 44.222656 74.9375 43.082031 L 74.9375 38 C 74.9375 36.820312 73.976562 35.863281 72.792969 35.863281 Z M 54.917969 28.796875 C 57.355469 25.46875 59.648438 24.144531 61.933594 24.761719 C 63.390625 25.148438 64.605469 26.085938 65.367188 27.398438 C 66.125 28.710938 66.324219 30.230469 65.9375 31.683594 C 65.320312 33.984375 62.984375 35.3125 58.804688 35.742188 C 58.195312 35.800781 57.550781 35.847656 56.835938 35.875 L 52.9375 35.875 L 52.9375 35.558594 C 60.332031 30.847656 63.011719 31.609375 63.039062 31.613281 L 63.027344 31.609375 L 63.40625 30.605469 C 63.109375 30.496094 60.355469 29.6875 52.9375 34.285156 L 52.9375 32.757812 C 52.9375 32.503906 52.90625 32.257812 52.847656 32.023438 C 53.601562 30.71875 54.261719 29.683594 54.917969 28.796875 Z M 53.960938 74.878906 L 45.519531 74.878906 L 45.519531 36.929688 L 53.960938 36.929688 Z M 49.738281 30.648438 C 50.902344 30.648438 51.859375 31.59375 51.859375 32.761719 L 51.859375 35.863281 L 47.621094 35.863281 L 47.621094 32.761719 C 47.621094 31.59375 48.574219 30.648438 49.738281 30.648438 Z M 40.675781 35.726562 C 36.496094 35.300781 34.160156 33.972656 33.542969 31.671875 C 33.15625 30.21875 33.355469 28.703125 34.117188 27.386719 C 34.875 26.074219 36.089844 25.140625 37.546875 24.75 C 39.832031 24.140625 42.128906 25.460938 44.5625 28.78125 C 45.214844 29.675781 45.878906 30.707031 46.640625 32.007812 C 46.582031 32.246094 46.550781 32.492188 46.550781 32.742188 L 46.550781 34.265625 C 39.132812 29.667969 36.382812 30.472656 36.082031 30.585938 L 36.460938 31.589844 L 36.449219 31.597656 C 36.476562 31.589844 39.15625 30.828125 46.550781 35.539062 L 46.550781 35.859375 L 42.652344 35.859375 C 41.929688 35.835938 41.292969 35.792969 40.675781 35.726562 Z M 25.617188 43.082031 L 25.617188 38 C 25.617188 37.40625 26.097656 36.929688 26.691406 36.929688 L 44.453125 36.929688 L 44.453125 44.148438 L 26.683594 44.148438 C 26.097656 44.152344 25.617188 43.667969 25.617188 43.082031 Z M 27.640625 73.273438 L 27.640625 45.21875 L 44.445312 45.21875 L 44.445312 74.875 L 29.25 74.878906 C 28.363281 74.878906 27.640625 74.15625 27.640625 73.273438 Z M 70.230469 74.875 L 55.035156 74.875 L 55.035156 45.21875 L 71.839844 45.21875 L 71.839844 73.269531 C 71.839844 74.160156 71.113281 74.875 70.230469 74.875 Z M 73.859375 43.082031 C 73.859375 43.675781 73.382812 44.152344 72.789062 44.152344 L 55.027344 44.152344 L 55.027344 36.929688 L 72.789062 36.929688 C 73.382812 36.929688 73.863281 37.410156 73.863281 38 Z M 73.859375 43.082031 " fill-opacity="1" fill-rule="nonzero"/></g></svg>