<svg xmlns="http://www.w3.org/2000/svg" xmlns:xlink="http://www.w3.org/1999/xlink" width="133" zoomAndPan="magnify" viewBox="0 0 99.75 99.749996" height="133" preserveAspectRatio="xMidYMid meet" version="1.0"><defs><clipPath id="3ed9ddb7b0"><path d="M 0 0 L 99.5 0 L 99.5 99.5 L 0 99.5 Z M 0 0 " clip-rule="nonzero"/></clipPath><clipPath id="0c30405bc5"><path d="M 0 0 L 99.496094 0 L 99.496094 99.496094 L 0 99.496094 Z M 0 0 " clip-rule="nonzero"/></clipPath><clipPath id="034f71e8cb"><path d="M 71 21 L 76.386719 21 L 76.386719 31 L 71 31 Z M 71 21 " clip-rule="nonzero"/></clipPath><clipPath id="8701358455"><path d="M 38 14.140625 L 40 14.140625 L 40 16 L 38 16 Z M 38 14.140625 " clip-rule="nonzero"/></clipPath><clipPath id="e8d9c75245"><path d="M 32 14.140625 L 34 14.140625 L 34 16 L 32 16 Z M 32 14.140625 " clip-rule="nonzero"/></clipPath><clipPath id="cebbbe31d1"><rect x="0" width="100" y="0" height="100"/></clipPath></defs><g clip-path="url(#3ed9ddb7b0)"><g transform="matrix(1, 0, 0, 1, -0, -0.000000000000003885)"><g clip-path="url(#cebbbe31d1)"><g clip-path="url(#0c30405bc5)"><path fill="#d2550d" d="M 49.738281 0 C 22.3125 0 0 22.3125 0 49.738281 C 0 77.164062 22.3125 99.476562 49.738281 99.476562 C 77.164062 99.476562 99.476562 77.164062 99.476562 49.738281 C 99.476562 22.3125 77.164062 0 49.738281 0 Z M 49.738281 97.933594 C 23.164062 97.933594 1.546875 76.3125 1.546875 49.738281 C 1.546875 23.164062 23.164062 1.542969 49.738281 1.542969 C 76.3125 1.542969 97.933594 23.164062 97.933594 49.738281 C 97.929688 76.3125 76.3125 97.933594 49.738281 97.933594 Z M 49.738281 97.933594 " fill-opacity="1" fill-rule="nonzero"/></g><path fill="#d2550d" d="M 49.738281 3.859375 C 24.441406 3.859375 3.855469 24.4375 3.855469 49.738281 C 3.855469 75.039062 24.441406 95.621094 49.738281 95.621094 C 75.039062 95.621094 95.621094 75.039062 95.621094 49.738281 C 95.621094 24.4375 75.039062 3.859375 49.738281 3.859375 Z M 49.738281 92.53125 C 26.144531 92.53125 6.949219 73.335938 6.949219 49.738281 C 6.949219 26.144531 26.144531 6.949219 49.738281 6.949219 C 73.335938 6.949219 92.527344 26.144531 92.527344 49.738281 C 92.527344 73.335938 73.335938 92.53125 49.738281 92.53125 Z M 49.738281 92.53125 " fill-opacity="1" fill-rule="nonzero"/><path fill="#d2550d" d="M 49.738281 9.261719 C 27.417969 9.261719 9.261719 27.417969 9.261719 49.738281 C 9.261719 72.058594 27.417969 90.21875 49.738281 90.21875 C 72.058594 90.21875 90.21875 72.058594 90.21875 49.738281 C 90.21875 27.417969 72.058594 9.261719 49.738281 9.261719 Z M 49.738281 9.261719 " fill-opacity="1" fill-rule="nonzero"/><path fill="#ffffff" d="M 59.074219 80.296875 C 59.039062 80.261719 58.714844 80.386719 58.636719 80.402344 C 58.597656 80.410156 58.542969 80.398438 58.488281 80.40625 C 57.117188 80.613281 55.6875 80.582031 54.3125 80.820312 C 53.597656 80.941406 51.9375 81.316406 51.574219 81.996094 C 51.40625 82.304688 51.480469 82.421875 51.753906 82.589844 C 53.03125 83.382812 55.609375 83.671875 57.089844 83.800781 C 60.53125 84.09375 64.582031 84.367188 67.90625 83.382812 C 68.574219 83.183594 69.371094 82.882812 69.6875 82.222656 C 69.636719 82.066406 69.621094 81.914062 69.527344 81.769531 C 69.480469 81.699219 69.347656 81.558594 69.277344 81.507812 C 68.765625 81.105469 67.914062 81.011719 67.296875 80.90625 C 65.660156 80.632812 63.984375 80.523438 62.34375 80.242188 C 62.222656 80.21875 62.125 80.289062 62.03125 80.140625 C 61.984375 80.144531 62.007812 80.222656 62.007812 80.269531 C 62.003906 80.539062 61.933594 80.988281 61.953125 81.195312 C 61.960938 81.269531 62.078125 81.425781 61.878906 81.425781 C 61.773438 81.425781 61.707031 81.28125 61.695312 81.195312 C 61.648438 80.871094 61.730469 80.453125 61.699219 80.113281 C 61.695312 80.054688 61.65625 80.027344 61.652344 80.003906 C 61.246094 76.714844 61.59375 73.410156 61.488281 70.058594 C 61.539062 69.878906 61.601562 69.796875 61.800781 69.832031 C 61.808594 69.949219 61.894531 70.109375 61.90625 70.214844 C 61.96875 70.800781 61.972656 71.425781 62.003906 72.023438 C 62.136719 74.488281 62.1875 77.136719 62.054688 79.648438 C 62.050781 79.742188 62.0625 79.839844 62.054688 79.933594 C 62.5625 79.949219 63.074219 79.910156 63.578125 79.933594 C 64.75 79.984375 66.042969 80.113281 67.191406 80.289062 C 68.125 80.433594 69.519531 80.601562 70.070312 81.480469 C 70.203125 81.695312 70.246094 81.890625 70.304688 82.125 C 70.261719 82.292969 70.25 82.46875 70.191406 82.632812 C 69.929688 83.378906 68.808594 83.828125 68.105469 84.050781 C 63.972656 85.351562 58.65625 84.820312 54.453125 84.160156 C 53.398438 83.992188 51.933594 83.839844 51.070312 83.105469 C 51.023438 83.066406 51.023438 83.007812 50.996094 82.972656 C 50.800781 82.753906 50.769531 82.734375 50.707031 82.4375 C 50.703125 82.414062 50.671875 82.398438 50.664062 82.378906 C 50.640625 82.234375 50.738281 82.125 50.71875 81.976562 C 51.257812 80.660156 52.914062 80.222656 54.1875 80.035156 C 55.554688 79.832031 56.828125 79.890625 58.210938 79.832031 C 58.417969 79.824219 58.636719 79.753906 58.882812 79.777344 C 58.9375 79.78125 59 79.84375 59.007812 79.832031 C 59.015625 79.824219 59.003906 79.753906 59.015625 79.707031 C 59.109375 79.351562 59.074219 78.660156 59.0625 78.257812 C 59.023438 76.769531 58.933594 75.359375 58.957031 73.824219 C 58.957031 73.792969 58.960938 73.636719 58.960938 73.628906 C 59.214844 72.296875 58.8125 70.527344 59.058594 69.183594 C 59.085938 69.050781 59.167969 68.894531 59.164062 68.75 C 58.890625 68.976562 58.601562 69.269531 58.414062 69.574219 C 58.042969 70.1875 57.957031 70.933594 57.609375 71.554688 C 57.140625 72.390625 56.363281 72.828125 55.429688 72.980469 C 54.359375 73.152344 52.371094 72.800781 51.613281 73.75 C 51.207031 74.257812 50.941406 75.082031 50.582031 75.660156 C 50.105469 76.417969 49.046875 77.300781 48.203125 77.609375 C 48.085938 77.652344 47.683594 77.78125 47.589844 77.773438 C 47.515625 77.765625 47.457031 77.691406 47.359375 77.71875 C 47.324219 77.378906 47.488281 77.5 47.699219 77.464844 C 48.277344 77.371094 49.378906 76.59375 49.757812 76.121094 C 49.996094 75.828125 50.210938 75.316406 50.34375 74.957031 C 50.605469 74.242188 50.699219 73.140625 51.277344 72.644531 C 51.726562 72.257812 52.492188 72.027344 53.054688 71.945312 C 53.851562 71.832031 54.941406 71.960938 55.679688 71.683594 C 56.710938 71.296875 56.722656 70.351562 57.164062 69.503906 C 57.503906 68.847656 58.441406 67.835938 59.199219 67.726562 C 59.304688 67.710938 59.714844 67.738281 59.734375 67.71875 C 59.738281 67.714844 59.738281 67.519531 59.734375 67.511719 C 59.695312 67.476562 58.792969 67.523438 58.621094 67.511719 C 56.75 67.40625 54.394531 66.785156 52.601562 66.113281 C 51.097656 65.550781 48.652344 64.125 48.398438 62.378906 C 48.316406 61.800781 48.730469 60.996094 49.21875 60.679688 C 50.015625 60.167969 51.042969 60.128906 51.917969 60.457031 C 53.503906 61.054688 55.453125 62.617188 56.742188 63.722656 C 57.378906 64.269531 58.253906 65.011719 58.78125 65.65625 C 58.828125 65.714844 58.882812 65.804688 58.933594 65.863281 C 59.054688 66.011719 59.484375 66.460938 59.628906 66.5625 C 59.664062 66.585938 59.8125 66.664062 59.835938 66.636719 C 59.945312 66.203125 60.261719 65.847656 60.738281 65.914062 C 60.820312 65.921875 61.046875 66.097656 61.097656 66.171875 C 61.125 66.210938 61.207031 66.363281 61.21875 66.410156 C 61.234375 66.46875 61.191406 66.5625 61.25 66.582031 C 61.371094 66.5 61.515625 66.4375 61.636719 66.351562 C 62.410156 65.796875 63.277344 64.929688 63.984375 64.265625 C 65.976562 62.390625 68.808594 59.027344 71.515625 58.445312 C 72.382812 58.257812 73.566406 58.554688 74.054688 59.347656 C 74.117188 59.445312 74.292969 59.816406 74.3125 59.910156 C 74.328125 59.984375 74.308594 60.054688 74.316406 60.113281 C 74.449219 60.9375 73.847656 62.175781 73.3125 62.820312 C 71.730469 64.722656 68.679688 65.921875 66.359375 66.640625 C 65.195312 66.996094 63.730469 67.425781 62.539062 67.511719 C 62.355469 67.523438 61.367188 67.464844 61.328125 67.511719 C 61.3125 67.527344 61.339844 67.824219 61.328125 67.898438 C 61.316406 67.976562 61.246094 68.035156 61.273438 68.128906 L 62.125 68.128906 C 62.140625 68.128906 62.371094 68.167969 62.4375 68.179688 C 64.4375 68.511719 64.785156 70.332031 65.886719 71.6875 C 65.972656 71.792969 66.042969 71.933594 66.171875 72.023438 C 66.324219 72.132812 66.433594 72.128906 66.601562 72.15625 C 67.160156 72.253906 67.742188 72.167969 68.3125 72.199219 C 68.527344 72.214844 68.867188 72.261719 69.085938 72.304688 C 70.003906 72.476562 70.761719 73.179688 71.109375 74.039062 C 71.222656 74.316406 71.273438 74.628906 71.382812 74.902344 C 71.53125 75.273438 71.898438 75.824219 72.285156 75.960938 C 72.671875 76.09375 73.195312 76.167969 73.621094 76.222656 C 73.679688 76.226562 73.714844 76.269531 73.773438 76.277344 C 74.007812 76.300781 74.460938 76.226562 74.644531 76.277344 C 74.691406 76.289062 74.828125 76.480469 74.828125 76.503906 C 74.828125 76.515625 74.71875 76.625 74.699219 76.628906 C 74.570312 76.667969 73.847656 76.648438 73.667969 76.632812 C 73.609375 76.628906 73.574219 76.585938 73.519531 76.578125 C 72.421875 76.46875 71.195312 76.3125 70.558594 75.257812 C 70.160156 74.601562 69.972656 73.695312 69.078125 73.492188 C 68.480469 73.355469 67.746094 73.476562 67.121094 73.4375 C 66.953125 73.425781 66.675781 73.367188 66.5 73.335938 C 65.871094 73.242188 65.449219 72.957031 65.035156 72.480469 C 64.285156 71.621094 63.71875 69.886719 62.875 69.285156 C 62.492188 69.011719 61.765625 68.902344 61.304688 68.839844 C 61.28125 68.835938 61.269531 68.796875 61.199219 68.796875 C 61.148438 68.796875 61.1875 68.855469 61.164062 68.917969 C 61.148438 68.96875 61.050781 69.167969 61.019531 69.183594 C 60.996094 69.199219 60.867188 69.246094 60.832031 69.257812 C 60.789062 69.265625 60.515625 69.167969 60.503906 69.15625 C 60.496094 69.148438 60.503906 69.089844 60.476562 69.054688 C 60.4375 68.996094 60.308594 68.976562 60.242188 68.925781 C 60.128906 68.847656 59.972656 68.5625 59.90625 68.542969 C 59.722656 68.492188 59.550781 68.628906 59.367188 68.59375 C 59.679688 68.902344 59.554688 69.347656 59.570312 69.753906 C 59.6875 72.085938 59.628906 74.554688 59.523438 76.917969 C 59.46875 78.175781 59.417969 79.519531 59.3125 80.78125 C 59.304688 80.914062 59.34375 81.136719 59.3125 81.246094 C 59.28125 81.359375 59.183594 81.269531 59.109375 81.269531 C 59.132812 81.207031 59.058594 81.148438 59.058594 81.140625 C 59.058594 81.015625 59.089844 80.320312 59.058594 80.289062 Z M 62.886719 66.480469 C 63.035156 66.519531 63.160156 66.445312 63.273438 66.429688 C 65.808594 66.054688 68.941406 64.679688 71.085938 63.261719 C 71.898438 62.722656 73.050781 61.578125 73.191406 60.574219 C 73.246094 60.199219 73.144531 59.925781 72.835938 59.703125 C 72.636719 59.558594 72.457031 59.558594 72.242188 59.523438 C 72.167969 59.515625 72.132812 59.460938 72.035156 59.46875 C 71.789062 59.492188 71.410156 59.589844 71.167969 59.683594 C 68.53125 60.734375 66.511719 63.554688 64.429688 65.269531 C 64.089844 65.550781 63.757812 65.832031 63.402344 66.09375 C 63.230469 66.222656 63.019531 66.308594 62.886719 66.480469 Z M 58.96875 66.585938 C 58.804688 66.527344 58.585938 66.414062 58.433594 66.320312 C 56.203125 64.933594 54.191406 62.464844 51.773438 61.488281 C 51.253906 61.277344 50.796875 61.132812 50.242188 61.28125 C 50.023438 61.339844 49.910156 61.429688 49.746094 61.558594 C 49.710938 61.589844 49.65625 61.578125 49.648438 61.589844 C 49.636719 61.597656 49.652344 61.636719 49.640625 61.65625 C 49.503906 61.839844 49.507812 61.84375 49.484375 62.066406 C 49.480469 62.09375 49.429688 62.117188 49.441406 62.171875 C 49.445312 62.195312 49.480469 62.210938 49.484375 62.234375 C 49.519531 62.546875 49.695312 62.859375 49.902344 63.105469 C 51.277344 64.78125 54.234375 65.492188 56.261719 66.023438 C 57.054688 66.234375 57.957031 66.488281 58.75 66.628906 C 58.796875 66.640625 58.984375 66.675781 58.976562 66.585938 Z M 58.96875 66.585938 " fill-opacity="1" fill-rule="nonzero"/><path fill="#ffffff" d="M 34.746094 73.699219 C 34.710938 73.664062 34.386719 73.789062 34.308594 73.804688 C 34.269531 73.8125 34.214844 73.800781 34.160156 73.808594 C 32.789062 74.015625 31.359375 73.984375 29.984375 74.222656 C 29.269531 74.34375 27.609375 74.71875 27.246094 75.398438 C 27.078125 75.707031 27.152344 75.824219 27.425781 75.992188 C 28.703125 76.785156 31.28125 77.074219 32.761719 77.203125 C 36.203125 77.496094 40.253906 77.769531 43.578125 76.785156 C 44.246094 76.585938 45.042969 76.285156 45.359375 75.625 C 45.308594 75.46875 45.292969 75.316406 45.199219 75.171875 C 45.152344 75.101562 45.019531 74.960938 44.949219 74.910156 C 44.4375 74.507812 43.585938 74.414062 42.96875 74.308594 C 41.332031 74.035156 39.65625 73.925781 38.015625 73.644531 C 37.894531 73.621094 37.792969 73.691406 37.703125 73.542969 C 37.65625 73.546875 37.679688 73.625 37.679688 73.671875 C 37.675781 73.941406 37.601562 74.390625 37.625 74.597656 C 37.632812 74.671875 37.75 74.828125 37.550781 74.828125 C 37.445312 74.828125 37.378906 74.683594 37.367188 74.597656 C 37.320312 74.273438 37.402344 73.851562 37.371094 73.515625 C 37.367188 73.457031 37.324219 73.429688 37.324219 73.40625 C 36.914062 70.117188 37.265625 66.8125 37.160156 63.460938 C 37.210938 63.28125 37.273438 63.199219 37.472656 63.230469 C 37.480469 63.351562 37.566406 63.507812 37.578125 63.617188 C 37.640625 64.203125 37.644531 64.828125 37.675781 65.425781 C 37.808594 67.890625 37.859375 70.539062 37.726562 73.050781 C 37.722656 73.144531 37.734375 73.242188 37.726562 73.335938 C 38.234375 73.351562 38.746094 73.3125 39.25 73.335938 C 40.421875 73.386719 41.710938 73.515625 42.863281 73.691406 C 43.796875 73.835938 45.191406 74.003906 45.742188 74.882812 C 45.875 75.097656 45.917969 75.292969 45.976562 75.527344 C 45.933594 75.691406 45.921875 75.871094 45.863281 76.035156 C 45.601562 76.78125 44.480469 77.230469 43.777344 77.453125 C 39.644531 78.753906 34.324219 78.21875 30.125 77.5625 C 29.070312 77.394531 27.601562 77.242188 26.742188 76.507812 C 26.695312 76.46875 26.695312 76.410156 26.667969 76.375 C 26.472656 76.15625 26.441406 76.136719 26.378906 75.839844 C 26.375 75.816406 26.339844 75.800781 26.335938 75.777344 C 26.3125 75.636719 26.410156 75.527344 26.390625 75.378906 C 26.929688 74.0625 28.585938 73.625 29.859375 73.4375 C 31.226562 73.234375 32.5 73.292969 33.882812 73.234375 C 34.089844 73.226562 34.308594 73.15625 34.554688 73.179688 C 34.609375 73.183594 34.667969 73.246094 34.679688 73.230469 C 34.6875 73.226562 34.675781 73.15625 34.6875 73.109375 C 34.78125 72.753906 34.746094 72.0625 34.734375 71.660156 C 34.695312 70.171875 34.605469 68.761719 34.625 67.226562 C 34.625 67.195312 34.632812 67.039062 34.632812 67.03125 C 34.882812 65.699219 34.484375 63.929688 34.730469 62.585938 C 34.753906 62.453125 34.839844 62.296875 34.835938 62.152344 C 34.558594 62.378906 34.273438 62.671875 34.085938 62.976562 C 33.714844 63.589844 33.628906 64.335938 33.28125 64.957031 C 32.8125 65.792969 32.035156 66.226562 31.101562 66.382812 C 30.03125 66.554688 28.042969 66.203125 27.28125 67.152344 C 26.875 67.660156 26.613281 68.484375 26.253906 69.0625 C 25.777344 69.820312 24.71875 70.703125 23.875 71.011719 C 23.757812 71.054688 23.355469 71.183594 23.261719 71.175781 C 23.1875 71.167969 23.125 71.09375 23.03125 71.121094 C 22.996094 70.78125 23.160156 70.902344 23.371094 70.867188 C 23.949219 70.773438 25.050781 69.996094 25.429688 69.523438 C 25.667969 69.230469 25.882812 68.71875 26.015625 68.359375 C 26.273438 67.644531 26.371094 66.542969 26.949219 66.046875 C 27.398438 65.660156 28.164062 65.429688 28.726562 65.347656 C 29.523438 65.234375 30.613281 65.363281 31.351562 65.085938 C 32.382812 64.699219 32.394531 63.753906 32.835938 62.90625 C 33.175781 62.25 34.109375 61.238281 34.871094 61.128906 C 34.976562 61.113281 35.386719 61.140625 35.40625 61.121094 C 35.410156 61.117188 35.410156 60.921875 35.40625 60.914062 C 35.367188 60.875 34.464844 60.925781 34.292969 60.914062 C 32.417969 60.808594 30.0625 60.1875 28.273438 59.515625 C 26.765625 58.953125 24.324219 57.527344 24.070312 55.777344 C 23.984375 55.199219 24.402344 54.398438 24.890625 54.082031 C 25.6875 53.570312 26.714844 53.53125 27.589844 53.859375 C 29.101562 54.425781 30.867188 55.835938 32.105469 56.867188 C 32.839844 57.480469 33.84375 58.3125 34.453125 59.058594 C 34.5 59.117188 34.554688 59.207031 34.601562 59.265625 C 34.726562 59.414062 35.15625 59.863281 35.300781 59.964844 C 35.332031 59.988281 35.484375 60.066406 35.503906 60.039062 C 35.617188 59.605469 35.933594 59.25 36.410156 59.3125 C 36.488281 59.324219 36.71875 59.5 36.765625 59.574219 C 36.796875 59.613281 36.878906 59.765625 36.890625 59.8125 C 36.90625 59.871094 36.863281 59.964844 36.921875 59.984375 C 37.042969 59.902344 37.1875 59.839844 37.308594 59.753906 C 38.082031 59.199219 38.949219 58.332031 39.65625 57.667969 C 41.648438 55.792969 44.480469 52.429688 47.1875 51.847656 C 48.050781 51.660156 49.238281 51.957031 49.726562 52.75 C 49.785156 52.84375 49.964844 53.21875 49.984375 53.3125 C 50 53.386719 49.976562 53.457031 49.988281 53.515625 C 50.121094 54.339844 49.519531 55.578125 48.984375 56.222656 C 47.402344 58.125 44.351562 59.324219 42.03125 60.039062 C 40.867188 60.398438 39.398438 60.828125 38.210938 60.914062 C 38.027344 60.925781 37.039062 60.867188 37 60.914062 C 36.980469 60.929688 37.011719 61.226562 37 61.300781 C 36.988281 61.378906 36.917969 61.4375 36.945312 61.53125 L 37.796875 61.53125 C 37.8125 61.53125 38.042969 61.570312 38.109375 61.582031 C 40.105469 61.914062 40.457031 63.734375 41.558594 65.089844 C 41.644531 65.195312 41.714844 65.335938 41.839844 65.425781 C 41.996094 65.535156 42.105469 65.53125 42.273438 65.558594 C 42.832031 65.65625 43.414062 65.570312 43.980469 65.601562 C 44.195312 65.617188 44.539062 65.664062 44.753906 65.707031 C 45.671875 65.878906 46.433594 66.582031 46.78125 67.441406 C 46.894531 67.71875 46.945312 68.027344 47.054688 68.304688 C 47.203125 68.675781 47.570312 69.226562 47.957031 69.363281 C 48.34375 69.496094 48.867188 69.570312 49.292969 69.625 C 49.351562 69.628906 49.386719 69.671875 49.441406 69.679688 C 49.679688 69.703125 50.132812 69.628906 50.316406 69.679688 C 50.363281 69.691406 50.5 69.882812 50.5 69.90625 C 50.5 69.917969 50.390625 70.027344 50.371094 70.03125 C 50.242188 70.070312 49.519531 70.050781 49.339844 70.035156 C 49.28125 70.03125 49.246094 69.988281 49.191406 69.980469 C 48.09375 69.867188 46.867188 69.714844 46.230469 68.660156 C 45.832031 68.003906 45.644531 67.097656 44.75 66.894531 C 44.152344 66.757812 43.417969 66.878906 42.792969 66.839844 C 42.625 66.828125 42.347656 66.769531 42.171875 66.738281 C 41.539062 66.644531 41.121094 66.359375 40.707031 65.882812 C 39.957031 65.023438 39.390625 63.289062 38.542969 62.6875 C 38.164062 62.414062 37.4375 62.304688 36.976562 62.242188 C 36.953125 62.238281 36.9375 62.199219 36.871094 62.199219 C 36.820312 62.199219 36.859375 62.257812 36.835938 62.320312 C 36.820312 62.371094 36.722656 62.566406 36.691406 62.585938 C 36.667969 62.601562 36.539062 62.648438 36.503906 62.660156 C 36.460938 62.667969 36.1875 62.570312 36.175781 62.558594 C 36.164062 62.550781 36.175781 62.492188 36.148438 62.457031 C 36.109375 62.398438 35.980469 62.378906 35.914062 62.328125 C 35.800781 62.246094 35.644531 61.964844 35.578125 61.945312 C 35.394531 61.894531 35.222656 62.03125 35.039062 61.996094 C 35.351562 62.304688 35.222656 62.75 35.242188 63.15625 C 35.359375 65.488281 35.300781 67.957031 35.195312 70.320312 C 35.140625 71.578125 35.089844 72.921875 34.984375 74.183594 C 34.976562 74.316406 35.015625 74.539062 34.984375 74.648438 C 34.953125 74.761719 34.855469 74.671875 34.78125 74.671875 C 34.804688 74.609375 34.730469 74.550781 34.730469 74.542969 C 34.730469 74.417969 34.761719 73.722656 34.730469 73.691406 Z M 38.558594 59.882812 C 38.707031 59.921875 38.832031 59.847656 38.945312 59.832031 C 41.480469 59.457031 44.613281 58.082031 46.757812 56.664062 C 47.570312 56.125 48.722656 54.980469 48.863281 53.976562 C 48.917969 53.601562 48.816406 53.328125 48.507812 53.105469 C 48.308594 52.960938 48.128906 52.960938 47.914062 52.925781 C 47.839844 52.917969 47.804688 52.863281 47.707031 52.871094 C 47.460938 52.894531 47.082031 52.992188 46.839844 53.085938 C 44.203125 54.136719 42.183594 56.957031 40.101562 58.667969 C 39.761719 58.953125 39.429688 59.234375 39.074219 59.496094 C 38.902344 59.625 38.691406 59.710938 38.558594 59.882812 Z M 34.640625 59.988281 C 34.472656 59.929688 34.257812 59.816406 34.105469 59.722656 C 31.875 58.335938 29.863281 55.867188 27.445312 54.890625 C 26.925781 54.679688 26.46875 54.535156 25.910156 54.683594 C 25.695312 54.742188 25.582031 54.832031 25.417969 54.960938 C 25.382812 54.992188 25.328125 54.980469 25.320312 54.992188 C 25.308594 55 25.324219 55.039062 25.308594 55.058594 C 25.175781 55.242188 25.179688 55.246094 25.15625 55.46875 C 25.152344 55.496094 25.101562 55.519531 25.113281 55.574219 C 25.117188 55.597656 25.152344 55.613281 25.15625 55.636719 C 25.191406 55.949219 25.367188 56.261719 25.574219 56.507812 C 26.949219 58.183594 29.90625 58.894531 31.933594 59.425781 C 32.726562 59.632812 33.628906 59.890625 34.421875 60.03125 C 34.46875 60.039062 34.65625 60.078125 34.644531 59.988281 Z M 34.640625 59.988281 " fill-opacity="1" fill-rule="nonzero"/><path fill="#ffffff" d="M 65.878906 32 C 65.878906 32 65.960938 31.988281 66.003906 32.003906 C 66.121094 32.039062 66.121094 32.328125 66.140625 32.429688 C 66.230469 32.859375 66.414062 33.289062 66.449219 33.722656 C 66.578125 35.371094 66.546875 37.019531 66.597656 38.675781 C 66.597656 38.734375 66.652344 38.769531 66.652344 38.828125 C 66.753906 41.882812 66.785156 44.945312 66.859375 48 C 66.871094 48.460938 66.910156 49.195312 66.8125 49.605469 C 66.800781 49.65625 66.8125 49.707031 66.800781 49.75 C 66.792969 49.789062 66.675781 49.898438 66.625 49.882812 C 66.472656 49.839844 66.515625 49.40625 66.5 49.289062 C 66.441406 48.890625 66.386719 48.5625 66.34375 48.152344 C 66.074219 45.453125 66.023438 42.683594 65.875 39.960938 C 65.863281 39.730469 65.886719 39.496094 65.875 39.261719 C 65.742188 39.332031 65.660156 39.480469 65.535156 39.566406 C 65.09375 39.855469 64.394531 40.007812 63.890625 40.089844 C 63.0625 40.222656 62.261719 40.207031 61.414062 40.242188 C 59.734375 40.304688 58.089844 40.433594 56.414062 40.191406 C 56.023438 40.136719 55.285156 40.015625 54.929688 39.875 C 54.835938 39.839844 54.773438 39.777344 54.691406 39.726562 C 54.703125 40.457031 54.675781 41.191406 54.691406 41.917969 C 54.746094 44.597656 54.890625 47.285156 55 49.960938 C 55.046875 51.027344 55.15625 52.152344 55.105469 53.203125 C 55.089844 53.457031 55.128906 53.617188 54.796875 53.589844 C 54.796875 53.496094 54.722656 53.390625 54.699219 53.300781 C 54.605469 52.921875 54.589844 52.5 54.539062 52.117188 C 54.265625 49.828125 54.1875 47.484375 54.078125 45.160156 C 53.910156 41.617188 53.773438 37.953125 54.125 34.4375 C 54.199219 33.691406 54.261719 32.914062 54.386719 32.175781 C 54.394531 32.148438 54.457031 32.109375 54.4375 32.042969 C 54.695312 32.066406 54.523438 32 54.558594 31.941406 C 54.652344 31.792969 54.78125 31.710938 54.847656 31.914062 C 54.996094 32.359375 55.683594 32.664062 56.117188 32.8125 C 58.117188 33.488281 61.078125 33.542969 63.121094 33.128906 C 63.636719 33.027344 64.804688 32.683594 65.230469 32.398438 C 65.300781 32.351562 65.5625 32.003906 65.621094 32.222656 C 65.648438 32.328125 65.605469 32.359375 65.570312 32.429688 C 65.214844 33.105469 64.683594 33.273438 64.007812 33.492188 C 62.375 34.011719 60.542969 33.976562 58.847656 33.792969 C 57.820312 33.683594 55.46875 33.332031 54.773438 32.507812 C 54.75 32.476562 54.714844 32.351562 54.667969 32.351562 C 54.566406 32.351562 54.601562 32.625 54.59375 32.691406 C 54.507812 33.296875 54.496094 33.511719 54.542969 34.128906 C 54.652344 35.644531 54.578125 37.199219 54.644531 38.71875 C 54.644531 38.773438 54.644531 38.832031 54.722656 38.796875 C 54.8125 38.753906 54.945312 38.601562 55.039062 38.542969 C 55.550781 38.230469 56.351562 38.117188 56.933594 38.015625 C 57.847656 37.863281 58.835938 37.746094 59.773438 37.710938 C 61.710938 37.636719 63.777344 37.613281 65.707031 37.914062 C 65.992188 37.957031 65.828125 37.882812 65.835938 37.796875 C 65.949219 36.960938 65.804688 35.554688 65.78125 34.644531 C 65.761719 33.875 65.695312 33.039062 65.777344 32.171875 C 65.78125 32.113281 65.84375 32.054688 65.832031 32.042969 C 65.816406 32.03125 65.710938 32.066406 65.671875 32.019531 L 65.515625 31.6875 C 64.777344 31.214844 63.882812 30.929688 63.023438 30.753906 C 61.101562 30.359375 59.035156 30.40625 57.136719 30.957031 C 56.503906 31.074219 55.964844 31.449219 55.390625 31.738281 C 55.0625 31.785156 54.941406 31.625 55.007812 31.300781 C 55.046875 31.105469 55.449219 30.941406 55.601562 30.8125 C 57.90625 29.738281 60.839844 29.601562 63.277344 30.1875 C 63.976562 30.355469 65.441406 30.824219 65.855469 31.425781 C 65.933594 31.539062 65.910156 31.65625 65.980469 31.765625 C 65.992188 31.832031 65.859375 31.976562 65.878906 31.992188 Z M 55.105469 39.265625 L 55.539062 39.371094 C 57.914062 39.691406 60.246094 39.621094 62.652344 39.46875 C 63.484375 39.417969 64.390625 39.390625 65.175781 39.050781 C 65.421875 38.945312 65.699219 38.707031 65.617188 38.414062 C 65.605469 38.367188 65.542969 38.34375 65.492188 38.335938 C 65.191406 38.296875 64.78125 38.351562 64.457031 38.339844 C 61.898438 38.246094 59.300781 38.226562 56.824219 38.691406 C 56.347656 38.78125 55.789062 38.875 55.34375 39.066406 C 55.292969 39.085938 55.058594 39.226562 55.105469 39.265625 Z M 55.105469 39.265625 " fill-opacity="1" fill-rule="nonzero"/><path fill="#ffffff" d="M 41.550781 25.402344 C 41.550781 25.402344 41.632812 25.390625 41.675781 25.40625 C 41.792969 25.4375 41.792969 25.730469 41.8125 25.832031 C 41.902344 26.261719 42.085938 26.691406 42.117188 27.125 C 42.246094 28.773438 42.21875 30.421875 42.269531 32.078125 C 42.269531 32.136719 42.324219 32.171875 42.324219 32.226562 C 42.425781 35.285156 42.457031 38.347656 42.53125 41.402344 C 42.542969 41.859375 42.582031 42.597656 42.484375 43.007812 C 42.472656 43.058594 42.484375 43.109375 42.472656 43.152344 C 42.460938 43.191406 42.347656 43.300781 42.296875 43.285156 C 42.144531 43.242188 42.1875 42.808594 42.171875 42.691406 C 42.113281 42.292969 42.054688 41.964844 42.015625 41.554688 C 41.746094 38.855469 41.695312 36.085938 41.546875 33.363281 C 41.535156 33.132812 41.558594 32.898438 41.546875 32.664062 C 41.410156 32.734375 41.332031 32.882812 41.207031 32.96875 C 40.765625 33.257812 40.066406 33.410156 39.5625 33.492188 C 38.734375 33.625 37.933594 33.609375 37.085938 33.644531 C 35.40625 33.707031 33.761719 33.835938 32.085938 33.59375 C 31.695312 33.539062 30.957031 33.417969 30.601562 33.277344 C 30.507812 33.242188 30.445312 33.179688 30.363281 33.128906 C 30.375 33.859375 30.34375 34.59375 30.363281 35.320312 C 30.417969 38 30.5625 40.683594 30.671875 43.359375 C 30.71875 44.429688 30.828125 45.554688 30.777344 46.605469 C 30.761719 46.859375 30.800781 47.019531 30.46875 46.992188 C 30.46875 46.898438 30.394531 46.792969 30.371094 46.703125 C 30.277344 46.324219 30.257812 45.902344 30.210938 45.519531 C 29.933594 43.230469 29.859375 40.886719 29.75 38.5625 C 29.582031 35.019531 29.441406 31.355469 29.796875 27.839844 C 29.871094 27.09375 29.933594 26.316406 30.058594 25.578125 C 30.0625 25.550781 30.128906 25.511719 30.105469 25.445312 C 30.367188 25.46875 30.195312 25.402344 30.230469 25.34375 C 30.320312 25.195312 30.449219 25.113281 30.519531 25.316406 C 30.667969 25.757812 31.355469 26.066406 31.789062 26.214844 C 33.789062 26.890625 36.746094 26.945312 38.792969 26.53125 C 39.308594 26.429688 40.476562 26.085938 40.898438 25.800781 C 40.972656 25.753906 41.234375 25.40625 41.292969 25.625 C 41.320312 25.730469 41.277344 25.761719 41.242188 25.832031 C 40.886719 26.507812 40.355469 26.675781 39.675781 26.894531 C 38.046875 27.414062 36.214844 27.378906 34.519531 27.195312 C 33.488281 27.085938 31.140625 26.734375 30.445312 25.910156 C 30.421875 25.878906 30.386719 25.753906 30.339844 25.753906 C 30.234375 25.753906 30.273438 26.027344 30.265625 26.09375 C 30.179688 26.699219 30.167969 26.914062 30.214844 27.53125 C 30.324219 29.046875 30.25 30.597656 30.316406 32.121094 C 30.316406 32.175781 30.316406 32.234375 30.394531 32.199219 C 30.484375 32.15625 30.617188 32.003906 30.707031 31.945312 C 31.222656 31.632812 32.023438 31.519531 32.605469 31.417969 C 33.519531 31.261719 34.507812 31.148438 35.445312 31.113281 C 37.382812 31.039062 39.449219 31.015625 41.378906 31.316406 C 41.664062 31.359375 41.496094 31.285156 41.507812 31.199219 C 41.621094 30.363281 41.476562 28.957031 41.453125 28.046875 C 41.433594 27.277344 41.367188 26.441406 41.449219 25.574219 C 41.453125 25.515625 41.515625 25.457031 41.503906 25.445312 C 41.488281 25.433594 41.382812 25.46875 41.34375 25.421875 L 41.1875 25.089844 C 40.449219 24.617188 39.554688 24.332031 38.691406 24.15625 C 36.773438 23.761719 34.707031 23.808594 32.808594 24.359375 C 32.175781 24.476562 31.636719 24.851562 31.0625 25.140625 C 30.734375 25.1875 30.613281 25.027344 30.679688 24.703125 C 30.71875 24.507812 31.121094 24.34375 31.273438 24.214844 C 33.574219 23.140625 36.507812 23.003906 38.949219 23.589844 C 39.648438 23.757812 41.113281 24.226562 41.527344 24.828125 C 41.605469 24.941406 41.582031 25.058594 41.648438 25.167969 C 41.664062 25.234375 41.53125 25.378906 41.550781 25.394531 Z M 30.777344 32.667969 L 31.210938 32.773438 C 33.585938 33.09375 35.917969 33.023438 38.324219 32.871094 C 39.15625 32.820312 40.0625 32.792969 40.847656 32.453125 C 41.089844 32.347656 41.371094 32.109375 41.289062 31.816406 C 41.277344 31.769531 41.214844 31.746094 41.164062 31.738281 C 40.863281 31.699219 40.449219 31.753906 40.128906 31.742188 C 37.570312 31.648438 34.972656 31.628906 32.496094 32.09375 C 32.019531 32.183594 31.460938 32.277344 31.015625 32.46875 C 30.964844 32.488281 30.730469 32.628906 30.777344 32.667969 Z M 30.777344 32.667969 " fill-opacity="1" fill-rule="nonzero"/><g clip-path="url(#034f71e8cb)"><path fill="#ffffff" d="M 76.441406 25.863281 C 76.417969 25.886719 76.136719 25.945312 76.066406 25.972656 C 75.835938 26.074219 75.394531 26.269531 75.207031 26.402344 C 74.867188 26.652344 74.773438 27.292969 74.6875 27.6875 C 74.515625 28.4375 74.382812 29.210938 74.234375 29.96875 C 74.222656 30.027344 74.195312 30.328125 74.179688 30.347656 C 74.171875 30.351562 74.023438 30.398438 74 30.398438 C 73.933594 30.40625 73.882812 30.402344 73.84375 30.347656 C 73.820312 30.316406 73.722656 30.175781 73.71875 30.164062 C 73.671875 30 73.730469 29.601562 73.71875 29.390625 C 73.707031 29.226562 73.621094 28.941406 73.609375 28.777344 C 73.570312 28.152344 73.71875 27.410156 73.5 26.824219 C 73.4375 26.652344 73.347656 26.5 73.167969 26.433594 C 73.128906 26.417969 73.074219 26.433594 73.027344 26.421875 C 72.6875 26.351562 72.421875 26.40625 72.089844 26.378906 C 71.953125 26.371094 71.722656 26.300781 71.578125 26.273438 C 71.515625 26.261719 71.433594 26.289062 71.375 26.273438 C 71.351562 26.265625 71.242188 26.15625 71.242188 26.148438 C 71.242188 26.140625 71.300781 26.027344 71.320312 26.019531 C 71.445312 25.96875 71.605469 25.835938 71.683594 25.816406 C 72.03125 25.734375 72.40625 25.785156 72.753906 25.703125 C 73.027344 25.640625 73.167969 25.242188 73.242188 25.007812 C 73.40625 24.492188 73.722656 23.449219 73.765625 22.953125 C 73.800781 22.589844 73.738281 22.1875 73.765625 21.820312 C 73.828125 21.722656 73.960938 21.613281 74.050781 21.738281 C 74.195312 21.945312 74.105469 22.425781 74.125 22.695312 C 74.15625 23.140625 74.332031 23.582031 74.332031 24.035156 C 74.425781 24.308594 74.363281 24.671875 74.511719 24.9375 C 74.570312 25.042969 74.914062 25.316406 75.035156 25.34375 C 75.105469 25.359375 75.175781 25.339844 75.234375 25.347656 C 75.5 25.394531 75.792969 25.472656 76.054688 25.507812 C 76.257812 25.53125 76.410156 25.421875 76.496094 25.6875 C 76.496094 25.695312 76.449219 25.855469 76.441406 25.863281 Z M 75.15625 25.863281 C 74.78125 25.839844 74.414062 25.652344 74.234375 25.316406 L 73.96875 24.726562 C 73.859375 25.101562 73.738281 25.648438 73.402344 25.886719 C 73.359375 25.921875 73.300781 25.894531 73.300781 25.9375 C 73.382812 26.050781 73.609375 26.074219 73.6875 26.167969 C 73.742188 26.230469 73.957031 26.679688 73.996094 26.785156 C 74.101562 27.054688 74.144531 27.328125 74.125 27.613281 L 74.222656 27.324219 C 74.320312 26.882812 74.371094 26.398438 74.742188 26.09375 L 75.152344 25.859375 Z M 74.125 27.925781 C 74.125 27.925781 74.128906 27.726562 74.125 27.71875 C 74.054688 27.636719 74.054688 28.007812 74.125 27.925781 Z M 74.125 27.925781 " fill-opacity="1" fill-rule="nonzero"/></g><path fill="#ffffff" d="M 55.90625 41.945312 C 56.136719 41.878906 56.171875 42.347656 56.195312 42.480469 C 56.609375 45.019531 56.492188 47.808594 56.550781 50.421875 C 56.5625 50.960938 56.480469 51.675781 56.546875 52.179688 C 56.5625 52.300781 56.71875 52.636719 56.777344 52.773438 C 56.949219 53.160156 57.179688 53.601562 57.378906 53.976562 C 57.40625 54.023438 57.464844 54.058594 57.472656 54.085938 C 57.519531 54.234375 57.335938 54.355469 57.226562 54.183594 C 56.902344 53.691406 56.683594 53.097656 56.390625 52.597656 C 56.242188 52.34375 55.933594 52.046875 55.886719 51.761719 C 55.871094 51.671875 55.894531 51.582031 55.882812 51.507812 C 55.789062 50.804688 55.753906 50.0625 55.773438 49.34375 C 55.796875 48.621094 55.855469 47.800781 55.878906 47.128906 C 55.921875 46.003906 55.796875 44.898438 55.773438 43.777344 C 55.757812 43.226562 55.785156 42.675781 55.773438 42.125 C 55.765625 42.074219 55.867188 41.960938 55.902344 41.945312 Z M 55.90625 41.945312 " fill-opacity="1" fill-rule="nonzero"/><path fill="#ffffff" d="M 31.574219 35.347656 C 31.804688 35.28125 31.839844 35.75 31.863281 35.882812 C 32.28125 38.421875 32.160156 41.210938 32.21875 43.824219 C 32.234375 44.363281 32.152344 45.078125 32.214844 45.582031 C 32.230469 45.703125 32.386719 46.039062 32.449219 46.175781 C 32.621094 46.5625 32.847656 47 33.050781 47.378906 C 33.074219 47.425781 33.136719 47.460938 33.144531 47.488281 C 33.1875 47.636719 33.007812 47.757812 32.894531 47.585938 C 32.570312 47.09375 32.351562 46.5 32.058594 46 C 31.910156 45.746094 31.601562 45.449219 31.554688 45.164062 C 31.539062 45.074219 31.5625 44.984375 31.550781 44.910156 C 31.457031 44.207031 31.421875 43.464844 31.445312 42.746094 C 31.464844 42.023438 31.527344 41.203125 31.550781 40.53125 C 31.589844 39.40625 31.46875 38.300781 31.441406 37.179688 C 31.429688 36.628906 31.453125 36.078125 31.441406 35.527344 C 31.433594 35.476562 31.535156 35.363281 31.574219 35.347656 Z M 31.574219 35.347656 " fill-opacity="1" fill-rule="nonzero"/><path fill="#ffffff" d="M 47.578125 16.738281 C 47.59375 16.753906 47.570312 17.050781 47.578125 17.128906 C 47.609375 17.460938 47.628906 17.5 47.578125 17.847656 C 47.566406 17.949219 47.660156 18.308594 47.683594 18.46875 C 47.738281 18.84375 47.820312 19.191406 47.886719 19.558594 C 47.929688 19.816406 47.863281 20.0625 48.21875 20.097656 C 48.636719 20.316406 49.066406 20.507812 49.539062 20.554688 C 49.621094 21.023438 49.207031 20.828125 48.894531 20.863281 C 48.796875 20.875 48.628906 20.960938 48.535156 20.972656 C 48.253906 21.003906 48.039062 20.871094 47.894531 21.207031 C 47.839844 21.339844 47.746094 21.679688 47.730469 21.816406 C 47.664062 22.5 47.710938 23.199219 47.683594 23.882812 C 47.671875 24.207031 47.617188 24.558594 47.574219 24.90625 C 47.539062 25.195312 47.480469 25.582031 47.476562 25.894531 C 47.476562 25.972656 47.523438 26.097656 47.398438 26.074219 C 47.269531 25.96875 47.335938 25.789062 47.316406 25.640625 C 47.304688 25.5625 47.226562 25.410156 47.214844 25.328125 C 47.183594 25.019531 47.183594 24.65625 47.164062 24.347656 C 47.125 23.742188 47.015625 23.195312 46.957031 22.597656 C 46.933594 22.332031 46.980469 22.03125 46.964844 21.769531 C 46.953125 21.617188 46.878906 21.363281 46.855469 21.207031 C 46.828125 21.003906 46.890625 20.765625 46.652344 20.632812 C 46.628906 20.621094 46.480469 20.566406 46.472656 20.566406 C 46.457031 20.566406 46.421875 20.613281 46.367188 20.613281 C 46.097656 20.613281 45.835938 20.601562 45.59375 20.613281 C 45.304688 20.621094 45.109375 20.675781 45.152344 20.328125 C 45.160156 20.277344 45.179688 20.316406 45.222656 20.296875 C 45.277344 20.273438 45.347656 20.214844 45.390625 20.203125 C 45.675781 20.136719 45.890625 20.085938 46.167969 20 C 46.363281 19.941406 46.710938 19.863281 46.878906 19.78125 C 46.910156 19.761719 47.074219 19.609375 47.089844 19.582031 C 47.117188 19.535156 47.210938 19.246094 47.21875 19.195312 C 47.242188 19.023438 47.175781 18.84375 47.175781 18.726562 C 47.175781 18.421875 47.335938 18.179688 47.320312 17.800781 C 47.308594 17.488281 47.316406 17.253906 47.375 16.925781 C 47.382812 16.878906 47.359375 16.757812 47.375 16.742188 C 47.378906 16.738281 47.574219 16.738281 47.578125 16.742188 Z M 47.425781 21.25 C 47.46875 21.449219 47.394531 21.78125 47.425781 22 C 47.597656 22.042969 47.519531 21.824219 47.523438 21.722656 C 47.523438 21.652344 47.527344 21.625 47.53125 21.5625 C 47.539062 21.335938 47.550781 21.0625 47.636719 20.847656 C 47.769531 20.519531 48.003906 20.710938 48.148438 20.453125 C 47.910156 20.378906 47.605469 20.273438 47.578125 19.988281 C 47.464844 20.050781 47.4375 20.191406 47.320312 20.273438 C 47.269531 20.3125 47.0625 20.375 47.0625 20.425781 C 47.0625 20.449219 47.230469 20.664062 47.265625 20.742188 C 47.3125 20.871094 47.300781 20.980469 47.328125 21.089844 C 47.339844 21.140625 47.421875 21.226562 47.425781 21.25 Z M 47.425781 21.25 " fill-opacity="1" fill-rule="nonzero"/><path fill="#ffffff" d="M 37.527344 54.371094 C 37.527344 54.371094 37.480469 54.214844 37.472656 54.191406 C 37.457031 54.066406 37.546875 53.671875 37.585938 53.523438 C 37.953125 52.144531 39.4375 49.890625 40.285156 48.699219 C 40.660156 48.171875 41.269531 47.535156 41.578125 47 C 41.621094 46.925781 41.65625 46.761719 41.699219 46.65625 C 41.730469 46.582031 41.699219 46.542969 41.832031 46.585938 C 41.976562 46.628906 41.875 46.773438 41.863281 46.824219 C 41.628906 47.898438 41.113281 48.617188 40.546875 49.523438 C 39.773438 50.765625 38.972656 51.992188 38.257812 53.269531 C 38.066406 53.609375 37.894531 53.972656 37.714844 54.320312 C 37.6875 54.378906 37.546875 54.386719 37.53125 54.371094 Z M 37.527344 54.371094 " fill-opacity="1" fill-rule="nonzero"/><path fill="#ffffff" d="M 61.855469 60.96875 C 61.855469 60.96875 61.808594 60.8125 61.804688 60.789062 C 61.785156 60.664062 61.875 60.269531 61.914062 60.121094 C 62.28125 58.742188 63.765625 56.492188 64.613281 55.296875 C 64.988281 54.769531 65.597656 54.136719 65.90625 53.597656 C 65.949219 53.523438 65.984375 53.359375 66.027344 53.257812 C 66.058594 53.179688 66.027344 53.140625 66.160156 53.183594 C 66.304688 53.226562 66.203125 53.371094 66.195312 53.421875 C 65.957031 54.5 65.441406 55.214844 64.875 56.121094 C 64.101562 57.363281 63.304688 58.589844 62.585938 59.867188 C 62.394531 60.207031 62.222656 60.570312 62.042969 60.917969 C 62.015625 60.976562 61.875 60.984375 61.859375 60.96875 Z M 61.855469 60.96875 " fill-opacity="1" fill-rule="nonzero"/><path fill="#ffffff" d="M 34.898438 54.214844 C 34.917969 54.117188 34.832031 54.09375 34.800781 54.027344 C 34.652344 53.71875 34.535156 53.371094 34.378906 53.058594 C 33.789062 51.929688 32.929688 50.96875 32.140625 49.988281 C 31.625 49.34375 30.894531 48.582031 30.699219 47.769531 C 30.683594 47.703125 30.671875 47.640625 30.75 47.617188 C 30.867188 47.585938 31.019531 47.769531 31.085938 47.847656 C 31.742188 48.570312 32.359375 49.382812 32.96875 50.140625 C 33.761719 51.136719 34.703125 52.160156 35.050781 53.417969 C 35.078125 53.515625 34.996094 53.558594 35.007812 53.613281 L 35.152344 54.03125 C 35.085938 54.152344 35.066406 54.242188 34.902344 54.210938 Z M 34.898438 54.214844 " fill-opacity="1" fill-rule="nonzero"/><path fill="#ffffff" d="M 59.226562 60.8125 C 59.246094 60.714844 59.160156 60.691406 59.128906 60.625 C 58.980469 60.316406 58.863281 59.96875 58.707031 59.660156 C 58.117188 58.527344 57.257812 57.566406 56.472656 56.585938 C 55.957031 55.941406 55.222656 55.179688 55.027344 54.371094 C 55.011719 54.300781 55 54.238281 55.082031 54.214844 C 55.195312 54.183594 55.347656 54.367188 55.414062 54.445312 C 56.070312 55.167969 56.6875 55.980469 57.296875 56.738281 C 58.089844 57.734375 59.03125 58.757812 59.382812 60.015625 C 59.40625 60.113281 59.324219 60.15625 59.335938 60.210938 L 59.480469 60.628906 C 59.414062 60.75 59.394531 60.839844 59.230469 60.808594 Z M 59.226562 60.8125 " fill-opacity="1" fill-rule="nonzero"/><path fill="#ffffff" d="M 32.917969 35.96875 C 32.988281 35.945312 33.125 35.96875 33.144531 36.042969 C 33.167969 36.128906 33.097656 36.179688 33.09375 36.246094 C 33.070312 36.484375 33.117188 36.738281 33.144531 36.972656 C 33.382812 39.121094 33.183594 41.300781 33.25 43.519531 C 33.207031 43.683594 33.136719 44.042969 32.992188 43.722656 C 32.972656 43.136719 33.015625 42.550781 32.992188 41.964844 C 32.992188 41.910156 32.941406 41.875 32.9375 41.816406 C 32.863281 40.320312 32.867188 38.820312 32.789062 37.328125 C 32.78125 37.269531 32.734375 37.234375 32.730469 37.179688 C 32.722656 36.945312 32.695312 36.398438 32.738281 36.203125 C 32.75 36.152344 32.867188 35.980469 32.917969 35.96875 Z M 32.917969 35.96875 " fill-opacity="1" fill-rule="nonzero"/><path fill="#ffffff" d="M 35.207031 54.679688 L 35.363281 55.269531 C 35.550781 56.34375 35.554688 57.777344 35.410156 58.878906 C 35.390625 59.042969 35.457031 59.136719 35.46875 59.238281 C 35.476562 59.367188 35.480469 59.585938 35.46875 59.707031 C 35.449219 59.839844 35.289062 59.882812 35.261719 59.804688 C 35.246094 59.777344 35.222656 59.71875 35.21875 59.703125 C 35.1875 59.558594 35.179688 59.242188 35.15625 59.035156 C 35.050781 58.207031 34.867188 57.53125 34.898438 56.660156 C 34.898438 56.601562 34.953125 56.566406 34.953125 56.507812 C 34.96875 55.992188 34.894531 55.347656 34.949219 54.855469 C 34.953125 54.832031 34.996094 54.683594 35.003906 54.679688 C 35.015625 54.664062 35.15625 54.683594 35.210938 54.679688 Z M 35.207031 54.679688 " fill-opacity="1" fill-rule="nonzero"/><path fill="#ffffff" d="M 59.539062 61.277344 L 59.695312 61.867188 C 59.882812 62.941406 59.882812 64.375 59.742188 65.476562 C 59.71875 65.640625 59.789062 65.734375 59.796875 65.835938 C 59.804688 65.964844 59.8125 66.183594 59.796875 66.304688 C 59.78125 66.4375 59.621094 66.480469 59.589844 66.40625 C 59.578125 66.375 59.554688 66.320312 59.550781 66.300781 C 59.519531 66.15625 59.511719 65.839844 59.484375 65.632812 C 59.382812 64.804688 59.195312 64.128906 59.226562 63.257812 C 59.226562 63.199219 59.28125 63.164062 59.285156 63.109375 C 59.300781 62.589844 59.222656 61.945312 59.28125 61.453125 C 59.28125 61.429688 59.328125 61.28125 59.332031 61.277344 C 59.347656 61.265625 59.488281 61.28125 59.539062 61.277344 Z M 59.539062 61.277344 " fill-opacity="1" fill-rule="nonzero"/><path fill="#ffffff" d="M 37.730469 55.195312 C 37.730469 55.195312 37.785156 55.347656 37.789062 55.371094 C 37.832031 55.746094 37.808594 56.421875 37.789062 56.816406 C 37.765625 57.296875 37.617188 57.800781 37.578125 58.257812 C 37.566406 58.378906 37.605469 58.5625 37.578125 58.667969 C 37.539062 58.800781 37.34375 58.886719 37.320312 58.621094 C 37.308594 58.433594 37.339844 58.234375 37.320312 58.050781 C 37.316406 57.992188 37.273438 57.957031 37.265625 57.898438 C 37.1875 57.132812 37.195312 56.242188 37.324219 55.480469 C 37.335938 55.402344 37.425781 55.285156 37.421875 55.191406 C 37.492188 55.210938 37.523438 55.152344 37.554688 55.140625 C 37.5625 55.136719 37.722656 55.1875 37.726562 55.191406 Z M 37.730469 55.195312 " fill-opacity="1" fill-rule="nonzero"/><path fill="#ffffff" d="M 62.0625 61.792969 C 62.0625 61.792969 62.113281 61.945312 62.117188 61.96875 C 62.160156 62.34375 62.136719 63.023438 62.117188 63.414062 C 62.09375 63.894531 61.949219 64.398438 61.910156 64.855469 C 61.898438 64.976562 61.9375 65.164062 61.910156 65.265625 C 61.871094 65.398438 61.675781 65.484375 61.652344 65.21875 C 61.632812 64.980469 61.632812 64.78125 61.605469 64.542969 C 61.519531 63.753906 61.527344 62.855469 61.660156 62.078125 C 61.671875 62 61.761719 61.882812 61.757812 61.789062 C 61.828125 61.808594 61.855469 61.75 61.890625 61.738281 C 61.898438 61.738281 62.054688 61.785156 62.0625 61.789062 Z M 62.0625 61.792969 " fill-opacity="1" fill-rule="nonzero"/><path fill="#ffffff" d="M 57.375 46.171875 C 57.359375 46.1875 57.261719 46.171875 57.21875 46.148438 C 57.125 46.085938 57.183594 45.898438 57.167969 45.785156 C 57.054688 44.824219 56.882812 43.863281 56.964844 42.902344 C 56.980469 42.695312 56.882812 42.226562 57.191406 42.253906 C 57.4375 42.277344 57.261719 42.527344 57.273438 42.582031 C 57.277344 42.605469 57.3125 42.625 57.316406 42.648438 C 57.53125 43.695312 57.378906 44.8125 57.425781 45.890625 C 57.363281 45.953125 57.382812 46.160156 57.371094 46.171875 Z M 57.375 46.171875 " fill-opacity="1" fill-rule="nonzero"/><path fill="#ffffff" d="M 72.785156 39.988281 C 72.660156 39.789062 72.917969 39.648438 73.121094 39.675781 C 73.175781 39.683594 73.203125 39.714844 73.230469 39.722656 C 73.320312 39.742188 73.429688 39.734375 73.507812 39.804688 C 73.523438 39.816406 73.65625 40.003906 73.65625 40.015625 C 73.679688 40.101562 73.679688 40.835938 73.65625 40.9375 C 73.628906 41.078125 73.355469 41.292969 73.21875 41.324219 C 72.941406 41.382812 72.515625 41.261719 72.347656 41.019531 C 72.3125 40.96875 72.234375 40.785156 72.222656 40.730469 C 72.167969 40.394531 72.425781 39.960938 72.785156 39.988281 Z M 73.199219 40.914062 C 73.199219 40.914062 73.25 40.761719 73.25 40.738281 C 73.261719 40.644531 73.265625 40.296875 73.246094 40.222656 C 73.242188 40.199219 73.089844 40.050781 73.066406 40.042969 C 73.027344 40.03125 72.84375 40.03125 72.839844 40.039062 C 72.828125 40.050781 72.800781 40.253906 72.777344 40.316406 C 72.742188 40.421875 72.644531 40.488281 72.6875 40.628906 C 72.695312 40.664062 72.746094 40.679688 72.761719 40.710938 C 72.785156 40.75 72.78125 40.804688 72.789062 40.808594 C 72.796875 40.816406 72.851562 40.8125 72.890625 40.839844 C 72.917969 40.851562 72.933594 40.902344 72.96875 40.914062 C 73.007812 40.925781 73.1875 40.925781 73.199219 40.917969 Z M 73.199219 40.914062 " fill-opacity="1" fill-rule="nonzero"/><path fill="#ffffff" d="M 66.753906 50.195312 L 66.910156 50.734375 C 66.90625 51.425781 66.785156 52.082031 66.445312 52.691406 L 66.320312 52.820312 C 66.144531 52.660156 66.324219 52.449219 66.292969 52.226562 C 66.230469 51.722656 66.363281 51.1875 66.449219 50.683594 C 66.480469 50.5 66.484375 50.488281 66.542969 50.3125 C 66.558594 50.269531 66.542969 50.203125 66.550781 50.195312 C 66.5625 50.179688 66.710938 50.199219 66.757812 50.195312 Z M 66.753906 50.195312 " fill-opacity="1" fill-rule="nonzero"/><path fill="#ffffff" d="M 42.425781 43.59375 L 42.582031 44.136719 C 42.578125 44.828125 42.457031 45.480469 42.113281 46.09375 L 41.988281 46.222656 C 41.816406 46.058594 41.992188 45.851562 41.964844 45.628906 C 41.898438 45.125 42.03125 44.589844 42.117188 44.085938 C 42.152344 43.902344 42.152344 43.890625 42.214844 43.714844 C 42.226562 43.671875 42.214844 43.605469 42.222656 43.59375 C 42.234375 43.582031 42.378906 43.601562 42.429688 43.59375 Z M 42.425781 43.59375 " fill-opacity="1" fill-rule="nonzero"/><path fill="#ffffff" d="M 30.46875 17.050781 C 30.46875 17.050781 30.53125 17.054688 30.570312 17.023438 C 30.613281 16.988281 30.660156 16.910156 30.703125 16.894531 C 30.746094 16.882812 30.796875 16.894531 30.847656 16.886719 C 30.980469 16.851562 30.996094 16.800781 31.15625 16.898438 C 31.453125 17.078125 31.582031 17.570312 31.421875 17.871094 C 31.300781 18.097656 31.054688 18.21875 30.800781 18.179688 C 30.757812 18.175781 30.566406 18.058594 30.542969 18.027344 C 30.480469 17.957031 30.371094 17.730469 30.359375 17.640625 C 30.351562 17.558594 30.351562 17.359375 30.367188 17.285156 C 30.371094 17.269531 30.460938 17.058594 30.46875 17.050781 Z M 30.878906 17.769531 C 30.9375 17.773438 30.976562 17.78125 31.035156 17.746094 C 31.058594 17.730469 31.234375 17.5 31.238281 17.484375 C 31.25 17.445312 31.105469 17.167969 31.058594 17.152344 C 30.980469 17.132812 30.863281 17.164062 30.777344 17.152344 C 30.804688 17.261719 30.699219 17.335938 30.726562 17.433594 C 30.761719 17.554688 30.855469 17.652344 30.878906 17.773438 Z M 30.878906 17.769531 " fill-opacity="1" fill-rule="nonzero"/><path fill="#ffffff" d="M 69.671875 35.40625 C 69.835938 35.367188 70.15625 35.46875 70.203125 35.636719 C 70.21875 35.691406 70.21875 36.035156 70.203125 36.09375 C 70.152344 36.269531 69.71875 36.316406 69.566406 36.273438 C 69.542969 36.265625 69.339844 36.066406 69.332031 36.042969 C 69.265625 35.808594 69.429688 35.457031 69.671875 35.40625 Z M 69.671875 35.40625 " fill-opacity="1" fill-rule="nonzero"/><path fill="#ffffff" d="M 66.628906 19.578125 C 66.71875 19.546875 66.847656 19.773438 66.859375 19.859375 C 66.878906 19.988281 66.867188 20.234375 66.859375 20.378906 C 66.855469 20.4375 66.808594 20.46875 66.804688 20.527344 C 66.792969 20.714844 66.820312 20.910156 66.804688 21.097656 C 66.800781 21.160156 66.804688 21.257812 66.726562 21.277344 C 66.476562 21.351562 66.5625 20.972656 66.546875 20.839844 C 66.527344 20.65625 66.410156 20.410156 66.390625 20.273438 C 66.355469 20.042969 66.375 19.660156 66.625 19.578125 Z M 66.628906 19.578125 " fill-opacity="1" fill-rule="nonzero"/><path fill="#ffffff" d="M 66.421875 22.464844 C 66.476562 22.449219 66.550781 22.457031 66.601562 22.488281 C 66.75 22.582031 66.6875 22.710938 66.699219 22.851562 C 66.707031 22.90625 66.746094 22.933594 66.75 22.960938 C 66.757812 23.011719 66.660156 23.378906 66.648438 23.46875 C 66.636719 23.558594 66.671875 23.695312 66.648438 23.777344 C 66.640625 23.8125 66.480469 23.90625 66.472656 23.90625 C 66.460938 23.90625 66.351562 23.796875 66.347656 23.777344 C 66.320312 23.679688 66.355469 23.523438 66.347656 23.417969 C 66.339844 23.355469 66.292969 23.324219 66.289062 23.265625 C 66.28125 23.132812 66.265625 22.695312 66.292969 22.597656 C 66.300781 22.578125 66.402344 22.472656 66.421875 22.46875 Z M 66.421875 22.464844 " fill-opacity="1" fill-rule="nonzero"/><path fill="#ffffff" d="M 66.03125 21.6875 C 66.007812 21.765625 66.101562 21.808594 66.085938 21.863281 C 66.027344 22.058594 65.695312 21.980469 65.542969 21.996094 C 65.347656 22.011719 65.15625 22.082031 64.921875 22.050781 C 64.632812 22.011719 64.628906 21.695312 64.824219 21.640625 C 64.914062 21.613281 65.269531 21.625 65.390625 21.636719 C 65.449219 21.640625 65.480469 21.6875 65.539062 21.691406 C 65.699219 21.703125 65.871094 21.679688 66.03125 21.691406 Z M 66.03125 21.6875 " fill-opacity="1" fill-rule="nonzero"/><path fill="#ffffff" d="M 67.246094 21.945312 C 67.105469 21.910156 67.175781 21.675781 67.300781 21.640625 C 67.34375 21.628906 67.394531 21.640625 67.445312 21.632812 C 67.59375 21.597656 67.699219 21.566406 67.867188 21.582031 C 67.921875 21.589844 67.960938 21.636719 68.015625 21.640625 C 68.140625 21.648438 68.667969 21.574219 68.609375 21.765625 C 68.601562 21.792969 68.535156 21.820312 68.558594 21.894531 C 68.464844 21.898438 68.371094 21.890625 68.277344 21.898438 C 68.246094 21.902344 68.230469 21.945312 68.222656 21.945312 C 67.996094 21.945312 67.414062 21.992188 67.242188 21.945312 Z M 67.246094 21.945312 " fill-opacity="1" fill-rule="nonzero"/><path fill="#ffffff" d="M 57.964844 55.144531 C 58.070312 55.113281 58.273438 55.320312 58.328125 55.398438 C 58.386719 55.484375 58.386719 55.585938 58.429688 55.660156 C 58.46875 55.730469 58.683594 55.898438 58.710938 55.996094 C 58.785156 56.257812 58.539062 56.378906 58.457031 56.195312 C 58.445312 56.167969 58.457031 56.121094 58.429688 56.070312 C 58.332031 55.886719 57.777344 55.566406 57.839844 55.328125 C 57.847656 55.296875 57.933594 55.152344 57.964844 55.144531 Z M 57.964844 55.144531 " fill-opacity="1" fill-rule="nonzero"/><path fill="#ffffff" d="M 33.636719 48.546875 C 33.738281 48.515625 33.945312 48.722656 33.996094 48.800781 C 34.054688 48.886719 34.058594 48.988281 34.097656 49.0625 C 34.140625 49.132812 34.351562 49.300781 34.378906 49.398438 C 34.453125 49.660156 34.207031 49.78125 34.128906 49.597656 C 34.117188 49.570312 34.128906 49.523438 34.101562 49.472656 C 34 49.289062 33.445312 48.96875 33.507812 48.730469 C 33.519531 48.699219 33.605469 48.554688 33.636719 48.546875 Z M 33.636719 48.546875 " fill-opacity="1" fill-rule="nonzero"/><g clip-path="url(#8701358455)"><path fill="#ffffff" d="M 38.894531 14.214844 C 39.125 14.148438 39.226562 14.398438 39.171875 14.59375 C 39.082031 14.695312 39.105469 15.109375 38.996094 15.144531 C 38.90625 15.171875 38.890625 15.066406 38.867188 15.015625 C 38.808594 14.878906 38.835938 14.816406 38.816406 14.703125 C 38.800781 14.585938 38.726562 14.492188 38.769531 14.34375 C 38.773438 14.324219 38.875 14.21875 38.894531 14.214844 Z M 38.894531 14.214844 " fill-opacity="1" fill-rule="nonzero"/></g><path fill="#ffffff" d="M 37.714844 15.402344 C 37.871094 15.5 38.078125 15.414062 38.21875 15.453125 C 38.257812 15.464844 38.367188 15.582031 38.351562 15.628906 C 38.285156 15.835938 37.953125 15.710938 37.808594 15.800781 C 37.683594 15.730469 37.308594 15.75 37.371094 15.53125 C 37.40625 15.410156 37.636719 15.488281 37.714844 15.40625 Z M 37.714844 15.402344 " fill-opacity="1" fill-rule="nonzero"/><path fill="#ffffff" d="M 40.257812 15.660156 C 40.257812 15.660156 40.265625 15.855469 40.257812 15.863281 C 40.253906 15.871094 40.105469 15.917969 40.082031 15.917969 C 39.929688 15.9375 39.378906 15.945312 39.332031 15.789062 C 39.289062 15.648438 39.582031 15.597656 39.667969 15.566406 C 39.785156 15.648438 39.945312 15.589844 40.082031 15.605469 C 40.105469 15.605469 40.253906 15.652344 40.257812 15.660156 Z M 40.257812 15.660156 " fill-opacity="1" fill-rule="nonzero"/><g clip-path="url(#e8d9c75245)"><path fill="#ffffff" d="M 33.046875 14.785156 C 33.046875 14.785156 33.234375 14.722656 33.273438 14.730469 C 33.332031 14.75 33.527344 15 33.503906 15.0625 C 33.496094 15.09375 33.410156 15.234375 33.375 15.242188 C 33.265625 15.277344 33.019531 15.160156 32.992188 15.0625 C 32.976562 15.011719 33.023438 14.804688 33.046875 14.785156 Z M 33.046875 14.785156 " fill-opacity="1" fill-rule="nonzero"/></g><path fill="#ffffff" d="M 39.023438 16.6875 C 39.023438 16.6875 38.917969 16.675781 38.894531 16.738281 C 38.800781 16.738281 38.773438 16.347656 38.757812 16.257812 C 38.753906 16.230469 38.714844 16.207031 38.710938 16.148438 C 38.691406 15.980469 38.839844 15.90625 38.96875 15.992188 C 38.996094 16.007812 39.066406 16.175781 39.070312 16.203125 C 39.082031 16.253906 39.023438 16.289062 39.019531 16.351562 C 39.015625 16.421875 39.035156 16.671875 39.019531 16.6875 Z M 39.023438 16.6875 " fill-opacity="1" fill-rule="nonzero"/><path fill="#ffffff" d="M 25.566406 23.59375 C 25.277344 23.625 25.351562 23.542969 25.3125 23.359375 C 25.296875 23.285156 25.25 23.25 25.257812 23.15625 C 25.277344 22.945312 25.578125 23.019531 25.621094 23.160156 C 25.632812 23.210938 25.566406 23.25 25.566406 23.3125 C 25.566406 23.363281 25.609375 23.394531 25.609375 23.414062 C 25.609375 23.4375 25.539062 23.519531 25.570312 23.59375 Z M 25.566406 23.59375 " fill-opacity="1" fill-rule="nonzero"/><path fill="#ffffff" d="M 25.570312 24.78125 C 25.519531 24.832031 25.335938 24.722656 25.316406 24.652344 C 25.296875 24.570312 25.292969 24.296875 25.390625 24.269531 C 25.601562 24.207031 25.5625 24.441406 25.570312 24.550781 C 25.574219 24.59375 25.597656 24.621094 25.601562 24.628906 C 25.601562 24.664062 25.578125 24.777344 25.574219 24.78125 Z M 25.570312 24.78125 " fill-opacity="1" fill-rule="nonzero"/><path fill="#ffffff" d="M 25.105469 23.90625 C 25.125 23.921875 25.0625 24.152344 25.054688 24.164062 C 25.039062 24.175781 24.671875 24.191406 24.640625 24.085938 C 24.617188 24.003906 24.8125 23.875 24.878906 23.859375 C 24.917969 23.847656 25.097656 23.898438 25.105469 23.90625 Z M 25.105469 23.90625 " fill-opacity="1" fill-rule="nonzero"/><path fill="#ffffff" d="M 25.726562 24.164062 C 25.726562 24.164062 25.714844 24.015625 25.726562 23.980469 C 25.753906 23.871094 26.097656 23.867188 26.136719 23.980469 C 26.179688 24.121094 25.773438 24.210938 25.722656 24.164062 Z M 25.726562 24.164062 " fill-opacity="1" fill-rule="nonzero"/></g></g></g></svg>